<svg id="Layer_1" data-name="Layer 1" xmlns="http://www.w3.org/2000/svg" xmlns:xlink="http://www.w3.org/1999/xlink" viewBox="0 0 1920 1591"><defs><style>.cls-1{fill:none;}.cls-2{fill:#ccc;}.cls-3{opacity:0.3;fill:url(#New_Pattern);}</style><pattern id="New_Pattern" data-name="New Pattern" width="350.87" height="350.74" patternTransform="translate(2803.95 350.74)" patternUnits="userSpaceOnUse" viewBox="0 0 350.87 350.74"><rect class="cls-1" width="350.87" height="350.74"/><path class="cls-2" d="M176.08,234.07a53.11,53.11,0,0,1,40.34-18.55h9.45a2.68,2.68,0,0,0,2.67-2.67v-67a2.68,2.68,0,0,0-2.67-2.67H200a42,42,0,0,0-28,10.74,2.67,2.67,0,0,0,0,4,35.82,35.82,0,0,1,2.89,2.89,36.58,36.58,0,0,1,9.38,24.44V219.6a58.58,58.58,0,0,0-12.52,11,2.68,2.68,0,0,0,0,3.52l.06.07a2.72,2.72,0,0,0,2,.86h.25A2.68,2.68,0,0,0,176.08,234.07Zm-2.32-1.78ZM200,148.54H223.2v61.65h-6.78a58.39,58.39,0,0,0-26.84,6.52V185.25a41.93,41.93,0,0,0-10.74-28c-.35-.4-.72-.79-1.09-1.17A36.59,36.59,0,0,1,200,148.54Z"/><path class="cls-2" d="M175.69,234.13l.09-.11a2.67,2.67,0,0,0,0-3.47,59,59,0,0,0-12.51-11V185.25a36.62,36.62,0,0,1,9.37-24.44,39.54,39.54,0,0,1,2.89-2.9,2.62,2.62,0,0,0,.89-2,2.66,2.66,0,0,0-.89-2,41.93,41.93,0,0,0-28-10.74h-25.9a2.68,2.68,0,0,0-2.67,2.67v67a2.68,2.68,0,0,0,2.67,2.67h9.45a53.11,53.11,0,0,1,40.34,18.55,2.68,2.68,0,0,0,2,.93h.25A2.69,2.69,0,0,0,175.69,234.13Zm-51.38-85.59h23.23a36.59,36.59,0,0,1,22.22,7.54c-.37.38-.74.77-1.09,1.17a41.93,41.93,0,0,0-10.74,28v31.46a58.39,58.39,0,0,0-26.84-6.52h-6.78Z"/><path class="cls-2" d="M175.78,234a53.38,53.38,0,0,1,12.53-10.69,2.65,2.65,0,0,0,1.27-2.27V185.25a41.93,41.93,0,0,0-10.74-28h0a41.35,41.35,0,0,0-3.31-3.31,2.65,2.65,0,0,0-3.55,0,39.76,39.76,0,0,0-3.31,3.31,41.93,41.93,0,0,0-10.74,28v35.82a2.65,2.65,0,0,0,1.27,2.27A53.18,53.18,0,0,1,171.73,234a2.71,2.71,0,0,0,2,.92h0A2.7,2.7,0,0,0,175.78,234Zm-12.51-48.78a36.62,36.62,0,0,1,9.37-24.44c.36-.41.73-.8,1.12-1.19.38.39.75.78,1.11,1.19a36.58,36.58,0,0,1,9.38,24.44V219.6a58.79,58.79,0,0,0-10.49,8.71,59.51,59.51,0,0,0-10.49-8.71Z"/><path class="cls-2" d="M132.71,138.44a2.67,2.67,0,0,1-2.27-1.28l-4-6.55a2.67,2.67,0,1,1,4.55-2.78l4,6.55a2.67,2.67,0,0,1-2.28,4.06Z"/><path class="cls-2" d="M154.38,137a2.66,2.66,0,0,1-2.53-1.84l-4-12.14a2.66,2.66,0,1,1,5.06-1.67l4,12.14a2.69,2.69,0,0,1-2.53,3.51Z"/><path class="cls-2" d="M193.71,137a2.69,2.69,0,0,1-2.53-3.51l4-12.14a2.66,2.66,0,1,1,5.06,1.67l-4,12.14A2.67,2.67,0,0,1,193.71,137Z"/><path class="cls-2" d="M215.38,138.44a2.67,2.67,0,0,1-2.28-4.06l4-6.55a2.67,2.67,0,1,1,4.55,2.78l-4,6.55A2.67,2.67,0,0,1,215.38,138.44Z"/><path class="cls-2" d="M174,137.88a2.67,2.67,0,0,1-2.66-2.67V117.67a2.67,2.67,0,1,1,5.33,0v17.54A2.67,2.67,0,0,1,174,137.88Z"/><path class="cls-2" d="M188.29,350h0c.07.25.14.49.19.74C188.43,350.49,188.36,350.25,188.29,350Z"/><path class="cls-2" d="M0,228.07c.22-.23.46-.45.69-.68v0Z"/><path class="cls-2" d="M14.29,350h0c.07.25.14.49.19.74C14.43,350.49,14.36,350.25,14.29,350Z"/><path class="cls-2" d="M350.87,160.81l-.17-.18h0Z"/><path class="cls-2" d="M350.87,335.81l-.17-.18h0Z"/><path class="cls-2" d="M178.49,48.88c-.74.62-1.46,1.25-2.16,1.9C177,50.13,177.75,49.5,178.49,48.88Z"/><path class="cls-2" d="M223.2,35.19h-6.78a58.39,58.39,0,0,0-26.84,6.52v4.36a2.65,2.65,0,0,1-1.27,2.27A53.38,53.38,0,0,0,175.78,59h0l-.08.1a2.68,2.68,0,0,1-1.93.86h.29a2.68,2.68,0,0,0,2-.93,53.11,53.11,0,0,1,40.34-18.55h9.45a2.68,2.68,0,0,0,2.67-2.67V0H223.2Z"/><path class="cls-2" d="M174,53.07c.7-.72,1.41-1.43,2.14-2.12C175.41,51.64,174.7,52.35,174,53.07Z"/><path class="cls-2" d="M181.24,46.7c-.79.59-1.57,1.2-2.33,1.83C179.67,47.9,180.45,47.29,181.24,46.7Z"/><path class="cls-2" d="M184.25,44.6c-.86.56-1.7,1.15-2.52,1.75C182.55,45.75,183.39,45.16,184.25,44.6Z"/><path class="cls-2" d="M168.6,48.53c-.76-.63-1.54-1.24-2.33-1.83C167.06,47.29,167.84,47.9,168.6,48.53Z"/><path class="cls-2" d="M171.18,50.78c-.7-.65-1.42-1.28-2.16-1.9C169.76,49.5,170.48,50.13,171.18,50.78Z"/><path class="cls-2" d="M165.78,46.35c-.82-.6-1.66-1.19-2.51-1.75C164.12,45.16,165,45.75,165.78,46.35Z"/><path class="cls-2" d="M121.64,40.52h9.45a53.11,53.11,0,0,1,40.34,18.55,2.68,2.68,0,0,0,2,.93h.3a2.62,2.62,0,0,1-1.6-.57h0a2.69,2.69,0,0,1-.32-.27l-.06-.07,0,0h0A53.18,53.18,0,0,0,159.2,48.34a2.65,2.65,0,0,1-1.27-2.27V41.71a58.39,58.39,0,0,0-26.84-6.52h-6.78V0H119V37.85A2.68,2.68,0,0,0,121.64,40.52Z"/><path class="cls-2" d="M171.37,51c.73.69,1.45,1.4,2.15,2.13C172.82,52.35,172.1,51.64,171.37,51Z"/><path class="cls-2" d="M175.77,59a2.67,2.67,0,0,1-3.61.39,2.62,2.62,0,0,0,1.6.57,2.68,2.68,0,0,0,1.93-.86Z"/><path class="cls-2" d="M171.77,59.07l.06.07a2.69,2.69,0,0,0,.32.27,2.31,2.31,0,0,1-.4-.37Z"/><path class="cls-2" d="M178.91,48.53l-.42.35Z"/><path class="cls-2" d="M176.33,50.78l-.19.17Z"/><path class="cls-2" d="M188.29,0h0c.07.25.14.49.19.74C188.43.49,188.36.25,188.29,0Z"/><path class="cls-2" d="M166.27,46.7l-.49-.35Z"/><path class="cls-2" d="M169,48.88c-.14-.12-.27-.24-.42-.35C168.75,48.64,168.88,48.76,169,48.88Z"/><path class="cls-2" d="M171.37,51l-.19-.17Z"/><path class="cls-2" d="M181.73,46.35l-.49.35Z"/><path class="cls-2" d="M173.76,53.31c-.08-.08-.17-.15-.24-.23l.24.25.24-.26Z"/><path class="cls-2" d="M188.48.74c0-.25-.12-.49-.19-.74h-5.52a36.35,36.35,0,0,1,1.48,10.25V44.6c-.86.56-1.7,1.15-2.52,1.75l-.49.35c-.79.59-1.57,1.2-2.33,1.83l-.42.35c-.74.62-1.46,1.25-2.16,1.9l-.19.17c-.73.69-1.44,1.4-2.14,2.12l-.24.26c.68.72,1.36,1.46,2,2.22a2.67,2.67,0,0,1,0,3.47h0a53.38,53.38,0,0,1,12.53-10.69,2.65,2.65,0,0,0,1.27-2.27V10.25A41.35,41.35,0,0,0,188.48.74Z"/><path class="cls-2" d="M172.16,59.42h0Z"/><path class="cls-2" d="M171.73,55.55c.66-.76,1.34-1.5,2-2.22l-.24-.25c-.7-.73-1.42-1.44-2.15-2.13l-.19-.17c-.7-.65-1.42-1.28-2.16-1.9-.14-.12-.27-.24-.42-.35-.76-.63-1.54-1.24-2.33-1.83l-.49-.35c-.82-.6-1.66-1.19-2.51-1.75V10.25A36.34,36.34,0,0,1,164.74,0h-5.52a41.85,41.85,0,0,0-1.29,10.25V46.07a2.65,2.65,0,0,0,1.27,2.27A53.18,53.18,0,0,1,171.73,59h0A2.67,2.67,0,0,1,171.73,55.55Z"/><path class="cls-2" d="M173.76,60a2.65,2.65,0,0,1-1.6-.53h0a2.31,2.31,0,0,1-.4-.37,2.67,2.67,0,0,1,0-3.49c.66-.76,1.34-1.5,2-2.22.68.72,1.36,1.46,2,2.22a2.67,2.67,0,0,1,0,3.47h0A2.67,2.67,0,0,1,173.76,60Zm0-2.66Z"/><path class="cls-2" d="M174.87,335.81c-.36-.4-.73-.8-1.11-1.19h0C174.13,335,174.51,335.41,174.87,335.81Z"/><path class="cls-2" d="M187.62,347.63c-.13-.4-.26-.8-.4-1.2C187.36,346.83,187.49,347.23,187.62,347.63Z"/><path class="cls-2" d="M183.44,338.44a42.25,42.25,0,0,0-4.6-6.19h0A42.25,42.25,0,0,1,183.44,338.44Z"/><path class="cls-2" d="M225.87,318.2H200a41.89,41.89,0,0,0-26.21,9.24c.6.49,1.19,1,1.77,1.5h0a41.35,41.35,0,0,1,3.31,3.31c-.35-.4-.72-.79-1.09-1.17A36.59,36.59,0,0,1,200,323.54H223.2V350h5.34V320.87A2.68,2.68,0,0,0,225.87,318.2Z"/><path class="cls-2" d="M173.76,334.63h0c-.38.39-.75.79-1.11,1.19C173,335.41,173.38,335,173.76,334.63Z"/><path class="cls-2" d="M124.31,323.54h23.23a36.59,36.59,0,0,1,22.22,7.54c-.37.38-.74.77-1.09,1.17a39.76,39.76,0,0,1,3.31-3.31h0c.58-.52,1.17-1,1.78-1.5a41.94,41.94,0,0,0-26.22-9.24h-25.9a2.68,2.68,0,0,0-2.67,2.67V350h5.34Z"/><polygon class="cls-2" points="173.76 334.62 173.76 334.62 173.75 334.62 173.76 334.63 173.76 334.62"/><path class="cls-2" d="M172,328.94a2.65,2.65,0,0,1,3.55,0c-.58-.52-1.17-1-1.77-1.5-.61.49-1.2,1-1.78,1.5Z"/><path class="cls-2" d="M187.62,347.63c.25.78.47,1.57.67,2.37h0C188.09,349.2,187.87,348.41,187.62,347.63Z"/><path class="cls-2" d="M187.22,346.43a41.38,41.38,0,0,0-3.78-8A41.38,41.38,0,0,1,187.22,346.43Z"/><path class="cls-2" d="M176.42,330.93a2.62,2.62,0,0,1-.89,2c-.61.55-1.19,1.13-1.77,1.71.38.39.75.79,1.11,1.19a36.76,36.76,0,0,1,7.9,14.19h5.52c-.2-.8-.42-1.59-.67-2.37-.13-.4-.26-.8-.4-1.2a41.38,41.38,0,0,0-3.78-8,42.25,42.25,0,0,0-4.6-6.19h0a41.35,41.35,0,0,0-3.31-3.31h0A2.66,2.66,0,0,1,176.42,330.93Z"/><path class="cls-2" d="M164.74,350a36.76,36.76,0,0,1,7.9-14.19c.36-.4.73-.8,1.11-1.19-.58-.58-1.16-1.16-1.77-1.7a2.67,2.67,0,0,1,0-4h0a39.76,39.76,0,0,0-3.31,3.31A42,42,0,0,0,159.22,350Z"/><path class="cls-2" d="M172,328.94a2.67,2.67,0,0,0,0,4c.61.54,1.19,1.12,1.77,1.7h0c.58-.58,1.16-1.16,1.77-1.71a2.62,2.62,0,0,0,.89-2,2.66,2.66,0,0,0-.89-2h0A2.65,2.65,0,0,0,172,328.94Z"/><path class="cls-2" d="M131,302.83a2.67,2.67,0,1,0-4.55,2.78l4,6.55a2.67,2.67,0,1,0,4.55-2.78Z"/><path class="cls-2" d="M152.91,296.37a2.66,2.66,0,1,0-5.06,1.67l4,12.14a2.66,2.66,0,1,0,5.06-1.67Z"/><path class="cls-2" d="M198.55,294.67a2.67,2.67,0,0,0-3.37,1.7l-4,12.14a2.66,2.66,0,1,0,5.06,1.67l4-12.14A2.67,2.67,0,0,0,198.55,294.67Z"/><path class="cls-2" d="M220.77,301.94a2.68,2.68,0,0,0-3.67.89l-4,6.55a2.67,2.67,0,1,0,4.55,2.78l4-6.55A2.67,2.67,0,0,0,220.77,301.94Z"/><path class="cls-2" d="M174,290a2.66,2.66,0,0,0-2.66,2.67v17.54a2.67,2.67,0,1,0,5.33,0V292.67A2.66,2.66,0,0,0,174,290Z"/><path class="cls-2" d="M7.24,221.7c-.79.59-1.57,1.2-2.33,1.83C5.67,222.9,6.45,222.29,7.24,221.7Z"/><path class="cls-2" d="M10.25,219.6c-.86.56-1.7,1.15-2.52,1.75C8.55,220.75,9.39,220.16,10.25,219.6Z"/><path class="cls-2" d="M42.42,215.52h9.45a2.68,2.68,0,0,0,2.67-2.67v-67a2.68,2.68,0,0,0-2.67-2.67H26A41.86,41.86,0,0,0,.69,151.72v1.5l.84.72h0a41.35,41.35,0,0,1,3.31,3.31c-.35-.4-.72-.79-1.09-1.17A36.59,36.59,0,0,1,26,148.54H49.2v61.65H42.42a58.39,58.39,0,0,0-26.84,6.52v4.36a2.65,2.65,0,0,1-1.27,2.27A53.38,53.38,0,0,0,1.78,234h0l-.08.1a2.6,2.6,0,0,1-1,.67v.12a2.81,2.81,0,0,0,1.39-.85A53.11,53.11,0,0,1,42.42,215.52Z"/><path class="cls-2" d="M9.44,163.44a42.25,42.25,0,0,0-4.6-6.19h0A42.25,42.25,0,0,1,9.44,163.44Z"/><path class="cls-2" d="M4.49,223.88c-.74.62-1.46,1.25-2.16,1.9C3,225.13,3.75,224.5,4.49,223.88Z"/><path class="cls-2" d="M13.62,172.63c-.13-.4-.26-.8-.4-1.2C13.36,171.83,13.49,172.23,13.62,172.63Z"/><path class="cls-2" d="M.69,227.39c.48-.48,1-1,1.45-1.44-.49.46-1,.93-1.45,1.41Z"/><path class="cls-2" d="M.87,160.81l-.18-.2h0Z"/><path class="cls-2" d="M1.53,153.94l-.84-.72v.21A2.53,2.53,0,0,1,1.53,153.94Z"/><path class="cls-2" d="M.69,234.8a2.6,2.6,0,0,0,1-.67l.08-.1a2.68,2.68,0,0,1-1.08.74Z"/><path class="cls-2" d="M13.22,171.43a41.38,41.38,0,0,0-3.78-8A41.38,41.38,0,0,1,13.22,171.43Z"/><path class="cls-2" d="M2.33,225.78l-.19.17Z"/><path class="cls-2" d="M4.91,223.53l-.42.35Z"/><path class="cls-2" d="M14.48,175.74c-.24-1.05-.54-2.08-.86-3.11C13.94,173.66,14.24,174.69,14.48,175.74Z"/><path class="cls-2" d="M7.73,221.35l-.49.35Z"/><path class="cls-2" d="M2.42,155.93a2.62,2.62,0,0,1-.89,2l-.84.8v1.9l.18.2a36.58,36.58,0,0,1,9.38,24.44V219.6c-.86.56-1.7,1.15-2.52,1.75l-.49.35c-.79.59-1.57,1.2-2.33,1.83l-.42.35c-.74.62-1.46,1.25-2.16,1.9l-.19.17c-.49.47-1,1-1.45,1.44v1.94c.37.4.73.8,1.09,1.22a2.67,2.67,0,0,1,0,3.47h0a53.38,53.38,0,0,1,12.53-10.69,2.65,2.65,0,0,0,1.27-2.27V185.25a41.35,41.35,0,0,0-1.1-9.51c-.24-1.05-.54-2.08-.86-3.11-.13-.4-.26-.8-.4-1.2a41.38,41.38,0,0,0-3.78-8,42.25,42.25,0,0,0-4.6-6.19h0a41.35,41.35,0,0,0-3.31-3.31h0A2.66,2.66,0,0,1,2.42,155.93Z"/><path class="cls-2" d="M.69,158.71l.84-.8a2.62,2.62,0,0,0,.89-2,2.66,2.66,0,0,0-.89-2h0a2.53,2.53,0,0,0-.84-.51Z"/><path class="cls-2" d="M1.78,230.55c-.36-.42-.72-.82-1.09-1.22v5.44A2.68,2.68,0,0,0,1.77,234h0A2.67,2.67,0,0,0,1.78,230.55Z"/><path class="cls-2" d="M24.55,119.67a2.67,2.67,0,0,0-3.37,1.7l-4,12.14a2.66,2.66,0,1,0,5.06,1.67l4-12.14A2.67,2.67,0,0,0,24.55,119.67Z"/><path class="cls-2" d="M46.77,126.94a2.68,2.68,0,0,0-3.67.89l-4,6.55a2.67,2.67,0,1,0,4.55,2.78l4-6.55A2.67,2.67,0,0,0,46.77,126.94Z"/><path class="cls-2" d="M2.71,135.21V117.67a2.66,2.66,0,0,0-2-2.58v22.7A2.66,2.66,0,0,0,2.71,135.21Z"/><path class="cls-2" d="M42.42,40.52h9.45a2.68,2.68,0,0,0,2.67-2.67V0H49.2V35.19H42.42a58.39,58.39,0,0,0-26.84,6.52v4.36a2.65,2.65,0,0,1-1.27,2.27A53.38,53.38,0,0,0,1.78,59h0l-.08.1a2.6,2.6,0,0,1-1,.67v.12a2.81,2.81,0,0,0,1.39-.85A53.11,53.11,0,0,1,42.42,40.52Z"/><path class="cls-2" d="M4.49,48.88c-.74.62-1.46,1.25-2.16,1.9C3,50.13,3.75,49.5,4.49,48.88Z"/><path class="cls-2" d="M7.24,46.7c-.79.59-1.57,1.2-2.33,1.83C5.67,47.9,6.45,47.29,7.24,46.7Z"/><path class="cls-2" d="M.69,52.39c.48-.48,1-1,1.45-1.44-.49.46-1,.93-1.45,1.41Z"/><path class="cls-2" d="M10.25,44.6c-.86.56-1.7,1.15-2.52,1.75C8.55,45.75,9.39,45.16,10.25,44.6Z"/><path class="cls-2" d="M.69,59.8a2.6,2.6,0,0,0,1-.67l.08-.1a2.68,2.68,0,0,1-1.08.74Z"/><path class="cls-2" d="M2.33,50.78,2.14,51Z"/><path class="cls-2" d="M4.91,48.53l-.42.35Z"/><path class="cls-2" d="M14.48.74c-.05-.25-.12-.49-.19-.74h0C14.36.25,14.43.49,14.48.74Z"/><path class="cls-2" d="M7.73,46.35l-.49.35Z"/><path class="cls-2" d="M14.48.74c-.05-.25-.12-.49-.19-.74H8.77a36.35,36.35,0,0,1,1.48,10.25V44.6c-.86.56-1.7,1.15-2.52,1.75l-.49.35c-.79.59-1.57,1.2-2.33,1.83l-.42.35c-.74.62-1.46,1.25-2.16,1.9L2.14,51c-.49.47-1,1-1.45,1.44v1.94c.37.4.73.8,1.09,1.22a2.67,2.67,0,0,1,0,3.47h0A53.38,53.38,0,0,1,14.31,48.34a2.65,2.65,0,0,0,1.27-2.27V10.25A41.35,41.35,0,0,0,14.48.74Z"/><path class="cls-2" d="M1.78,55.55c-.36-.42-.72-.82-1.09-1.22v5.44A2.68,2.68,0,0,0,1.77,59h0A2.67,2.67,0,0,0,1.78,55.55Z"/><path class="cls-2" d="M13.62,347.63c-.13-.4-.26-.8-.4-1.2C13.36,346.83,13.49,347.23,13.62,347.63Z"/><path class="cls-2" d="M9.44,338.44a42.25,42.25,0,0,0-4.6-6.19h0A42.25,42.25,0,0,1,9.44,338.44Z"/><path class="cls-2" d="M.87,335.81l-.18-.2h0Z"/><path class="cls-2" d="M51.87,318.2H26A41.86,41.86,0,0,0,.69,326.72v1.5l.84.72h0a41.35,41.35,0,0,1,3.31,3.31c-.35-.4-.72-.79-1.09-1.17A36.59,36.59,0,0,1,26,323.54H49.2V350h5.34V320.87A2.68,2.68,0,0,0,51.87,318.2Z"/><path class="cls-2" d="M1.53,328.94l-.84-.72v.21A2.53,2.53,0,0,1,1.53,328.94Z"/><path class="cls-2" d="M13.62,347.63c.25.78.47,1.57.67,2.37h0C14.09,349.2,13.87,348.41,13.62,347.63Z"/><path class="cls-2" d="M13.22,346.43a41.38,41.38,0,0,0-3.78-8A41.38,41.38,0,0,1,13.22,346.43Z"/><path class="cls-2" d="M2.42,330.93a2.62,2.62,0,0,1-.89,2l-.84.8v1.9l.18.2A36.76,36.76,0,0,1,8.77,350h5.52c-.2-.8-.42-1.59-.67-2.37-.13-.4-.26-.8-.4-1.2a41.38,41.38,0,0,0-3.78-8,42.25,42.25,0,0,0-4.6-6.19h0a41.35,41.35,0,0,0-3.31-3.31h0A2.66,2.66,0,0,1,2.42,330.93Z"/><path class="cls-2" d="M.69,333.71l.84-.8a2.62,2.62,0,0,0,.89-2,2.66,2.66,0,0,0-.89-2h0a2.53,2.53,0,0,0-.84-.51Z"/><path class="cls-2" d="M24.55,294.67a2.67,2.67,0,0,0-3.37,1.7l-4,12.14a2.66,2.66,0,1,0,5.06,1.67l4-12.14A2.67,2.67,0,0,0,24.55,294.67Z"/><path class="cls-2" d="M46.77,301.94a2.68,2.68,0,0,0-3.67.89l-4,6.55a2.67,2.67,0,1,0,4.55,2.78l4-6.55A2.67,2.67,0,0,0,46.77,301.94Z"/><path class="cls-2" d="M2.71,310.21V292.67a2.66,2.66,0,0,0-2-2.58v22.7A2.66,2.66,0,0,0,2.71,310.21Z"/><path class="cls-2" d="M350,228.07c.23-.24.47-.46.7-.69v0Z"/><path class="cls-2" d="M349.76,159.63c.32.33.64.66.94,1h0c-.3-.34-.62-.68-.94-1Z"/><path class="cls-2" d="M350.7,153.23v-1.52l-.94.73Z"/><path class="cls-2" d="M349.76,235h.29a2.76,2.76,0,0,0,.65-.09v-.11A2.54,2.54,0,0,1,349.76,235Z"/><path class="cls-2" d="M347.37,226c.73.69,1.45,1.4,2.15,2.13C348.82,227.35,348.1,226.64,347.37,226Z"/><path class="cls-2" d="M349.75,159.62c-.38.39-.75.79-1.11,1.19.36-.4.74-.79,1.12-1.18Z"/><path class="cls-2" d="M348.15,234.41a2.69,2.69,0,0,1-.32-.27l-.06-.07,0,0h0a53.18,53.18,0,0,0-12.53-10.69,2.65,2.65,0,0,1-1.27-2.27v-4.36a58.39,58.39,0,0,0-26.84-6.52h-6.78V148.54h23.23a36.59,36.59,0,0,1,22.22,7.54c-.37.38-.74.77-1.09,1.17a39.76,39.76,0,0,1,3.31-3.31h0c.58-.52,1.17-1,1.78-1.5a41.94,41.94,0,0,0-26.22-9.24h-25.9a2.68,2.68,0,0,0-2.67,2.67v67a2.68,2.68,0,0,0,2.67,2.67h9.45a53.11,53.11,0,0,1,40.34,18.55,2.68,2.68,0,0,0,2,.93h.3a2.62,2.62,0,0,1-1.6-.57Z"/><path class="cls-2" d="M341.78,221.35c-.82-.6-1.66-1.19-2.51-1.75C340.12,220.16,341,220.75,341.78,221.35Z"/><path class="cls-2" d="M344.6,223.53c-.76-.63-1.54-1.24-2.33-1.83C343.06,222.29,343.84,222.9,344.6,223.53Z"/><path class="cls-2" d="M347.18,225.78c-.7-.65-1.42-1.28-2.16-1.9C345.76,224.5,346.48,225.13,347.18,225.78Z"/><path class="cls-2" d="M350.7,234.76a2.54,2.54,0,0,1-.94.19,2.65,2.65,0,0,1-1.6-.53,2.62,2.62,0,0,0,1.6.57,2.54,2.54,0,0,0,.94-.19Z"/><path class="cls-2" d="M348,153.94a2.65,2.65,0,0,1,2.72-.5v-.21l-.94-.79c-.61.49-1.2,1-1.78,1.5Z"/><path class="cls-2" d="M347.77,234.07l.06.07a2.69,2.69,0,0,0,.32.27,2.31,2.31,0,0,1-.4-.37Z"/><polygon class="cls-2" points="349.76 159.62 349.76 159.62 349.75 159.62 349.76 159.63 349.76 159.62"/><path class="cls-2" d="M342.27,221.7l-.49-.35Z"/><path class="cls-2" d="M345,223.88c-.14-.12-.27-.24-.42-.35C344.75,223.64,344.88,223.76,345,223.88Z"/><path class="cls-2" d="M349.76,228.31c-.08-.08-.17-.15-.24-.23l.24.25.24-.26C349.92,228.16,349.83,228.23,349.76,228.31Z"/><path class="cls-2" d="M347.37,226l-.19-.17Z"/><path class="cls-2" d="M349.76,159.62c.32.33.64.67.94,1V158.7C350.38,159,350.07,159.31,349.76,159.62Z"/><path class="cls-2" d="M349.76,228.33l.94,1v-2c-.23.23-.47.45-.7.69Z"/><path class="cls-2" d="M348.16,234.42h0Z"/><path class="cls-2" d="M347.73,230.55c.66-.76,1.34-1.5,2-2.22l-.24-.25c-.7-.73-1.42-1.44-2.15-2.13l-.19-.17c-.7-.65-1.42-1.28-2.16-1.9-.14-.12-.27-.24-.42-.35-.76-.63-1.54-1.24-2.33-1.83l-.49-.35c-.82-.6-1.66-1.19-2.51-1.75V185.25a36.62,36.62,0,0,1,9.37-24.44c.36-.4.73-.8,1.11-1.19-.58-.58-1.16-1.16-1.77-1.7a2.67,2.67,0,0,1,0-4h0a39.76,39.76,0,0,0-3.31,3.31,41.93,41.93,0,0,0-10.74,28v35.82a2.65,2.65,0,0,0,1.27,2.27A53.18,53.18,0,0,1,347.73,234h0A2.67,2.67,0,0,1,347.73,230.55Z"/><path class="cls-2" d="M348,157.92c.61.54,1.19,1.12,1.77,1.7h0c.31-.31.62-.62.94-.92v-5.26a2.67,2.67,0,0,0-2.72,4.48Z"/><path class="cls-2" d="M350.7,229.34v5.42a2.54,2.54,0,0,1-.94.19,2.65,2.65,0,0,1-1.6-.53h0a2.31,2.31,0,0,1-.4-.37,2.67,2.67,0,0,1,0-3.49c.66-.76,1.34-1.5,2-2.22Zm-.94,2.95Z"/><path class="cls-2" d="M307,127.83a2.67,2.67,0,1,0-4.55,2.78l4,6.55a2.67,2.67,0,1,0,4.55-2.78Z"/><path class="cls-2" d="M328.91,121.37a2.66,2.66,0,1,0-5.06,1.67l4,12.14a2.66,2.66,0,1,0,5.06-1.67Z"/><path class="cls-2" d="M347.38,117.67v17.54a2.67,2.67,0,0,0,2.66,2.67,2.39,2.39,0,0,0,.66-.1V115.09A2.84,2.84,0,0,0,350,115,2.66,2.66,0,0,0,347.38,117.67Z"/><path class="cls-2" d="M350.7,328.23v-1.52l-.94.73Z"/><path class="cls-2" d="M349.76,334.63c.32.33.64.66.94,1h0c-.3-.34-.62-.68-.94-1Z"/><path class="cls-2" d="M349.75,334.62c-.38.39-.75.79-1.11,1.19.36-.4.74-.79,1.12-1.18Z"/><path class="cls-2" d="M300.31,323.54h23.23a36.59,36.59,0,0,1,22.22,7.54c-.37.38-.74.77-1.09,1.17a39.76,39.76,0,0,1,3.31-3.31h0c.58-.52,1.17-1,1.78-1.5a41.94,41.94,0,0,0-26.22-9.24h-25.9a2.68,2.68,0,0,0-2.67,2.67V350h5.34Z"/><path class="cls-2" d="M348,328.94a2.65,2.65,0,0,1,2.72-.5v-.21l-.94-.79c-.61.49-1.2,1-1.78,1.5Z"/><polygon class="cls-2" points="349.76 334.62 349.76 334.62 349.75 334.62 349.76 334.63 349.76 334.62"/><path class="cls-2" d="M349.76,334.62c.32.33.64.67.94,1V333.7C350.38,334,350.07,334.31,349.76,334.62Z"/><path class="cls-2" d="M340.74,350a36.76,36.76,0,0,1,7.9-14.19c.36-.4.73-.8,1.11-1.19-.58-.58-1.16-1.16-1.77-1.7a2.67,2.67,0,0,1,0-4h0a39.76,39.76,0,0,0-3.31,3.31A42,42,0,0,0,335.22,350Z"/><path class="cls-2" d="M348,332.92c.61.54,1.19,1.12,1.77,1.7h0c.31-.31.62-.62.94-.92v-5.26a2.67,2.67,0,0,0-2.72,4.48Z"/><path class="cls-2" d="M306.44,312.16a2.67,2.67,0,1,0,4.55-2.78l-4-6.55a2.67,2.67,0,1,0-4.55,2.78Z"/><path class="cls-2" d="M327.85,310.18a2.66,2.66,0,1,0,5.06-1.67l-4-12.14a2.66,2.66,0,1,0-5.06,1.67Z"/><path class="cls-2" d="M347.38,292.67v17.54a2.67,2.67,0,0,0,2.66,2.67,2.39,2.39,0,0,0,.66-.1V290.09A2.84,2.84,0,0,0,350,290,2.66,2.66,0,0,0,347.38,292.67Z"/><path class="cls-2" d="M350,53.07c.23-.24.47-.46.7-.69v0Z"/><path class="cls-2" d="M349.76,60h.29a2.76,2.76,0,0,0,.65-.09V59.8A2.54,2.54,0,0,1,349.76,60Z"/><path class="cls-2" d="M297.64,40.52h9.45a53.11,53.11,0,0,1,40.34,18.55,2.68,2.68,0,0,0,2,.93h.3a2.62,2.62,0,0,1-1.6-.57h0a2.69,2.69,0,0,1-.32-.27l-.06-.07,0,0h0A53.18,53.18,0,0,0,335.2,48.34a2.65,2.65,0,0,1-1.27-2.27V41.71a58.39,58.39,0,0,0-26.84-6.52h-6.78V0H295V37.85A2.68,2.68,0,0,0,297.64,40.52Z"/><path class="cls-2" d="M349.76,60a2.65,2.65,0,0,1-1.6-.53,2.62,2.62,0,0,0,1.6.57,2.54,2.54,0,0,0,.94-.19v0A2.54,2.54,0,0,1,349.76,60Z"/><path class="cls-2" d="M347.77,59.07l.06.07a2.69,2.69,0,0,0,.32.27,2.31,2.31,0,0,1-.4-.37Z"/><path class="cls-2" d="M349.76,53.31c-.08-.08-.17-.15-.24-.23l.24.25.24-.26C349.92,53.16,349.83,53.23,349.76,53.31Z"/><path class="cls-2" d="M349.76,53.33l.94,1v-2c-.23.23-.47.45-.7.69Z"/><path class="cls-2" d="M347.73,55.55c.66-.76,1.34-1.5,2-2.22l-.24-.25c-.7-.73-1.42-1.44-2.15-2.13l-.19-.17c-.7-.65-1.42-1.28-2.16-1.9-.14-.12-.27-.24-.42-.35-.76-.63-1.54-1.24-2.33-1.83l-.49-.35c-.82-.6-1.66-1.19-2.51-1.75V10.25A36.34,36.34,0,0,1,340.74,0h-5.52a41.85,41.85,0,0,0-1.29,10.25V46.07a2.65,2.65,0,0,0,1.27,2.27A53.18,53.18,0,0,1,347.73,59h0A2.67,2.67,0,0,1,347.73,55.55Z"/><path class="cls-2" d="M349.76,60a2.65,2.65,0,0,1-1.6-.53h0a2.31,2.31,0,0,1-.4-.37,2.67,2.67,0,0,1,0-3.49c.66-.76,1.34-1.5,2-2.22l.94,1v5.42A2.54,2.54,0,0,1,349.76,60Zm0-2.66Z"/></pattern></defs><title>Background</title><rect class="cls-3" width="1920" height="1591"/></svg>