<svg id="Layer_1" data-name="Layer 1" xmlns="http://www.w3.org/2000/svg" viewBox="0 0 216 216"><defs><style>.cls-1{fill:#4d4d4d;}</style></defs><title>Brainstorm</title><path class="cls-1" d="M99.18,189.66a2.64,2.64,0,0,1-.55-.06,2.51,2.51,0,0,1-1.95-2.46l.3-33.75-7.76-.45A2.5,2.5,0,0,1,86.9,150L93,113.28a2.51,2.51,0,0,1,2.2-2.07L121,108.45a2.5,2.5,0,0,1,2.62,3.33L115,135.69l6.8.4a2.49,2.49,0,0,1,2.12,3.54l-22.48,48.58A2.49,2.49,0,0,1,99.18,189.66Zm-6.89-41.55,7.36.43a2.5,2.5,0,0,1,2.35,2.52l-.22,24.52,16.07-34.72-6.47-.37a2.51,2.51,0,0,1-2.21-3.34l8.35-23.31L97.64,116Z"/><path class="cls-1" d="M147.26,137.19a19.84,19.84,0,0,1-12.57-4.48,25.16,25.16,0,0,0-18.94-5.06l-51.39,6.43a2.55,2.55,0,0,1-.39,0,20,20,0,0,1-17.88-12.47A26.19,26.19,0,0,1,19.6,98.72,26.45,26.45,0,0,1,38.25,70.15,21.32,21.32,0,0,1,56.59,51.44a22.55,22.55,0,0,1,2.6-.17,34.21,34.21,0,0,1,50.16-10.72,28,28,0,0,1,47,6.93,24.54,24.54,0,0,1,21.08,26.8,24.59,24.59,0,0,1-1.19,47.86,24.26,24.26,0,0,1-9.49.11A20,20,0,0,1,149.88,137,21.05,21.05,0,0,1,147.26,137.19Zm-28.1-14.75a29.66,29.66,0,0,1,18.68,6.38,14.88,14.88,0,0,0,11.4,3.25,15.05,15.05,0,0,0,13-13.17,2.49,2.49,0,0,1,3.2-2.09,19.46,19.46,0,0,0,9.7.43,19.59,19.59,0,0,0-1-38.53,2.51,2.51,0,0,1-1.67-1,2.54,2.54,0,0,1-.4-1.93,19.44,19.44,0,0,0,.25-6.4,19.65,19.65,0,0,0-18-17,2.49,2.49,0,0,1-2.16-1.63,23,23,0,0,0-40.38-5.15,2.48,2.48,0,0,1-1.74,1,2.45,2.45,0,0,1-1.94-.59,29.24,29.24,0,0,0-45.25,9,2.49,2.49,0,0,1-2.41,1.37,16,16,0,0,0-3.25.09A16.28,16.28,0,0,0,43.12,72.16a2.48,2.48,0,0,1-2,2.4,21.43,21.43,0,0,0-16.6,23.52A21.2,21.2,0,0,0,47.6,116.54a2.5,2.5,0,0,1,2.62,1.79A15,15,0,0,0,64,129.09l51.17-6.4A32.34,32.34,0,0,1,119.16,122.44Z"/><path class="cls-1" d="M67.16,83.13a2.49,2.49,0,0,1-1.75-.72,28.19,28.19,0,0,0-24.34-7.63,2.5,2.5,0,0,1-.83-4.94,33.24,33.24,0,0,1,28.67,9,2.51,2.51,0,0,1,0,3.54A2.46,2.46,0,0,1,67.16,83.13Z"/><path class="cls-1" d="M106.7,57.37h-.2a2.51,2.51,0,0,1-2.3-2.69,29.55,29.55,0,0,1,4.09-13.26A2.5,2.5,0,0,1,112.55,44a24.59,24.59,0,0,0-3.36,11A2.5,2.5,0,0,1,106.7,57.37Z"/><path class="cls-1" d="M146.71,74a2.5,2.5,0,0,1-1.6-4.42,19.71,19.71,0,0,0,6.66-19.15,2.5,2.5,0,1,1,4.89-1,24.72,24.72,0,0,1-8.34,24A2.51,2.51,0,0,1,146.71,74Z"/><path class="cls-1" d="M103.51,87.23a2.5,2.5,0,0,1-.19-5,19.74,19.74,0,0,0,18.13-21.19,2.5,2.5,0,0,1,5-.39,24.74,24.74,0,0,1-22.73,26.56Z"/><path class="cls-1" d="M134.54,92.25a19.38,19.38,0,0,1-18.43-13.42,2.5,2.5,0,1,1,4.76-1.53,14.35,14.35,0,0,0,18.06,9.26,2.5,2.5,0,0,1,1.53,4.76A19.35,19.35,0,0,1,134.54,92.25Z"/><path class="cls-1" d="M82.66,111.62a2.5,2.5,0,0,1-.2-5A19.74,19.74,0,0,0,100.6,85.44a2.5,2.5,0,0,1,5-.39,24.77,24.77,0,0,1-22.74,26.57Z"/><path class="cls-1" d="M59.12,115a16.06,16.06,0,0,1-16-14.83,2.5,2.5,0,1,1,5-.39A11.08,11.08,0,0,0,60,110a2.5,2.5,0,1,1,.38,5C60,115,59.54,115,59.12,115Z"/><path class="cls-1" d="M166.88,79.94a2.5,2.5,0,0,1-.95-4.81,20.11,20.11,0,0,1,8.76-1.49,2.5,2.5,0,1,1-.27,5,15.07,15.07,0,0,0-6.59,1.13A2.62,2.62,0,0,1,166.88,79.94Z"/><path class="cls-1" d="M165.79,121.86a2,2,0,0,1-.48,0A20.3,20.3,0,0,1,149,102.09a2.49,2.49,0,0,1,2.49-2.51h0a2.49,2.49,0,0,1,2.5,2.48,15.3,15.3,0,0,0,12.28,14.85,2.5,2.5,0,0,1-.48,5Z"/><path class="cls-1" d="M136.32,133.15a2.49,2.49,0,0,1-1.75-.72,18.3,18.3,0,0,1-5.49-13,2.5,2.5,0,0,1,2.48-2.52h0a2.5,2.5,0,0,1,2.5,2.48,13.33,13.33,0,0,0,4,9.49,2.5,2.5,0,0,1-1.76,4.28Z"/><path class="cls-1" d="M60.79,77.39a2.5,2.5,0,0,1,0-5A8.09,8.09,0,0,0,66.46,70a8,8,0,0,0,2.3-5.74,2.52,2.52,0,0,1,2.48-2.53h0a2.49,2.49,0,0,1,2.5,2.47,13.08,13.08,0,0,1-13,13.23Z"/><path class="cls-1" d="M48.41,123a2.47,2.47,0,0,1-1-.22,2.51,2.51,0,0,1-1.26-3.31,16.07,16.07,0,0,1,13.35-9.45L82,106.78a2.5,2.5,0,0,1,.72,5L60.12,115,60,115a11.07,11.07,0,0,0-9.26,6.52A2.48,2.48,0,0,1,48.41,123Z"/><path class="cls-1" d="M86.33,178.49a2.5,2.5,0,0,1-2.5-2.41L83.44,165l-2.36,1a2.53,2.53,0,0,1-2.24-.18,2.5,2.5,0,0,1-1.19-1.89l-1-9.71a2.5,2.5,0,0,1,5-.5l.64,6.39L84.87,159a2.49,2.49,0,0,1,3.44,2.22l.52,14.72a2.49,2.49,0,0,1-2.41,2.58Z"/><path class="cls-1" d="M120.23,176.31a2.45,2.45,0,0,1-1.34-.39,2.5,2.5,0,0,1-.77-3.45l6-9.4-2.49-.54a2.51,2.51,0,0,1-1.66-3.65l4.7-8.56a2.5,2.5,0,0,1,4.38,2.41L126,158.36l2.73.59a2.51,2.51,0,0,1,1.57,3.79l-7.91,12.42A2.47,2.47,0,0,1,120.23,176.31Z"/></svg>