<svg id="Layer_1" data-name="Layer 1" xmlns="http://www.w3.org/2000/svg" viewBox="0 0 216 216"><defs><style>.cls-1{fill:#4d4d4d;}</style></defs><title>Church</title><path class="cls-1" d="M177,179H119a2,2,0,0,1-2-2V64.38a2,2,0,0,1,.72-1.53l29-24.38a2,2,0,0,1,2.58,0l29,24.38a2,2,0,0,1,.72,1.53V177A2,2,0,0,1,177,179ZM121,175H175V65.31l-27-22.7-27,22.7Z"/><path class="cls-1" d="M158,80.19H138a2,2,0,0,1,0-4h20a2,2,0,0,1,0,4Z"/><path class="cls-1" d="M148,101.44a2,2,0,0,1-2-2V67.56a2,2,0,0,1,4,0V99.44A2,2,0,0,1,148,101.44Z"/><path class="cls-1" d="M119,127H47a2,2,0,0,1-1.6-3.2l17.19-23a2,2,0,0,1,1.6-.8H119a2,2,0,0,1,2,2v23A2,2,0,0,1,119,127Zm-68-4h66V104H65.2Z"/><path class="cls-1" d="M119,179H47a2,2,0,0,1-2-2V125a2,2,0,0,1,2-2h72a2,2,0,0,1,2,2v52A2,2,0,0,1,119,179Zm-70-4h68V127H49Z"/><path class="cls-1" d="M104.72,91a1.81,1.81,0,0,1-.52-.07L90.43,87.24A29.64,29.64,0,0,1,78,90a30,30,0,1,1,25.34-14l3.34,12.48A2,2,0,0,1,104.72,91ZM90.24,83.12a1.86,1.86,0,0,1,.52.07l11.13,3-2.68-10a2,2,0,0,1,.28-1.64,26,26,0,1,0-10.13,8.79A2.09,2.09,0,0,1,90.24,83.12Z"/><path class="cls-1" d="M77.46,67.22a1.27,1.27,0,0,1-1.29-1.29c0-5.25,2.46-7.07,4.4-8.52,1.77-1.29,3.15-2.3,3.15-5.78,0-2.38-1.78-4.92-5.66-4.92a5.42,5.42,0,0,0-5.65,5.41,1.3,1.3,0,0,1-2.59,0,8.08,8.08,0,0,1,2-5.29,7.77,7.77,0,0,1,6.22-2.71c5.42,0,8.24,3.76,8.24,7.51,0,4.77-2.22,6.43-4.2,7.88S78.75,62,78.75,65.93A1.3,1.3,0,0,1,77.46,67.22Zm0,4.51a1.64,1.64,0,1,1,0,3.27,1.64,1.64,0,1,1,0-3.27Z"/><path class="cls-1" d="M77.46,76a2.64,2.64,0,1,1,2.73-2.66A2.67,2.67,0,0,1,77.46,76Zm0-3.27a.67.67,0,0,0-.74.61.74.74,0,0,0,1.47,0A.66.66,0,0,0,77.46,72.73Zm0-4.51a2.26,2.26,0,0,1-2.29-2.29c0-5.72,2.75-7.79,4.76-9.3,1.76-1.27,2.79-2,2.79-5,0-2-1.44-3.92-4.66-3.92a4.42,4.42,0,0,0-4.65,4.41,2.3,2.3,0,0,1-4.59,0,9.08,9.08,0,0,1,2.28-6,8.72,8.72,0,0,1,7-3c6.07,0,9.24,4.28,9.24,8.51,0,5.3-2.55,7.18-4.61,8.69-1.77,1.28-2.94,2.12-2.94,5.61A2.29,2.29,0,0,1,77.46,68.22Zm.6-22.51c4.37,0,6.66,3,6.66,5.92,0,4-1.73,5.26-3.56,6.59s-4,3-4,7.71a.27.27,0,0,0,.29.29.3.3,0,0,0,.29-.29c0-4.51,1.83-5.83,3.77-7.23s3.78-2.78,3.78-7.07c0-3.13-2.26-6.51-7.24-6.51a6.79,6.79,0,0,0-5.45,2.35,7.08,7.08,0,0,0-1.79,4.65.3.3,0,0,0,.59,0A6.41,6.41,0,0,1,78.06,45.71Z"/><path class="cls-1" d="M54,127a2,2,0,0,1-1.6-3.2l17.19-23a2,2,0,0,1,3.21,2.4l-17.2,23A2,2,0,0,1,54,127Z"/><path class="cls-1" d="M61,127a2,2,0,0,1-1.6-3.2l17.19-23a2,2,0,0,1,3.21,2.4l-17.2,23A2,2,0,0,1,61,127Z"/><path class="cls-1" d="M68,127a2,2,0,0,1-1.6-3.2l17.19-23a2,2,0,0,1,3.21,2.4l-17.2,23A2,2,0,0,1,68,127Z"/><path class="cls-1" d="M75,127a2,2,0,0,1-1.6-3.2l17.19-23a2,2,0,0,1,3.21,2.4l-17.2,23A2,2,0,0,1,75,127Z"/><path class="cls-1" d="M82,127a2,2,0,0,1-1.6-3.2l17.19-23a2,2,0,0,1,3.21,2.4l-17.2,23A2,2,0,0,1,82,127Z"/><path class="cls-1" d="M89,127a2,2,0,0,1-1.6-3.2l17.19-23a2,2,0,0,1,3.21,2.4l-17.2,23A2,2,0,0,1,89,127Z"/><path class="cls-1" d="M96,127a2,2,0,0,1-1.6-3.2l17.19-23a2,2,0,0,1,3.21,2.4l-17.2,23A2,2,0,0,1,96,127Z"/><path class="cls-1" d="M103,127a2,2,0,0,1-1.6-3.2l15-20a2,2,0,1,1,3.2,2.4l-15,20A2,2,0,0,1,103,127Z"/><path class="cls-1" d="M110,127a2,2,0,0,1-1.25-.44,2,2,0,0,1-.31-2.81l8-10a2,2,0,0,1,3.12,2.5l-8,10A2,2,0,0,1,110,127Z"/></svg>