<svg id="Layer_1" data-name="Layer 1" xmlns="http://www.w3.org/2000/svg" viewBox="0 0 216 216"><defs><style>.cls-1{fill:#666;}</style></defs><title>expand</title><path class="cls-1" d="M158.5,180.5H48.5a5,5,0,0,1-5-5V65.5a5,5,0,0,1,5-5H91.38a5,5,0,0,1,0,10H53.5v100h100V132.62a5,5,0,0,1,10,0V175.5A5,5,0,0,1,158.5,180.5Z"/><path class="cls-1" d="M185,122H107a5,5,0,0,1-5-5V39a5,5,0,0,1,5-5h78a5,5,0,0,1,5,5v78A5,5,0,0,1,185,122Zm-73-10h68V44H112Z"/><path class="cls-1" d="M127.5,101.5A5,5,0,0,1,124,93l28-28h-9.78a5,5,0,0,1,0-10H164a5,5,0,0,1,3.25,1.23A4.64,4.64,0,0,1,168,57a5,5,0,0,1,1,2.69c0,.13,0,.26,0,.4V81.85a5,5,0,0,1-10,0V72.07l-28,28A5,5,0,0,1,127.5,101.5Z"/></svg>