<svg id="Layer_1" data-name="Layer 1" xmlns="http://www.w3.org/2000/svg" viewBox="0 0 216 216"><defs><style>.cls-1{fill:#4d4d4d;}</style></defs><title>filter</title><circle class="cls-1" cx="82" cy="53.17" r="9"/><path class="cls-1" d="M162.5,58.5H99.66a5,5,0,0,1,0-10H162.5a5,5,0,0,1,0,10Z"/><path class="cls-1" d="M64.12,58.5H55.5a5,5,0,0,1,0-10h8.62a5,5,0,0,1,0,10Z"/><circle class="cls-1" cx="133" cy="87.08" r="9"/><path class="cls-1" d="M162.5,92.58h-.07l-11.84-.16a5,5,0,1,1,.14-10l11.84.16a5,5,0,0,1-.07,10Z"/><path class="cls-1" d="M55.5,92.58a5,5,0,0,1,0-10l59.62-.16h0a5,5,0,0,1,0,10l-59.63.16Z"/><circle class="cls-1" cx="107" cy="121" r="9"/><path class="cls-1" d="M162.5,126.5h0l-37.84-.17a5,5,0,0,1,0-10h0l37.84.17a5,5,0,0,1,0,10Z"/><path class="cls-1" d="M55.5,126.5a5,5,0,0,1,0-10l33.62-.17h0a5,5,0,0,1,0,10l-33.63.17Z"/></svg>