<svg id="Layer_1" data-name="Layer 1" xmlns="http://www.w3.org/2000/svg" viewBox="0 0 1118 530"><defs><style>.cls-1,.cls-2{fill:#4d4d4d;}.cls-2{font-size:29.16px;font-family:Nunito-Bold, Nunito;font-weight:700;letter-spacing:0.14em;}.cls-3{letter-spacing:0.15em;}.cls-4{letter-spacing:0.13em;}</style></defs><title>Plan</title><path class="cls-1" d="M1061.5,536a6.5,6.5,0,0,1-6.5-6.5V89H580V276.54a6.5,6.5,0,0,1-13,0V82.5a6.5,6.5,0,0,1,6.5-6.5h488a6.5,6.5,0,0,1,6.5,6.5v447A6.5,6.5,0,0,1,1061.5,536Z"/><path class="cls-1" d="M975.07,500.06H868.68a3,3,0,0,1,0-6H975.07A18,18,0,0,0,993,476.13V219.92A18,18,0,0,0,975.07,202H660.2a18,18,0,0,0-17.93,17.93V287a3,3,0,0,1-6,0V219.92A24,24,0,0,1,660.2,196H975.07A24,24,0,0,1,999,219.92V476.13A24,24,0,0,1,975.07,500.06Z"/><path class="cls-1" d="M683.26,271.75a3,3,0,0,1-3-3V199a3,3,0,0,1,6,0v69.76A3,3,0,0,1,683.26,271.75Z"/><path class="cls-1" d="M736.05,271.75a3,3,0,0,1-3-3V199a3,3,0,0,1,6,0v69.76A3,3,0,0,1,736.05,271.75Z"/><path class="cls-1" d="M788.85,271.75a3,3,0,0,1-3-3V199a3,3,0,0,1,6,0v69.76A3,3,0,0,1,788.85,271.75Z"/><path class="cls-1" d="M841.64,271.75a3,3,0,0,1-3-3V199a3,3,0,0,1,6,0v69.76A3,3,0,0,1,841.64,271.75Z"/><path class="cls-1" d="M894.44,496.34a3,3,0,0,1-3-3V199a3,3,0,0,1,6,0V493.34A3,3,0,0,1,894.44,496.34Z"/><path class="cls-1" d="M947.23,496.34a3,3,0,0,1-3-3V199a3,3,0,0,1,6,0V493.34A3,3,0,0,1,947.23,496.34Z"/><path class="cls-1" d="M994.74,279.54h-128a3,3,0,0,1,0-6h128a3,3,0,0,1,0,6Z"/><path class="cls-1" d="M667.07,279.54H640.54a3,3,0,0,1,0-6h26.53a3,3,0,0,1,0,6Z"/><path class="cls-1" d="M994.74,337h-128a3,3,0,0,1,0-6h128a3,3,0,0,1,0,6Z"/><path class="cls-1" d="M994.74,394.35h-128a3,3,0,0,1,0-6h128a3,3,0,0,1,0,6Z"/><path class="cls-1" d="M994.74,451.76H868.68a3,3,0,0,1,0-6H994.74a3,3,0,0,1,0,6Z"/><path class="cls-1" d="M87.5,536a6.5,6.5,0,0,1-6.5-6.5v-358a6.5,6.5,0,0,1,6.5-6.5h389a6.5,6.5,0,0,1,6.5,6.5v87.14a6.5,6.5,0,0,1-13,0V178H94V529.52A6.5,6.5,0,0,1,87.5,536Z"/><path class="cls-1" d="M436.5,224h-285a2.5,2.5,0,0,1,0-5h285a2.5,2.5,0,0,1,0,5Z"/><path class="cls-1" d="M326.5,317h-175a2.5,2.5,0,0,1,0-5h175a2.5,2.5,0,0,1,0,5Z"/><path class="cls-1" d="M436.5,255.13H203a2.63,2.63,0,0,1,0-5.26H436.5a2.63,2.63,0,0,1,0,5.26Z"/><path class="cls-1" d="M326.5,348.13H203a2.63,2.63,0,0,1,0-5.26H326.5a2.63,2.63,0,0,1,0,5.26Z"/><path class="cls-1" d="M326.5,441.13H203a2.63,2.63,0,0,1,0-5.26H326.5a2.63,2.63,0,0,1,0,5.26Z"/><path class="cls-1" d="M326.5,379.13h-90a2.63,2.63,0,0,1,0-5.26h90a2.63,2.63,0,0,1,0,5.26Z"/><path class="cls-1" d="M326.5,410.13h-90a2.63,2.63,0,0,1,0-5.26h90a2.63,2.63,0,0,1,0,5.26Z"/><path class="cls-1" d="M326.5,472.13h-90a2.63,2.63,0,0,1,0-5.26h90a2.63,2.63,0,0,1,0,5.26Z"/><path class="cls-1" d="M326.5,503.13h-90a2.63,2.63,0,0,1,0-5.26h90a2.63,2.63,0,0,1,0,5.26Z"/><path class="cls-1" d="M326.5,286.13H203a2.63,2.63,0,0,1,0-5.26H326.5a2.63,2.63,0,0,1,0,5.26Z"/><path class="cls-1" d="M130.16,227.71a1.21,1.21,0,0,1-.34-.92v-7.4a1.17,1.17,0,0,1,1.25-1.24,1.3,1.3,0,0,1,1,.34,1.2,1.2,0,0,1,.34.9v7.4a1.21,1.21,0,0,1-.34.92,1.3,1.3,0,0,1-1,.34A1.21,1.21,0,0,1,130.16,227.71Z"/><path class="cls-1" d="M134.17,227.66a1.35,1.35,0,1,1,1,.39A1.27,1.27,0,0,1,134.17,227.66Z"/><path class="cls-1" d="M180.76,257.51a1,1,0,0,1-.37.77,1.19,1.19,0,0,1-.84.32,1.08,1.08,0,0,1-.58-.16,1.15,1.15,0,0,1-.41-.5l-.62-1.4h-4.48l-.64,1.4a1.1,1.1,0,0,1-.42.5,1.11,1.11,0,0,1-.59.16,1.25,1.25,0,0,1-.85-.32,1,1,0,0,1-.38-.77,1.19,1.19,0,0,1,.12-.51l3.65-7.5a1.24,1.24,0,0,1,.54-.57,1.56,1.56,0,0,1,.78-.2,1.61,1.61,0,0,1,.77.2,1.24,1.24,0,0,1,.54.57l3.65,7.5A1.07,1.07,0,0,1,180.76,257.51Zm-6.45-2.88h2.77l-1.38-3.08Z"/><path class="cls-1" d="M182.13,258.26a1.34,1.34,0,0,1-.38-1,1.32,1.32,0,0,1,1.34-1.34,1.27,1.27,0,0,1,.95.39,1.31,1.31,0,0,1,.38.95,1.34,1.34,0,0,1-.38,1,1.3,1.3,0,0,1-.95.38A1.34,1.34,0,0,1,182.13,258.26Z"/><path class="cls-1" d="M179.15,285a2.44,2.44,0,0,1,.46,1.51,2.4,2.4,0,0,1-.42,1.41,2.68,2.68,0,0,1-1.21.93,4.67,4.67,0,0,1-1.83.33h-3.68a1.21,1.21,0,0,1-.87-.3,1.18,1.18,0,0,1-.3-.87v-7.4a1.18,1.18,0,0,1,.3-.87,1.21,1.21,0,0,1,.87-.3H176a3.91,3.91,0,0,1,2.44.68,2.19,2.19,0,0,1,.91,1.85,2.21,2.21,0,0,1-1.52,2.15A2.49,2.49,0,0,1,179.15,285Zm-5.38-1.73h1.82a1.92,1.92,0,0,0,1-.23.77.77,0,0,0,.33-.7.87.87,0,0,0-.33-.75,1.92,1.92,0,0,0-1-.23h-1.82Zm3.15,3.75a1.15,1.15,0,0,0,0-1.59,1.89,1.89,0,0,0-1.09-.24h-2.06v2.07h2.06A1.89,1.89,0,0,0,176.92,287Z"/><path class="cls-1" d="M180.89,288.85a1.39,1.39,0,0,1,0-1.91,1.36,1.36,0,0,1,1.91,0,1.39,1.39,0,0,1,0,1.91,1.36,1.36,0,0,1-1.91,0Z"/><path class="cls-1" d="M130.16,319.49a1.21,1.21,0,0,1-.34-.92v-7.4a1.17,1.17,0,0,1,1.25-1.24,1.3,1.3,0,0,1,1,.34,1.2,1.2,0,0,1,.34.9v7.4a1.21,1.21,0,0,1-.34.92,1.3,1.3,0,0,1-1,.34A1.21,1.21,0,0,1,130.16,319.49Z"/><path class="cls-1" d="M134.47,319.49a1.21,1.21,0,0,1-.34-.92v-7.4a1.2,1.2,0,0,1,.34-.9,1.23,1.23,0,0,1,.92-.34,1.26,1.26,0,0,1,.94.34,1.2,1.2,0,0,1,.34.9v7.4a1.21,1.21,0,0,1-.34.92,1.26,1.26,0,0,1-.94.34A1.23,1.23,0,0,1,134.47,319.49Z"/><path class="cls-1" d="M138.48,319.44a1.31,1.31,0,0,1-.38-.95,1.34,1.34,0,0,1,.38-1,1.39,1.39,0,0,1,1.91,0,1.34,1.34,0,0,1,.38,1,1.31,1.31,0,0,1-.38.95,1.36,1.36,0,0,1-1.91,0Z"/><path class="cls-1" d="M180.76,349.29a1,1,0,0,1-.37.77,1.19,1.19,0,0,1-.84.32,1.08,1.08,0,0,1-.58-.16,1.21,1.21,0,0,1-.41-.5l-.62-1.4h-4.48l-.64,1.4a1.15,1.15,0,0,1-.42.5,1.11,1.11,0,0,1-.59.16,1.25,1.25,0,0,1-.85-.32,1,1,0,0,1-.38-.77,1.19,1.19,0,0,1,.12-.51l3.65-7.5a1.24,1.24,0,0,1,.54-.57,1.56,1.56,0,0,1,.78-.2,1.61,1.61,0,0,1,.77.2,1.24,1.24,0,0,1,.54.57l3.65,7.5A1.07,1.07,0,0,1,180.76,349.29Zm-6.45-2.88h2.77l-1.38-3.08Z"/><path class="cls-1" d="M182.13,350a1.34,1.34,0,0,1-.38-1,1.32,1.32,0,0,1,1.34-1.34,1.27,1.27,0,0,1,.95.39,1.31,1.31,0,0,1,.38.95,1.34,1.34,0,0,1-.38,1,1.3,1.3,0,0,1-.95.38A1.34,1.34,0,0,1,182.13,350Z"/><path class="cls-1" d="M219.23,379.94a1.15,1.15,0,0,1-1.11,1.09,1.14,1.14,0,0,1-.82-.37L215.69,379l-1.61,1.69a1.13,1.13,0,0,1-.81.37,1.07,1.07,0,0,1-.78-.33,1.06,1.06,0,0,1-.33-.76,1.08,1.08,0,0,1,.34-.79l1.72-1.72-1.58-1.54a1.1,1.1,0,0,1,0-1.57,1,1,0,0,1,.77-.33,1.07,1.07,0,0,1,.82.39l1.48,1.51,1.49-1.51A1.11,1.11,0,0,1,218,374a1,1,0,0,1,.77.33,1,1,0,0,1,.33.75,1.15,1.15,0,0,1-.35.81l-1.58,1.54,1.72,1.72A1.09,1.09,0,0,1,219.23,379.94Z"/><path class="cls-1" d="M219.23,410.53a1,1,0,0,1-.34.76,1.06,1.06,0,0,1-.77.33,1.1,1.1,0,0,1-.82-.37l-1.61-1.69-1.61,1.69a1.09,1.09,0,0,1-.81.37,1.07,1.07,0,0,1-.78-.33,1,1,0,0,1-.33-.76,1.09,1.09,0,0,1,.34-.79l1.72-1.71-1.58-1.55a1.08,1.08,0,0,1-.34-.79,1.09,1.09,0,0,1,.32-.77,1.05,1.05,0,0,1,.77-.34,1.07,1.07,0,0,1,.82.39l1.48,1.51,1.49-1.51a1.09,1.09,0,0,1,.81-.37,1.07,1.07,0,0,1,.77.32,1,1,0,0,1,.33.76,1.14,1.14,0,0,1-.35.8L217.16,408l1.72,1.71A1.1,1.1,0,0,1,219.23,410.53Z"/><path class="cls-1" d="M179.15,437.94a2.42,2.42,0,0,1,.46,1.51,2.39,2.39,0,0,1-.42,1.4,2.7,2.7,0,0,1-1.21.94,4.67,4.67,0,0,1-1.83.33h-3.68a1.06,1.06,0,0,1-1.17-1.18v-7.39a1.05,1.05,0,0,1,1.17-1.18H176a4,4,0,0,1,2.44.68,2.35,2.35,0,0,1,.51,3.17,2.34,2.34,0,0,1-1.12.84A2.43,2.43,0,0,1,179.15,437.94Zm-5.38-1.74h1.82a1.93,1.93,0,0,0,1-.22.79.79,0,0,0,.33-.71.83.83,0,0,0-.33-.74,1.83,1.83,0,0,0-1-.24h-1.82Zm3.15,3.75a.9.9,0,0,0,.32-.79.93.93,0,0,0-.32-.8,1.89,1.89,0,0,0-1.09-.24h-2.06v2.08h2.06A1.81,1.81,0,0,0,176.92,440Z"/><path class="cls-1" d="M180.89,441.81a1.38,1.38,0,0,1,0-1.9,1.36,1.36,0,0,1,1.91,0,1.38,1.38,0,0,1,0,1.9,1.36,1.36,0,0,1-1.91,0Z"/><path class="cls-1" d="M219.23,471.72a1.08,1.08,0,0,1-.34.76,1.06,1.06,0,0,1-.77.33,1.14,1.14,0,0,1-.82-.37l-1.61-1.69-1.61,1.69a1.13,1.13,0,0,1-.81.37,1.09,1.09,0,0,1-.77-1.88l1.72-1.72-1.58-1.55a1.07,1.07,0,0,1-.34-.78,1.1,1.1,0,0,1,.32-.78,1,1,0,0,1,.77-.33,1.07,1.07,0,0,1,.82.39l1.48,1.5,1.49-1.5a1.11,1.11,0,0,1,.81-.38,1,1,0,0,1,.77.33,1,1,0,0,1,.33.75,1.13,1.13,0,0,1-.35.8l-1.58,1.55,1.72,1.72A1.09,1.09,0,0,1,219.23,471.72Z"/><path class="cls-1" d="M219.23,502.31a1.15,1.15,0,0,1-1.11,1.09,1.1,1.1,0,0,1-.82-.37l-1.61-1.69L214.08,503a1.09,1.09,0,0,1-.81.37,1.07,1.07,0,0,1-.78-.33,1.06,1.06,0,0,1-.33-.76,1.08,1.08,0,0,1,.34-.79l1.72-1.71-1.58-1.55a1.09,1.09,0,0,1-.34-.79,1.07,1.07,0,0,1,.32-.77,1,1,0,0,1,.77-.34,1.07,1.07,0,0,1,.82.39l1.48,1.51,1.49-1.51a1.09,1.09,0,0,1,.81-.37,1.07,1.07,0,0,1,.77.32,1,1,0,0,1,.33.76,1.14,1.14,0,0,1-.35.8l-1.58,1.55,1.72,1.71A1.09,1.09,0,0,1,219.23,502.31Z"/><path class="cls-1" d="M597,536a6.5,6.5,0,0,1-6.5-6.5V336.33A175.68,175.68,0,0,0,475.7,293.5H362.08v236a6.5,6.5,0,0,1-13,0V287a6.51,6.51,0,0,1,6.5-6.5H475.7a188.7,188.7,0,0,1,125.62,48,6.48,6.48,0,0,1,2.18,4.85V529.52A6.5,6.5,0,0,1,597,536Z"/><path class="cls-1" d="M839,536a6.5,6.5,0,0,1-6.5-6.5v-236H718.89A175.68,175.68,0,0,0,603.5,336.83V529.52a6.5,6.5,0,0,1-13,0V333.38a6.5,6.5,0,0,1,3.84-5.93l.26-.11A188.69,188.69,0,0,1,718.89,280.5H839a6.5,6.5,0,0,1,6.5,6.5V529.52A6.5,6.5,0,0,1,839,536Z"/><path class="cls-1" d="M631.21,361.06a3.59,3.59,0,0,1-2.39-.92l-.21-.18a3.6,3.6,0,0,1-.3-5.07,3.69,3.69,0,0,1,1.53-1,134.59,134.59,0,0,1,88.8-33.54H805a3.6,3.6,0,1,1,0,7.19H718.64a127.42,127.42,0,0,0-85,32.62A3.59,3.59,0,0,1,631.21,361.06Z"/><path class="cls-1" d="M631.71,393.63a3.59,3.59,0,0,1-2.39-.92l-.21-.17a3.61,3.61,0,0,1-.3-5.08,3.69,3.69,0,0,1,1.53-1,134.63,134.63,0,0,1,88.8-33.53H805.5a3.6,3.6,0,1,1,0,7.19H719.14a127.41,127.41,0,0,0-85,32.61A3.59,3.59,0,0,1,631.71,393.63Z"/><path class="cls-1" d="M632.21,426.2a3.57,3.57,0,0,1-2.39-.91l-.21-.18a3.61,3.61,0,0,1-.3-5.08,3.57,3.57,0,0,1,1.53-1,134.59,134.59,0,0,1,88.8-33.54H806a3.6,3.6,0,1,1,0,7.19H719.64a127.37,127.37,0,0,0-85,32.62A3.58,3.58,0,0,1,632.21,426.2Z"/><path class="cls-1" d="M632.71,458.77a3.57,3.57,0,0,1-2.39-.91l-.21-.18a3.6,3.6,0,0,1-.3-5.07,3.5,3.5,0,0,1,1.53-1,134.59,134.59,0,0,1,88.8-33.54H806.5a3.6,3.6,0,1,1,0,7.19H720.14a127.37,127.37,0,0,0-85,32.62A3.58,3.58,0,0,1,632.71,458.77Z"/><path class="cls-1" d="M633.21,491.35a3.59,3.59,0,0,1-2.39-.92l-.21-.18a3.6,3.6,0,0,1-.3-5.07,3.69,3.69,0,0,1,1.53-1,134.59,134.59,0,0,1,88.8-33.54H807a3.6,3.6,0,1,1,0,7.19H720.64a127.42,127.42,0,0,0-85,32.62A3.59,3.59,0,0,1,633.21,491.35Z"/><path class="cls-1" d="M995.1,226.82H640.77a3,3,0,0,1,0-6H995.1a3,3,0,0,1,0,6Z"/><text class="cls-2" transform="translate(723.49 158.25)">C<tspan class="cls-3" x="23.76" y="0">ALEN</tspan><tspan class="cls-4" x="118.03" y="0">D</tspan><tspan class="cls-3" x="143.87" y="0">AR</tspan></text><path class="cls-1" d="M209.85,139a5,5,0,0,1-3.54-1.47L166.71,98a5,5,0,1,1,7.07-7.08l39.6,39.6a5,5,0,0,1-3.53,8.54Z"/><path class="cls-1" d="M288.5,129.5a5,5,0,0,1-5-5v-48a5,5,0,0,1,10,0v48A5,5,0,0,1,288.5,129.5Z"/><path class="cls-1" d="M368,137.59a5,5,0,0,1-3.53-8.53l36.77-36.77a5,5,0,0,1,7.07,7.07l-36.77,36.77A5,5,0,0,1,368,137.59Z"/></svg>