<svg id="Layer_1" data-name="Layer 1" xmlns="http://www.w3.org/2000/svg" viewBox="0 0 586 89"><defs><style>.cls-1{fill:#666;}.cls-2{fill:#fff;}</style></defs><title>playbar</title><rect class="cls-1" x="17" y="22" width="554" height="42" rx="16.85"/><path class="cls-2" d="M67.34,41.72l-17.4-10A1.49,1.49,0,0,0,47.72,33V53a1.49,1.49,0,0,0,2.22,1.29l17.4-10A1.48,1.48,0,0,0,67.34,41.72Z"/><path class="cls-2" d="M85.5,41.76l-9.56-5.52a1.48,1.48,0,0,0-2.22,1.28v11a1.48,1.48,0,0,0,2.22,1.28l9.56-5.52A1.48,1.48,0,0,0,85.5,41.76Z"/><rect class="cls-2" x="68" y="75" width="4.62" height="21" rx="2.31"/><rect class="cls-2" x="78.38" y="75" width="4.62" height="21" rx="2.31"/><path class="cls-2" d="M551,44H98a1,1,0,0,1,0-2H551a1,1,0,0,1,0,2Z"/><rect class="cls-2" x="85.04" y="35.83" width="2.96" height="14.74" rx="1.48"/><path class="cls-2" d="M29.22,44.64l9.56,5.52A1.48,1.48,0,0,0,41,48.88v-11a1.48,1.48,0,0,0-2.22-1.28l-9.56,5.52A1.48,1.48,0,0,0,29.22,44.64Z"/><rect class="cls-2" x="26.72" y="35.83" width="2.96" height="14.74" rx="1.48" transform="translate(56.41 86.4) rotate(180)"/></svg>