<svg id="Layer_1" data-name="Layer 1" xmlns="http://www.w3.org/2000/svg" viewBox="0 0 1130 530"><defs><style>.cls-1{fill:#4d4d4d;}.cls-2{fill:none;}</style></defs><title>Preach</title><path class="cls-1" d="M441,454H425a6.5,6.5,0,0,1,0-13h16a9.13,9.13,0,0,0,8.74-6.41l50.62-160.67A9.16,9.16,0,0,0,491.64,262H146.86a9.16,9.16,0,0,0-8.74,11.92l50.62,160.67a9.13,9.13,0,0,0,8.74,6.41h20.07a6.5,6.5,0,0,1,0,13H197.48a22.09,22.09,0,0,1-21.14-15.5L125.72,277.82A22.17,22.17,0,0,1,146.86,249H491.64a22.17,22.17,0,0,1,21.14,28.82L462.16,438.5A22.09,22.09,0,0,1,441,454Z"/><path class="cls-1" d="M197.5,262a6.5,6.5,0,0,1-6.5-6.5A72.58,72.58,0,0,1,263.5,183a6.5,6.5,0,0,1,0,13A59.57,59.57,0,0,0,204,255.5,6.5,6.5,0,0,1,197.5,262Z"/><path class="cls-1" d="M280,208a18.5,18.5,0,1,1,18.5-18.5A18.52,18.52,0,0,1,280,208Zm0-24a5.5,5.5,0,1,0,5.5,5.5A5.51,5.51,0,0,0,280,184Z"/><path class="cls-1" d="M401.75,229a6.5,6.5,0,0,1-5.81-9.41L418,175.43h-1.38A38.67,38.67,0,0,1,378,136.8v-52A38.67,38.67,0,0,1,416.63,46.2H692.87A38.67,38.67,0,0,1,731.5,84.83v52a38.67,38.67,0,0,1-38.63,38.63H473.27l-67.54,52.21A6.48,6.48,0,0,1,401.75,229ZM416.63,59.2A25.66,25.66,0,0,0,391,84.83v52a25.66,25.66,0,0,0,25.63,25.63h11.89a6.5,6.5,0,0,1,5.82,9.4l-14,28.13,46.78-36.17a6.52,6.52,0,0,1,4-1.36H692.87A25.66,25.66,0,0,0,718.5,136.8v-52A25.66,25.66,0,0,0,692.87,59.2Z"/><path class="cls-1" d="M877.75,362a6.48,6.48,0,0,1-4-1.36l-67.54-52.21H586.63A38.67,38.67,0,0,1,548,269.8v-131a38.67,38.67,0,0,1,38.63-38.63H862.87a38.67,38.67,0,0,1,38.63,38.63v131a38.67,38.67,0,0,1-38.63,38.63h-1.38l22.07,44.16a6.5,6.5,0,0,1-5.81,9.41ZM586.63,113.2A25.66,25.66,0,0,0,561,138.83v131a25.66,25.66,0,0,0,25.63,25.63H808.45a6.52,6.52,0,0,1,4,1.36L859.21,333l-14.05-28.13a6.5,6.5,0,0,1,5.82-9.4h11.89A25.66,25.66,0,0,0,888.5,269.8v-131a25.66,25.66,0,0,0-25.63-25.63Z"/><path class="cls-1" d="M853.85,469.5H685a21.67,21.67,0,0,1-21.65-21.65V385.5a5,5,0,0,1,5-5H870.5a5,5,0,0,1,5,5v62.35A21.67,21.67,0,0,1,853.85,469.5Zm-180.51-79v57.35A11.67,11.67,0,0,0,685,459.5H853.85a11.67,11.67,0,0,0,11.65-11.65V390.5Z"/><path class="cls-1" d="M701.8,429.52a11.62,11.62,0,0,0-4.49-1.78,14.61,14.61,0,0,1-2-.54,2.19,2.19,0,0,1-.89-.54,1,1,0,0,1-.23-.69,1.35,1.35,0,0,1,.65-1.2,3.55,3.55,0,0,1,2-.48,5.42,5.42,0,0,1,1.86.27,9,9,0,0,1,1.64.86,3.29,3.29,0,0,0,.66.31,1.57,1.57,0,0,0,.54.08,1.3,1.3,0,0,0,1-.53,1.88,1.88,0,0,0,.24-2,2.32,2.32,0,0,0-.56-.64,8.7,8.7,0,0,0-5.42-1.65,8.35,8.35,0,0,0-3.38.66,5.81,5.81,0,0,0-2.38,1.87,4.58,4.58,0,0,0-.87,2.71,4.26,4.26,0,0,0,.62,2.33,4.59,4.59,0,0,0,1.93,1.6,15,15,0,0,0,3.39,1.06,8.71,8.71,0,0,1,2.5.77,1,1,0,0,1,.58.86,1.31,1.31,0,0,1-.64,1.17,4,4,0,0,1-2.11.45,7.61,7.61,0,0,1-2.09-.27,7.33,7.33,0,0,1-1.88-.86,3.47,3.47,0,0,0-.63-.3,1.59,1.59,0,0,0-.57-.1,1.28,1.28,0,0,0-1,.54,1.81,1.81,0,0,0-.41,1.17,1.86,1.86,0,0,0,.17.83,1.93,1.93,0,0,0,.56.63,7.09,7.09,0,0,0,2.59,1.22,13,13,0,0,0,3.37.43,8.86,8.86,0,0,0,3.46-.63,5.42,5.42,0,0,0,2.36-1.8,4.47,4.47,0,0,0,.85-2.7A3.78,3.78,0,0,0,701.8,429.52Z"/><path class="cls-1" d="M715.71,424.49c1.69,0,1.95-1,1.95-1.65s-.26-1.64-1.95-1.64h-7.93a1.91,1.91,0,0,0-1.41.51,1.93,1.93,0,0,0-.51,1.42v12.51a1.77,1.77,0,0,0,1.92,1.93h7.93c1.69,0,1.95-1,1.95-1.64s-.26-1.66-1.95-1.66h-5.87V430.9h5.42c1.7,0,2-1,2-1.64s-.25-1.66-2-1.66h-5.42v-3.11Z"/><path class="cls-1" d="M731.6,432.34a5,5,0,0,0-1.09-1.2l-.41-.26a4.81,4.81,0,0,0,2.11-1.43,4.9,4.9,0,0,0,1.07-3.21,4.7,4.7,0,0,0-1.52-3.75,6.64,6.64,0,0,0-4.39-1.29h-5.62a1.91,1.91,0,0,0-1.41.51,1.93,1.93,0,0,0-.51,1.42v12.53a2,2,0,0,0,.55,1.48,2,2,0,0,0,1.48.56,2,2,0,0,0,1.46-.56,2,2,0,0,0,.54-1.48v-4.23h1.52a1.67,1.67,0,0,1,.92.22,2.36,2.36,0,0,1,.72.75l3,4.38a1.91,1.91,0,0,0,.79.73,2,2,0,0,0,1,.24,2.12,2.12,0,0,0,1.36-.47,1.54,1.54,0,0,0,.61-1.26,2,2,0,0,0-.38-1.12Zm-2.19-6a1.64,1.64,0,0,1-.56,1.41h0a3.27,3.27,0,0,1-2,.47h-3.05v-3.76h3.05a3.36,3.36,0,0,1,2,.45A1.67,1.67,0,0,1,729.41,426.33Z"/><path class="cls-1" d="M751.93,421.66a1.88,1.88,0,0,0-1.41-.57,2.08,2.08,0,0,0-1.87,1.3l-4.27,8.12-4.28-8.12a2,2,0,0,0-1.89-1.3,1.85,1.85,0,0,0-1.41.57,2,2,0,0,0-.54,1.44v12.72a1.86,1.86,0,0,0,.51,1.37,1.77,1.77,0,0,0,1.3.51,1.82,1.82,0,0,0,1.33-.52,1.88,1.88,0,0,0,.51-1.36v-6.64l2.63,4.85a2.64,2.64,0,0,0,.78,1,1.72,1.72,0,0,0,1,.33,1.74,1.74,0,0,0,1.06-.33,3,3,0,0,0,.77-1l2.63-4.94v6.73a1.86,1.86,0,0,0,.51,1.37,1.76,1.76,0,0,0,1.3.51,1.81,1.81,0,0,0,1.33-.51,1.9,1.9,0,0,0,.51-1.37V423.1a2.05,2.05,0,0,0-.54-1.44Z"/><path class="cls-1" d="M767.53,422a9.28,9.28,0,0,0-8.46,0,7,7,0,0,0-2.79,2.93,10.56,10.56,0,0,0,0,8.84,7.07,7.07,0,0,0,2.79,2.94h0a9.12,9.12,0,0,0,8.46,0,7.07,7.07,0,0,0,2.79-2.94,10.56,10.56,0,0,0,0-8.84A7,7,0,0,0,767.53,422Zm-4.23,12.46a3.44,3.44,0,0,1-2.86-1.28,6,6,0,0,1-1.06-3.83,6,6,0,0,1,1-3.81,3.89,3.89,0,0,1,5.75,0,7.38,7.38,0,0,1,0,7.64A3.47,3.47,0,0,1,763.3,434.48Z"/><path class="cls-1" d="M787.81,421.66h0a1.87,1.87,0,0,0-1.41-.57,1.82,1.82,0,0,0-1.38.57,2,2,0,0,0-.52,1.44v7.56l-7-8.87a1.77,1.77,0,0,0-1.51-.7,1.85,1.85,0,0,0-1.4.57,2,2,0,0,0-.54,1.44v12.56a2.08,2.08,0,0,0,.52,1.47,1.85,1.85,0,0,0,1.4.57,1.75,1.75,0,0,0,1.39-.58,2.08,2.08,0,0,0,.52-1.46v-7.59l7,8.95a1.91,1.91,0,0,0,1.52.68,1.87,1.87,0,0,0,1.41-.57,2.05,2.05,0,0,0,.54-1.47V423.1A2,2,0,0,0,787.81,421.66Z"/><path class="cls-1" d="M812.75,421.5a.93.93,0,0,1,.49-.14,1,1,0,0,1,.62.21.7.7,0,0,1,.25.57,1.23,1.23,0,0,1-.06.36L809,436.76a.92.92,0,0,1-.38.48,1.14,1.14,0,0,1-.61.17,1.09,1.09,0,0,1-.58-.17.87.87,0,0,1-.38-.48l-4.39-12.4-4.43,12.4a.87.87,0,0,1-.38.48,1.09,1.09,0,0,1-.58.17,1.06,1.06,0,0,1-.58-.17.87.87,0,0,1-.38-.48l-5.09-14.26a1.06,1.06,0,0,1-.06-.34.71.71,0,0,1,.28-.58,1,1,0,0,1,.63-.22,1,1,0,0,1,.51.14.81.81,0,0,1,.32.44l4.41,12.72,4.48-12.59a.9.9,0,0,1,.36-.5.93.93,0,0,1,.53-.17.88.88,0,0,1,.54.18,1,1,0,0,1,.36.52L808,434.7l4.45-12.76A.81.81,0,0,1,812.75,421.5Z"/><path class="cls-1" d="M817.85,437.13a1,1,0,0,1-.24-.68V422.32a1,1,0,0,1,.24-.68,1,1,0,0,1,1.35,0,1,1,0,0,1,.24.68v14.13a1,1,0,0,1-.24.68,1,1,0,0,1-1.35,0Z"/><path class="cls-1" d="M825.85,437a6.81,6.81,0,0,1-2.45-1.35,1,1,0,0,1-.33-.79.89.89,0,0,1,.18-.55.53.53,0,0,1,.42-.23,1.11,1.11,0,0,1,.63.24,7.52,7.52,0,0,0,4.74,1.62,5.05,5.05,0,0,0,3-.74,2.43,2.43,0,0,0,1-2.11,1.71,1.71,0,0,0-.49-1.26,3.51,3.51,0,0,0-1.3-.77,18.46,18.46,0,0,0-2.17-.61,20.82,20.82,0,0,1-3-.89,4.7,4.7,0,0,1-1.91-1.35,3.46,3.46,0,0,1-.72-2.28,4.08,4.08,0,0,1,.72-2.38,4.81,4.81,0,0,1,2-1.62,7.42,7.42,0,0,1,3-.57,8.44,8.44,0,0,1,2.92.49,6.22,6.22,0,0,1,2.27,1.37,1.09,1.09,0,0,1,.36.79.86.86,0,0,1-.18.54.52.52,0,0,1-.42.24,1.3,1.3,0,0,1-.65-.25,7.74,7.74,0,0,0-2-1.25,6.34,6.34,0,0,0-2.26-.36,4.77,4.77,0,0,0-2.89.77,2.55,2.55,0,0,0-1,2.16,2,2,0,0,0,.91,1.78,8.76,8.76,0,0,0,2.78,1,33.17,33.17,0,0,1,3.21.91,4.84,4.84,0,0,1,1.93,1.24,3.11,3.11,0,0,1,.77,2.22,3.9,3.9,0,0,1-.72,2.33,4.74,4.74,0,0,1-2,1.56,7.57,7.57,0,0,1-3,.56A10.18,10.18,0,0,1,825.85,437Z"/><path class="cls-1" d="M838.79,437a.87.87,0,0,1-.25-.65v-14a.85.85,0,0,1,.25-.65,1,1,0,0,1,.69-.25h8.37a.89.89,0,0,1,.62.2.74.74,0,0,1,.23.56.71.71,0,0,1-.23.56.85.85,0,0,1-.62.21h-7.5v5.48h7a.93.93,0,0,1,.63.2.72.72,0,0,1,.22.56.7.7,0,0,1-.22.56.93.93,0,0,1-.63.2h-7v5.73h7.5a.94.94,0,0,1,.62.19.72.72,0,0,1,.23.57.71.71,0,0,1-.23.56.84.84,0,0,1-.62.2h-8.37A1,1,0,0,1,838.79,437Z"/><rect class="cls-1" x="635" y="402" width="33" height="10"/><rect class="cls-1" x="871" y="402" width="191" height="10"/><path class="cls-1" d="M858,202H590a5,5,0,0,1,0-10H858a5,5,0,0,1,0,10Z"/><path class="cls-1" d="M858,179H744a5,5,0,0,1,0-10H858a5,5,0,0,1,0,10Z"/><path class="cls-1" d="M858,156H744a5,5,0,0,1,0-10H858a5,5,0,0,1,0,10Z"/><path class="cls-1" d="M684,86H425a5,5,0,0,1,0-10H684a5,5,0,0,1,0,10Z"/><path class="cls-1" d="M516,107H425a5,5,0,0,1,0-10h91a5,5,0,0,1,0,10Z"/><path class="cls-1" d="M516,128H425a5,5,0,0,1,0-10h91a5,5,0,0,1,0,10Z"/><path class="cls-1" d="M516,149H425a5,5,0,0,1,0-10h91a5,5,0,0,1,0,10Z"/><path class="cls-1" d="M858,225H590a5,5,0,0,1,0-10H858a5,5,0,0,1,0,10Z"/><path class="cls-1" d="M858,248H590a5,5,0,0,1,0-10H858a5,5,0,0,1,0,10Z"/><path class="cls-1" d="M858,271H590a5,5,0,0,1,0-10H858a5,5,0,0,1,0,10Z"/><rect class="cls-2" x="641" y="391" width="414" height="139"/><path class="cls-2" d="M396,359.54A21.57,21.57,0,0,0,374.46,338H264.54A21.57,21.57,0,0,0,243,359.54V530H396Z"/><path class="cls-1" d="M374.46,325H264.54A34.59,34.59,0,0,0,230,359.54V530h13V359.54A21.57,21.57,0,0,1,264.54,338H374.46A21.57,21.57,0,0,1,396,359.54V530h13V359.54A34.59,34.59,0,0,0,374.46,325Z"/><path class="cls-1" d="M641,391h414V530h13V384.5a6.5,6.5,0,0,0-6.5-6.5h-427a6.5,6.5,0,0,0-6.5,6.5V530h13Z"/></svg>