<svg id="Layer_1" data-name="Layer 1" xmlns="http://www.w3.org/2000/svg" viewBox="0 0 1121 530"><defs><style>.cls-1{fill:#4d4d4d;}.cls-2{fill:none;}</style></defs><title>Prepare</title><path class="cls-1" d="M174.5,264h-80a6.5,6.5,0,0,1-4.6-11.1l80-80a6.5,6.5,0,0,1,11.1,4.6v80A6.5,6.5,0,0,1,174.5,264Zm-64.31-13H168V193.19Z"/><path class="cls-1" d="M506.5,609H94.5a6.5,6.5,0,0,1-6.5-6.5v-345a6.51,6.51,0,0,1,1.9-4.6l80-80a6.51,6.51,0,0,1,4.6-1.9h332a6.5,6.5,0,0,1,6.5,6.5v425A6.5,6.5,0,0,1,506.5,609ZM101,596H500V184H177.19L101,260.19Z"/><path class="cls-1" d="M309,152.52a5,5,0,0,1-5-5v-20a5,5,0,0,1,5-5l176.5,0h0a5,5,0,0,1,5,5v20a5,5,0,0,1-5,5l-176.5.05Zm5-20v10l166.5,0v-10Z"/><path class="cls-1" d="M485.49,152.49a5,5,0,0,1-5-5v-20a5,5,0,0,1,5-5h20a5,5,0,0,1,5,5v20a5,5,0,0,1-5,5Zm5-20v10h10v-10Z"/><path class="cls-1" d="M309,152.52a5.1,5.1,0,0,1-1.45-.22l-33-10a5,5,0,0,1,0-9.57l33-10a5,5,0,0,1,6.45,4.78v20a5,5,0,0,1-5,5Zm-15.76-15L304,140.78v-6.52Z"/><path class="cls-1" d="M485.48,143a5,5,0,0,1-5-5V115a5,5,0,0,1,10,0v23A5,5,0,0,1,485.48,143Z"/><path class="cls-1" d="M485.48,120h-66a5,5,0,0,1,0-10h66a5,5,0,0,1,0,10Z"/><path class="cls-1" d="M451.5,227h-258a2.5,2.5,0,0,1,0-5h258a2.5,2.5,0,0,1,0,5Z"/><path class="cls-1" d="M451.5,320H193.64a2.6,2.6,0,0,1-2.63-2.24A2.5,2.5,0,0,1,193.5,315H452.7C455.21,317.21,453.68,320,451.5,320Z"/><path class="cls-1" d="M451.5,258.13H245a2.63,2.63,0,0,1,0-5.26H451.5a2.63,2.63,0,0,1,0,5.26Z"/><path class="cls-1" d="M451.5,351.13H245.15a2.74,2.74,0,0,1-2.78-2.49,2.63,2.63,0,0,1,2.63-2.77H452.77C455.4,348.19,453.8,351.13,451.5,351.13Z"/><path class="cls-1" d="M451.5,444.13H245.15a2.74,2.74,0,0,1-2.78-2.49,2.63,2.63,0,0,1,2.63-2.77H452.77C455.4,441.19,453.8,444.13,451.5,444.13Z"/><path class="cls-1" d="M451.5,382.13H278.65a2.74,2.74,0,0,1-2.78-2.49,2.63,2.63,0,0,1,2.63-2.77H452.77C455.4,379.19,453.8,382.13,451.5,382.13Z"/><path class="cls-1" d="M451.5,413.13H278.65a2.74,2.74,0,0,1-2.78-2.49,2.63,2.63,0,0,1,2.63-2.77H452.77C455.4,410.19,453.8,413.13,451.5,413.13Z"/><path class="cls-1" d="M451.5,475.13H278.65a2.74,2.74,0,0,1-2.78-2.49,2.63,2.63,0,0,1,2.63-2.77H452.77C455.4,472.19,453.8,475.13,451.5,475.13Z"/><path class="cls-1" d="M451.5,506.13H278.65a2.74,2.74,0,0,1-2.78-2.49,2.63,2.63,0,0,1,2.63-2.77H452.77C455.4,503.19,453.8,506.13,451.5,506.13Z"/><path class="cls-1" d="M451.5,289.13H245.15a2.74,2.74,0,0,1-2.78-2.49,2.63,2.63,0,0,1,2.63-2.77H452.77C455.4,286.19,453.8,289.13,451.5,289.13Z"/><path class="cls-1" d="M172.16,230.71a1.21,1.21,0,0,1-.34-.92v-7.4a1.17,1.17,0,0,1,1.25-1.24,1.3,1.3,0,0,1,1,.34,1.2,1.2,0,0,1,.34.9v7.4a1.21,1.21,0,0,1-.34.92,1.3,1.3,0,0,1-1,.34A1.21,1.21,0,0,1,172.16,230.71Z"/><path class="cls-1" d="M176.17,230.66a1.35,1.35,0,1,1,1,.39A1.27,1.27,0,0,1,176.17,230.66Z"/><path class="cls-1" d="M222.76,260.51a1,1,0,0,1-.37.77,1.19,1.19,0,0,1-.84.32,1.08,1.08,0,0,1-.58-.16,1.15,1.15,0,0,1-.41-.5l-.62-1.4h-4.48l-.64,1.4a1.1,1.1,0,0,1-.42.5,1.11,1.11,0,0,1-.59.16,1.25,1.25,0,0,1-.85-.32,1,1,0,0,1-.38-.77,1.19,1.19,0,0,1,.12-.51l3.65-7.5a1.24,1.24,0,0,1,.54-.57,1.56,1.56,0,0,1,.78-.2,1.61,1.61,0,0,1,.77.2,1.24,1.24,0,0,1,.54.57l3.65,7.5A1.07,1.07,0,0,1,222.76,260.51Zm-6.45-2.88h2.77l-1.38-3.08Z"/><path class="cls-1" d="M224.13,261.26a1.34,1.34,0,0,1-.38-1,1.32,1.32,0,0,1,1.34-1.34,1.27,1.27,0,0,1,.95.39,1.31,1.31,0,0,1,.38.95,1.34,1.34,0,0,1-.38,1,1.3,1.3,0,0,1-.95.38A1.34,1.34,0,0,1,224.13,261.26Z"/><path class="cls-1" d="M221.15,288a2.44,2.44,0,0,1,.46,1.51,2.4,2.4,0,0,1-.42,1.41,2.68,2.68,0,0,1-1.21.93,4.67,4.67,0,0,1-1.83.33h-3.68a1.21,1.21,0,0,1-.87-.3,1.18,1.18,0,0,1-.3-.87v-7.4a1.18,1.18,0,0,1,.3-.87,1.21,1.21,0,0,1,.87-.3H218a3.91,3.91,0,0,1,2.44.68,2.19,2.19,0,0,1,.91,1.85,2.21,2.21,0,0,1-1.52,2.15A2.49,2.49,0,0,1,221.15,288Zm-5.38-1.73h1.82a1.92,1.92,0,0,0,1-.23.77.77,0,0,0,.33-.7.87.87,0,0,0-.33-.75,1.92,1.92,0,0,0-1-.23h-1.82Zm3.15,3.75a1.15,1.15,0,0,0,0-1.59,1.89,1.89,0,0,0-1.09-.24h-2.06v2.07h2.06A1.89,1.89,0,0,0,218.92,290Z"/><path class="cls-1" d="M222.89,291.85a1.39,1.39,0,0,1,0-1.91,1.36,1.36,0,0,1,1.91,0,1.39,1.39,0,0,1,0,1.91,1.36,1.36,0,0,1-1.91,0Z"/><path class="cls-1" d="M172.16,322.49a1.21,1.21,0,0,1-.34-.92v-7.4a1.17,1.17,0,0,1,1.25-1.24,1.3,1.3,0,0,1,1,.34,1.2,1.2,0,0,1,.34.9v7.4a1.21,1.21,0,0,1-.34.92,1.3,1.3,0,0,1-1,.34A1.21,1.21,0,0,1,172.16,322.49Z"/><path class="cls-1" d="M176.47,322.49a1.21,1.21,0,0,1-.34-.92v-7.4a1.2,1.2,0,0,1,.34-.9,1.23,1.23,0,0,1,.92-.34,1.26,1.26,0,0,1,.94.34,1.2,1.2,0,0,1,.34.9v7.4a1.21,1.21,0,0,1-.34.92,1.26,1.26,0,0,1-.94.34A1.23,1.23,0,0,1,176.47,322.49Z"/><path class="cls-1" d="M180.48,322.44a1.31,1.31,0,0,1-.38-.95,1.34,1.34,0,0,1,.38-1,1.39,1.39,0,0,1,1.91,0,1.34,1.34,0,0,1,.38,1,1.31,1.31,0,0,1-.38.95,1.36,1.36,0,0,1-1.91,0Z"/><path class="cls-1" d="M222.76,352.29a1,1,0,0,1-.37.77,1.19,1.19,0,0,1-.84.32,1.08,1.08,0,0,1-.58-.16,1.21,1.21,0,0,1-.41-.5l-.62-1.4h-4.48l-.64,1.4a1.15,1.15,0,0,1-.42.5,1.11,1.11,0,0,1-.59.16,1.25,1.25,0,0,1-.85-.32,1,1,0,0,1-.38-.77,1.19,1.19,0,0,1,.12-.51l3.65-7.5a1.24,1.24,0,0,1,.54-.57,1.56,1.56,0,0,1,.78-.2,1.61,1.61,0,0,1,.77.2,1.24,1.24,0,0,1,.54.57l3.65,7.5A1.07,1.07,0,0,1,222.76,352.29Zm-6.45-2.88h2.77l-1.38-3.08Z"/><path class="cls-1" d="M224.13,353a1.34,1.34,0,0,1-.38-1,1.32,1.32,0,0,1,1.34-1.34,1.27,1.27,0,0,1,.95.39,1.31,1.31,0,0,1,.38.95,1.34,1.34,0,0,1-.38,1,1.3,1.3,0,0,1-.95.38A1.34,1.34,0,0,1,224.13,353Z"/><path class="cls-1" d="M261.23,382.94a1.15,1.15,0,0,1-1.11,1.09,1.14,1.14,0,0,1-.82-.37L257.69,382l-1.61,1.69a1.13,1.13,0,0,1-.81.37,1.07,1.07,0,0,1-.78-.33,1.06,1.06,0,0,1-.33-.76,1.08,1.08,0,0,1,.34-.79l1.72-1.72-1.58-1.54a1.1,1.1,0,0,1,0-1.57,1,1,0,0,1,.77-.33,1.07,1.07,0,0,1,.82.39l1.48,1.51,1.49-1.51A1.11,1.11,0,0,1,260,377a1,1,0,0,1,.77.33,1,1,0,0,1,.33.75,1.15,1.15,0,0,1-.35.81l-1.58,1.54,1.72,1.72A1.09,1.09,0,0,1,261.23,382.94Z"/><path class="cls-1" d="M261.23,413.53a1,1,0,0,1-.34.76,1.06,1.06,0,0,1-.77.33,1.1,1.1,0,0,1-.82-.37l-1.61-1.69-1.61,1.69a1.09,1.09,0,0,1-.81.37,1.07,1.07,0,0,1-.78-.33,1,1,0,0,1-.33-.76,1.09,1.09,0,0,1,.34-.79l1.72-1.71-1.58-1.55a1.08,1.08,0,0,1-.34-.79,1.09,1.09,0,0,1,.32-.77,1.05,1.05,0,0,1,.77-.34,1.07,1.07,0,0,1,.82.39l1.48,1.51,1.49-1.51a1.09,1.09,0,0,1,.81-.37,1.07,1.07,0,0,1,.77.32,1,1,0,0,1,.33.76,1.14,1.14,0,0,1-.35.8L259.16,411l1.72,1.71A1.1,1.1,0,0,1,261.23,413.53Z"/><path class="cls-1" d="M221.15,440.94a2.42,2.42,0,0,1,.46,1.51,2.39,2.39,0,0,1-.42,1.4,2.7,2.7,0,0,1-1.21.94,4.67,4.67,0,0,1-1.83.33h-3.68a1.06,1.06,0,0,1-1.17-1.18v-7.39a1.05,1.05,0,0,1,1.17-1.18H218a4,4,0,0,1,2.44.68,2.35,2.35,0,0,1,.51,3.17,2.34,2.34,0,0,1-1.12.84A2.43,2.43,0,0,1,221.15,440.94Zm-5.38-1.74h1.82a1.93,1.93,0,0,0,1-.22.79.79,0,0,0,.33-.71.83.83,0,0,0-.33-.74,1.83,1.83,0,0,0-1-.24h-1.82Zm3.15,3.75a.9.9,0,0,0,.32-.79.93.93,0,0,0-.32-.8,1.89,1.89,0,0,0-1.09-.24h-2.06v2.08h2.06A1.81,1.81,0,0,0,218.92,443Z"/><path class="cls-1" d="M222.89,444.81a1.38,1.38,0,0,1,0-1.9,1.36,1.36,0,0,1,1.91,0,1.38,1.38,0,0,1,0,1.9,1.36,1.36,0,0,1-1.91,0Z"/><path class="cls-1" d="M261.23,474.72a1.08,1.08,0,0,1-.34.76,1.06,1.06,0,0,1-.77.33,1.14,1.14,0,0,1-.82-.37l-1.61-1.69-1.61,1.69a1.13,1.13,0,0,1-.81.37,1.09,1.09,0,0,1-.77-1.88l1.72-1.72-1.58-1.55a1.07,1.07,0,0,1-.34-.78,1.1,1.1,0,0,1,.32-.78,1,1,0,0,1,.77-.33,1.07,1.07,0,0,1,.82.39l1.48,1.5,1.49-1.5a1.11,1.11,0,0,1,.81-.38,1,1,0,0,1,.77.33,1,1,0,0,1,.33.75,1.13,1.13,0,0,1-.35.8l-1.58,1.55,1.72,1.72A1.09,1.09,0,0,1,261.23,474.72Z"/><path class="cls-1" d="M261.23,505.31a1.15,1.15,0,0,1-1.11,1.09,1.1,1.1,0,0,1-.82-.37l-1.61-1.69L256.08,506a1.09,1.09,0,0,1-.81.37,1.07,1.07,0,0,1-.78-.33,1.06,1.06,0,0,1-.33-.76,1.08,1.08,0,0,1,.34-.79l1.72-1.71-1.58-1.55a1.09,1.09,0,0,1-.34-.79,1.07,1.07,0,0,1,.32-.77,1,1,0,0,1,.77-.34,1.07,1.07,0,0,1,.82.39l1.48,1.51,1.49-1.51a1.09,1.09,0,0,1,.81-.37,1.07,1.07,0,0,1,.77.32,1,1,0,0,1,.33.76,1.14,1.14,0,0,1-.35.8l-1.58,1.55,1.72,1.71A1.09,1.09,0,0,1,261.23,505.31Z"/><path class="cls-1" d="M226.71,241c-9.07-.78-21.63,5.51-24.13,14.73a44.28,44.28,0,0,0-1.21,9c-.11,2.16-.77,5.95.52,7.89,2.23,3.36,8.66.95,11.32-.09a89.21,89.21,0,0,0,30.64-20.09c9.27-9.46-12-10.62-17.38-11.36-1.88-.27-2.7,2.63-.79,2.89,4.19.58,8.36,1.3,12.49,2.25,1.85.42,5.14.28,4.17,3.5-.25.85-3.08,2.94-3.74,3.54a91.7,91.7,0,0,1-19.49,13.31c-3,1.52-7.58,4.72-10.94,4.42-6.12-.55-3.75-10.75-2.7-14.49,2.19-7.73,13.61-13.19,21.24-12.53,1.92.16,1.91-2.84,0-3Z"/><path class="cls-1" d="M263.07,306.62a715.86,715.86,0,0,1,44.51,80c.83,1.74,3.42.22,2.59-1.52a715.86,715.86,0,0,0-44.51-80c-1-1.61-3.64-.11-2.59,1.52Z"/><path class="cls-1" d="M292.12,302.8a401.79,401.79,0,0,0-51.89,58.88c-1.14,1.56,1.47,3.06,2.59,1.51a398.35,398.35,0,0,1,51.42-58.27c1.41-1.32-.71-3.44-2.12-2.12Z"/><path class="cls-1" d="M195.46,274.59c-23.06,10.66-35,38.8-35.12,63.1-.1,15.15,7.15,28.06,14.61,40.76A433.09,433.09,0,0,0,201.27,418l1.29-2.26c-4.49-.35-8.19-2.22-11.85-4.73l-1.15,2.74,11.17,3.59a1.51,1.51,0,0,0,1.84-1.05l3.49-16.42c.4-1.88-2.49-2.69-2.89-.8l-3.49,16.42,1.85-1.05-11.17-3.58c-1.7-.55-2.5,1.82-1.16,2.74,4.15,2.85,8.31,4.75,13.36,5.14a1.51,1.51,0,0,0,1.3-2.26q-12.59-16.85-23.51-34.84c-7.45-12.31-16-25.42-16.91-40.16C161.89,317.21,174,287.8,197,277.19c1.75-.81.23-3.4-1.51-2.6Z"/><path class="cls-1" d="M334.49,458.07a329.78,329.78,0,0,0-57.68,1.19c-11.26,1.24-33,2.66-31.2,19.08a1.55,1.55,0,0,0,1.5,1.5c56.64,4.22,113.42,5.92,170.19,7.45,13.85.37,27.76,1,41.61.28,5.8-.32,22.16.54,23-8.17.74-7.72-11-13.71-16.85-15.78-10-3.53-20.81-3.59-31.24-4l-94.14-3.75c-1.93-.08-1.92,2.92,0,3l75.51,3c11.28.45,22.67.5,33.92,1.57,9.66.93,20.41,3.16,27.16,10.73,7.85,8.8-6.21,9.51-11.62,10-6,.54-12.1.72-18.16.73-12.71,0-25.43-.5-38.14-.84-25.23-.69-50.46-1.43-75.68-2.44-28.54-1.15-57.06-2.65-85.54-4.77l1.5,1.5c-1-9.3,8.26-13.1,15.83-14.44a239,239,0,0,1,23.88-2.7,329.37,329.37,0,0,1,46.17-.13c1.92.13,1.92-2.87,0-3Z"/><path class="cls-1" d="M814.43,642.5H572.07a41.62,41.62,0,0,1-41.57-41.57V255a6.5,6.5,0,0,1,6.5-6.5H722.65a6.5,6.5,0,0,1,0,13H543.5V600.93a28.61,28.61,0,0,0,28.57,28.57H814.43A28.61,28.61,0,0,0,843,600.93V376.87a6.5,6.5,0,1,1,13,0V600.93A41.62,41.62,0,0,1,814.43,642.5Z"/><path class="cls-1" d="M665.4,376.69a2.84,2.84,0,0,1,.79,2.1V396a2.86,2.86,0,0,1-.79,2.11,2.78,2.78,0,0,1-2.1.81,2.84,2.84,0,0,1-2.1-.79,2.89,2.89,0,0,1-.78-2.13v-6.42h-9.24V396a2.9,2.9,0,0,1-.79,2.11,2.78,2.78,0,0,1-2.1.81A2.72,2.72,0,0,1,645.4,396V378.79a3,3,0,0,1,5-2.1,2.88,2.88,0,0,1,.79,2.1v6.07h9.24v-6.07a2.87,2.87,0,0,1,.78-2.1,3.22,3.22,0,0,1,4.2,0Z"/><path class="cls-1" d="M679.84,397.54a9.69,9.69,0,0,1-3.93-4,14.35,14.35,0,0,1,0-12.28,9.61,9.61,0,0,1,3.93-4,13.53,13.53,0,0,1,12,0,9.5,9.5,0,0,1,3.91,4,14.4,14.4,0,0,1,0,12.28,9.69,9.69,0,0,1-3.93,4,13.3,13.3,0,0,1-12,0Zm10-4.9a10.27,10.27,0,0,0,0-10.54,5.38,5.38,0,0,0-8,0,10.42,10.42,0,0,0,0,10.57,5.36,5.36,0,0,0,8,0Z"/><path class="cls-1" d="M706.16,398a2.8,2.8,0,0,1-.71-2.06V378.79a2.84,2.84,0,0,1,.79-2.1,2.88,2.88,0,0,1,2.13-.78,3,3,0,0,1,2.18.78,2.81,2.81,0,0,1,.81,2.1V393.9h7.37c1.86,0,2.79.81,2.79,2.41a2.23,2.23,0,0,1-.69,1.8,3.25,3.25,0,0,1-2.1.57H708.18A2.73,2.73,0,0,1,706.16,398Z"/><path class="cls-1" d="M740.58,375.88a2.7,2.7,0,0,1,1.91.81,2.57,2.57,0,0,1,.85,1.88,2.68,2.68,0,0,1-.71,1.76l-6.73,7.8V396a2.8,2.8,0,0,1-.82,2.16,3,3,0,0,1-2.1.76,3.08,3.08,0,0,1-2.15-.76A2.74,2.74,0,0,1,730,396v-7.83l-6.67-7.8a2.65,2.65,0,0,1-.74-1.79,2.48,2.48,0,0,1,.84-1.86,2.61,2.61,0,0,1,1.89-.8,2.53,2.53,0,0,1,2,1l5.67,6.73,5.68-6.73A2.53,2.53,0,0,1,740.58,375.88Z"/><path class="cls-1" d="M658,427.47A5.75,5.75,0,0,1,659,431a5.53,5.53,0,0,1-1,3.25,6.28,6.28,0,0,1-2.79,2.17,10.89,10.89,0,0,1-4.25.77h-8.53a2.47,2.47,0,0,1-2.73-2.73V417.29a2.47,2.47,0,0,1,2.73-2.73h8.21a9.16,9.16,0,0,1,5.66,1.59,5.1,5.1,0,0,1,2.1,4.28,5.23,5.23,0,0,1-.93,3.07,5.31,5.31,0,0,1-2.6,1.94A5.69,5.69,0,0,1,658,427.47Zm-12.48-4h4.21a4.49,4.49,0,0,0,2.43-.51,1.82,1.82,0,0,0,.77-1.64,2,2,0,0,0-.77-1.73,4.19,4.19,0,0,0-2.43-.55h-4.21Zm7.3,8.71a2.64,2.64,0,0,0,0-3.69,4.27,4.27,0,0,0-2.52-.56h-4.78v4.81h4.78A4.34,4.34,0,0,0,652.78,432.16Z"/><path class="cls-1" d="M667.63,436.58a2.88,2.88,0,0,1-.78-2.13V417.29a2.84,2.84,0,0,1,.78-2.1,2.88,2.88,0,0,1,2.14-.79,3,3,0,0,1,2.18.79,2.81,2.81,0,0,1,.8,2.1v17.16a2.85,2.85,0,0,1-.8,2.13,3,3,0,0,1-2.18.79A2.88,2.88,0,0,1,667.63,436.58Z"/><path class="cls-1" d="M699.89,427.47A5.81,5.81,0,0,1,701,431a5.53,5.53,0,0,1-1,3.25,6.28,6.28,0,0,1-2.79,2.17,10.89,10.89,0,0,1-4.25.77h-8.54a2.46,2.46,0,0,1-2.72-2.73V417.29a2.46,2.46,0,0,1,2.72-2.73h8.22a9.16,9.16,0,0,1,5.66,1.59,5.1,5.1,0,0,1,2.1,4.28,5.23,5.23,0,0,1-.93,3.07,5.36,5.36,0,0,1-2.6,1.94A5.72,5.72,0,0,1,699.89,427.47Zm-12.48-4h4.2a4.53,4.53,0,0,0,2.44-.51,1.85,1.85,0,0,0,.77-1.64,2,2,0,0,0-.77-1.73,4.23,4.23,0,0,0-2.44-.55h-4.2Zm7.3,8.71a2.64,2.64,0,0,0,0-3.69,4.29,4.29,0,0,0-2.52-.56h-4.78v4.81h4.78A4.36,4.36,0,0,0,694.71,432.16Z"/><path class="cls-1" d="M709.48,436.47a2.77,2.77,0,0,1-.71-2.05V417.29a2.8,2.8,0,0,1,.79-2.1,2.84,2.84,0,0,1,2.13-.79,3,3,0,0,1,2.18.79,2.78,2.78,0,0,1,.81,2.1V432.4h7.37q2.79,0,2.79,2.4a2.23,2.23,0,0,1-.68,1.8,3.24,3.24,0,0,1-2.11.58H711.5A2.73,2.73,0,0,1,709.48,436.47Z"/><path class="cls-1" d="M732.64,436.47a2.73,2.73,0,0,1-.71-2V417.29a2.47,2.47,0,0,1,2.73-2.73h11.1a3.29,3.29,0,0,1,2.09.58,2.05,2.05,0,0,1,.7,1.67q0,2.31-2.79,2.31h-8.08v4.3h7.44c1.86,0,2.79.76,2.79,2.27a2,2,0,0,1-.71,1.67,3.18,3.18,0,0,1-2.08.58h-7.44v4.68h8.08q2.79,0,2.79,2.31a2.05,2.05,0,0,1-.7,1.67,3.23,3.23,0,0,1-2.09.58h-11.1A2.73,2.73,0,0,1,732.64,436.47Z"/><path class="cls-1" d="M637.5,331a6.54,6.54,0,0,1-3.23-.86L616.5,320l-17.77,10.15A6.5,6.5,0,0,1,589,324.5v-68a6.5,6.5,0,0,1,6.5-6.5h42a6.5,6.5,0,0,1,6.5,6.5v68a6.51,6.51,0,0,1-6.5,6.5Zm-21-25a6.54,6.54,0,0,1,3.23.86L631,313.3V263H602v50.3l11.27-6.44A6.54,6.54,0,0,1,616.5,306Z"/><path class="cls-2" d="M886,44.5a150.51,150.51,0,0,0-125.21,234l-12,44.65,42.31-11.34A150.5,150.5,0,1,0,886,44.5Z"/><path class="cls-1" d="M886,352a157.34,157.34,0,0,1-96.34-33l-39.15,10.49a6.5,6.5,0,0,1-8-8l11.21-41.84A156.27,156.27,0,0,1,729,195c0-86.57,70.43-157,157-157s157,70.43,157,157S972.57,352,886,352Zm-94.86-46.67a6.53,6.53,0,0,1,4.1,1.46A144.29,144.29,0,0,0,886,339c79.4,0,144-64.6,144-144S965.4,51,886,51,742,115.6,742,195a143.29,143.29,0,0,0,24.2,79.91,6.49,6.49,0,0,1,.87,5.3L758,314l31.44-8.43A6.86,6.86,0,0,1,791.14,305.33Z"/><path class="cls-1" d="M777.44,300.61a99.6,99.6,0,0,1-18.36-1.68,5,5,0,0,1,1.84-9.83c27.5,5.17,59-3,88.58-23.1l.56-.38c13-8.83,26.5-18,42.81-19.66,12.69-1.33,20.36,6.67,22.33,15.19,2,8.67-1.5,16.77-8.32,19.25a5,5,0,0,1-6-2.1c-1.5-2.46-3.16-3.11-5.39-2.09-3,1.37-5.09,5-4.31,7.38,1.22,3.77,10.93,8.64,39.66,3,10.8-2.12,21.64-5.86,32.13-9.48,16.61-5.74,33.8-11.67,52-11.73h0a5,5,0,0,1,0,10c-16.54.06-32.2,5.46-48.77,11.18-10.81,3.73-22,7.59-33.46,9.84-16.85,3.31-45.89,6.44-51.11-9.75-2.62-8.13,3-16.47,9.67-19.53a13.28,13.28,0,0,1,14,1.38,10.15,10.15,0,0,0,.07-5.1c-.59-2.56-2.88-8.4-11.54-7.5-13.82,1.45-26.23,9.86-38.24,18l-.56.37C829.61,291.55,802.63,300.61,777.44,300.61Z"/><g id="L7rQjX.tif"><path class="cls-1" d="M978.47,91.58a25.08,25.08,0,0,1-12.26,31.48c-1.5.78-1.67,1.52-1.4,3.1,1.27,7.5,2.35,15,3.5,22.56l1.34-1a24.73,24.73,0,0,1,19.18-4.85c3.12.47,4.21,2.14,3.56,5.23A25.3,25.3,0,0,1,968.46,168c-.84,0-1.68.05-2.41.07-1.42,4.7-2.66,9.32-4.2,13.85a91.25,91.25,0,0,1-12,22.85c-1.34,1.91-3.48,2.42-5.17,1.33s-2.1-3.26-.82-5.41c2.52-4.26,5-8.51,7.52-12.79.49-.85.82-1.79,1.35-3-8.26.33-14.46,3.72-18.62,10.6-2.3,3.81-4.14,7.91-6.65,11.56-11.57,16.83-27.71,25.79-48,27-13,.77-24.87-2.7-35.92-9.42a6.32,6.32,0,0,0-3.73-.81,44.61,44.61,0,0,0-28.43,14.52,5.44,5.44,0,0,1-4.77,2.14l-5.41-3.37c-2.51-2.36-5.21-4.54-7.51-7.09-9.25-10.3-12.38-22.41-10.22-36,.68-4.22,2.39-5.28,6.5-4,11.07,3.54,22.14,2.91,33.63.17l-3.19-3.19c-9-8.84-16.11-18.89-20.21-30.91-4.91-14.37-4.55-28.75,0-43.1a85.88,85.88,0,0,1,13.55-26c2.42-3.18,5.38-3.1,7.18.35,5.27,10.11,13.39,17.35,23.42,22.27,9,4.44,18.35,8.45,27.79,12,14.06,5.31,23.18,15.4,29.51,28.54.8,1.65,1.54,3.33,2.43,5.27l2.95-1.55c5.32-2.76,10.86-4.87,16.92-5.06a23.05,23.05,0,0,1,23.32,16.7c1.66,5.35,4.57,9.21,8.56,11.24a87.6,87.6,0,0,0,4.36-31.35c-3.57-.72-7.14-1-10.39-2.17-9.13-3.27-14.49-10-16.4-19.43-.53-2.62.82-4.33,3.59-4.68,7.32-.93,13.83,1.06,20.14,6a66.55,66.55,0,0,0-2.55-7.53c-2.77-5.78-5.77-11.46-8.68-17.17-.23-.44-.54-.83-.8-1.26-1.5-2.49-1.26-4.55.65-5.76s4-.6,5.49,1.84c1.78,2.88,3.48,5.81,5.2,8.73.39.66.74,1.33,1.27,2.28.42-.76.74-1.25,1-1.78A24.89,24.89,0,0,1,974,90.77a12.62,12.62,0,0,1,2.7-.32Zm-71.82,71c.25.79.45,1.47.68,2.13,1,2.94,2,5.88,3,8.83.89,2.71.1,4.74-2.06,5.42s-3.87-.44-4.8-3c-.22-.59-.42-1.2-.62-1.8-3.25-9.34-6-18.88-11.36-27.34-4.81-7.59-10.8-13.72-19.32-17.13s-17.32-6.91-25.82-10.74c-10.55-4.76-20-11.13-27.07-20.55-.73-1-1.44-2-2.24-3.07-1.37,2.2-2.46,4.18-3.79,6-1.12,1.55-.84,2.66.33,4a65.35,65.35,0,0,0,13.85,12.07c3,2,3.83,4,2.46,6s-3.48,2.07-6.31.09-5.44-3.82-8-5.93c-2.36-2-4.51-4.18-7-6.55-.95,3.24-1.76,6.21-2.71,9.14a2,2,0,0,0,.83,2.51,44.06,44.06,0,0,0,14.82,8.44c2.41.75,3.5,2.68,2.84,4.64s-2.5,3-5,2.23a27.24,27.24,0,0,1-5.53-2.08c-3.18-1.76-6.2-3.81-9.82-6.06.06,3.75.22,6.9.1,10A3.68,3.68,0,0,0,807,144c3.28,1,6.55,2.15,9.89,3,3,.73,4.54,2.08,4.24,4.32s-2.2,3.43-5.4,2.94c-2-.3-4-.85-6-1.35-1-.24-1.94-.61-2.9-.92l-.42.42c1.53,3.47,3,7,4.63,10.4a2.22,2.22,0,0,0,1.48,1c3,.51,6.11,1,9.17,1.33,2.26.26,3.74,1.53,3.81,3.49s-1.39,3.61-3.73,3.79c-1.43.11-2.86.06-4.76.09,2.63,2.94,4.94,5.6,7.35,8.16a2.66,2.66,0,0,0,1.84.67c2.4-.06,4.79-.3,7.19-.38a3.31,3.31,0,0,1,3.62,2.9,3.43,3.43,0,0,1-2.13,4c-.54.26-1.13.43-1.92.72.6.5,1,.89,1.44,1.19,8.91,5.78,18.3,10.09,29.26,9.78,2.48-.07,4.05,1.5,4,3.66s-1.51,3.47-3.94,3.55a44.06,44.06,0,0,1-5.51-.1c-9.36-.85-17.77-4.42-25.6-9.41a4.92,4.92,0,0,0-4.52-.57,73.38,73.38,0,0,1-30.4,2.67c-2.48-.31-4.93-.88-7.53-1.36-.83,13.58,3.91,24.34,14.56,32.56,1.88,1.46,2.74,1.1,4.48-.23a105.55,105.55,0,0,1,13.12-8.82c3.54-1.94,7.58-3,11.44-4.41-.65-.74-1.34-1.54-2-2.32-1.88-2.14-2-4.27-.35-5.8s3.83-1.23,5.71.94c5.53,6.37,12.54,10.52,20.26,13.52A54.27,54.27,0,0,0,925.56,196c3.07-6.51,7.32-11.91,13.87-15.2,2-1,4.23-1.76,6.51-2.69-3-3.47-4.59-7.49-6.06-11.65A15.33,15.33,0,0,0,924,156.19C917.61,156.58,912.08,159.34,906.65,162.55Zm66.16-63c-6,2.4-10.2,12-8.65,16.5C970,112.05,972.91,106.65,972.81,99.52Zm-30.88,27c1.89,5.85,8.75,10.86,14.92,10.92C955.18,131.65,948.16,126.52,941.93,126.48Zm26.66,34.07c6.4,0,13.23-4.66,15.27-10.4C978.11,149.69,971.16,154.36,968.59,160.55Z"/><path class="cls-1" d="M929.79,171.88a3.75,3.75,0,0,1-5,1.26,3.62,3.62,0,0,1-1.26-4.8,3.54,3.54,0,0,1,4.9-1.42A3.67,3.67,0,0,1,929.79,171.88Z"/></g></svg>