<svg id="Layer_1" data-name="Layer 1" xmlns="http://www.w3.org/2000/svg" viewBox="0 0 216 216"><defs><style>.cls-1{fill:#4d4d4d;}</style></defs><title>Search</title><path class="cls-1" d="M68.45,167h-.18A2.49,2.49,0,0,1,66,164.32v-.11c0-.24,0-.47,0-.71v-2a2.5,2.5,0,0,1,5,0v2c0,.36,0,.71,0,1.07v.11A2.5,2.5,0,0,1,68.45,167Z"/><path class="cls-1" d="M54.5,180A16.52,16.52,0,0,1,38,163.5v-1.22a2.5,2.5,0,0,1,5,0v1.22A11.51,11.51,0,0,0,54.5,175h.21l.29,0a2.5,2.5,0,0,1,.22,5h-.17Z"/><path class="cls-1" d="M68.45,167h-17a2.5,2.5,0,0,1-2.5-2.5v-77a2.5,2.5,0,0,1,5,0V162H68.45a2.5,2.5,0,0,1,0,5Z"/><path class="cls-1" d="M51.5,90A2.5,2.5,0,0,1,49,87.5v-37A2.5,2.5,0,0,1,51.5,48h26a2.5,2.5,0,0,1,0,5H54V87.5A2.5,2.5,0,0,1,51.5,90Z"/><path class="cls-1" d="M77.5,75.5A2.5,2.5,0,0,1,75,73V50.5a2.5,2.5,0,0,1,5,0V73A2.5,2.5,0,0,1,77.5,75.5Z"/><path class="cls-1" d="M175.5,75.5A2.5,2.5,0,0,1,173,73V38H80V50.5a2.5,2.5,0,0,1-5,0v-15A2.5,2.5,0,0,1,77.5,33h98a2.5,2.5,0,0,1,2.5,2.5V73A2.5,2.5,0,0,1,175.5,75.5Z"/><path class="cls-1" d="M164,49H89a2,2,0,0,1,0-4h75a2,2,0,0,1,0,4Z"/><path class="cls-1" d="M164,57H89a2,2,0,0,1,0-4h75a2,2,0,0,1,0,4Z"/><path class="cls-1" d="M164,66H136a2,2,0,0,1,0-4h28a2,2,0,0,1,0,4Z"/><path class="cls-1" d="M181.5,173a2.5,2.5,0,0,1-1.86-4.17c2-2.21,2.36-3.26,2.36-6.55V76H149.5a2.5,2.5,0,0,1,0-5h35a2.5,2.5,0,0,1,2.5,2.5v88.78c0,4.52-.82,6.74-3.64,9.89A2.48,2.48,0,0,1,181.5,173Z"/><path class="cls-1" d="M129.43,75.5a2.48,2.48,0,0,1-1.23-.32,6.3,6.3,0,0,1-3.2-5.45A4.73,4.73,0,0,0,120.27,65H95.73A4.73,4.73,0,0,0,91,69.73a6.3,6.3,0,0,1-3.2,5.45,2.5,2.5,0,1,1-2.46-4.36A1.25,1.25,0,0,0,86,69.73,9.73,9.73,0,0,1,95.73,60h24.54A9.73,9.73,0,0,1,130,69.73a1.25,1.25,0,0,0,.66,1.09,2.5,2.5,0,0,1-1.23,4.68Z"/><path class="cls-1" d="M55.11,180H55a17.66,17.66,0,0,1-17-17.69,2.5,2.5,0,0,1,5,0A12.68,12.68,0,0,0,55.11,175,11.47,11.47,0,0,0,66,164.39l0-2.93v-74a2.5,2.5,0,0,1,5,0v74l0,3a.66.66,0,0,1,0,.14A16.47,16.47,0,0,1,55.22,180Z"/><path class="cls-1" d="M169.28,180H55.72l-.54,0H55a2.5,2.5,0,1,1,.19-5l.31,0H169.28a5.39,5.39,0,0,0,2.72-.59l.58-.23a2.5,2.5,0,1,1,1.84,4.64l-.55.23A10.19,10.19,0,0,1,169.28,180Z"/><path class="cls-1" d="M68.5,89A2.5,2.5,0,0,1,66,86.5v-13A2.5,2.5,0,0,1,68.5,71H84.73a1.22,1.22,0,0,0,.61-.18,2.5,2.5,0,0,1,2.46,4.36,6.25,6.25,0,0,1-3.07.82H71V86.5A2.5,2.5,0,0,1,68.5,89Z"/><path class="cls-1" d="M149.5,76H131.27a6.25,6.25,0,0,1-3.07-.82,2.5,2.5,0,1,1,2.46-4.36,1.22,1.22,0,0,0,.61.18H149.5a2.5,2.5,0,0,1,0,5Z"/><path class="cls-1" d="M40.5,164.78a2.5,2.5,0,0,1-2.5-2.5V87.5A2.5,2.5,0,0,1,40.5,85h11a2.5,2.5,0,0,1,0,5H43v72.28A2.5,2.5,0,0,1,40.5,164.78Z"/><path class="cls-1" d="M68.5,90A2.5,2.5,0,0,1,66,87.5v-1a2.5,2.5,0,0,1,5,0v1A2.5,2.5,0,0,1,68.5,90Z"/><path class="cls-1" d="M134,166.36a36.51,36.51,0,1,1,36.51-36.51A36.55,36.55,0,0,1,134,166.36Zm0-68a31.51,31.51,0,1,0,31.51,31.51A31.55,31.55,0,0,0,134,98.34Z"/><path class="cls-1" d="M134,156.48a26.63,26.63,0,1,1,26.63-26.63A26.67,26.67,0,0,1,134,156.48Zm0-48.26a21.63,21.63,0,1,0,21.63,21.63A21.65,21.65,0,0,0,134,108.22Z"/><path class="cls-1" d="M183.3,188.5a2.51,2.51,0,0,1-1.77-.73L153,159.19a2.51,2.51,0,0,1,0-3.54l6-6a2.5,2.5,0,0,1,3.54,0l28.58,28.58a2.5,2.5,0,0,1,0,3.53l-6,6A2.51,2.51,0,0,1,183.3,188.5Zm-25.05-31.08,15,15h0l10.06,10.05,2.48-2.47-25.05-25.05Z"/><path class="cls-1" d="M119,78H97a2,2,0,0,1-2-2V69a2,2,0,0,1,2-2h22a2,2,0,0,1,2,2v7A2,2,0,0,1,119,78ZM99,74h18V71H99Z"/></svg>