<svg id="Layer_1" data-name="Layer 1" xmlns="http://www.w3.org/2000/svg" viewBox="0 0 586 216"><defs><style>.cls-1{fill:#666;}.cls-2{font-size:29.78px;font-family:Nunito-Black, Nunito;font-weight:800;}.cls-2,.cls-4{fill:#fcc121;}.cls-3{letter-spacing:-0.01em;}</style></defs><title>sermonwise_video</title><path class="cls-1" d="M112.33,129.33c-2.5-2-6.61-3.61-12.23-4.85A40.82,40.82,0,0,1,94.76,123a6.27,6.27,0,0,1-2.43-1.45,2.78,2.78,0,0,1-.63-1.89,3.72,3.72,0,0,1,1.78-3.27,9.72,9.72,0,0,1,5.41-1.3,14.6,14.6,0,0,1,5,.74,24.75,24.75,0,0,1,4.48,2.32,9.14,9.14,0,0,0,1.78.86,4.79,4.79,0,0,0,1.49.22,3.5,3.5,0,0,0,2.78-1.45,4.92,4.92,0,0,0,1.12-3.18,4.81,4.81,0,0,0-.48-2.22,5.71,5.71,0,0,0-1.53-1.76c-3.87-3-8.83-4.49-14.75-4.49a22.73,22.73,0,0,0-9.19,1.8A15.55,15.55,0,0,0,83.17,113a12.32,12.32,0,0,0-2.38,7.38,11.64,11.64,0,0,0,1.68,6.34,12.58,12.58,0,0,0,5.26,4.37A39.94,39.94,0,0,0,97,134a24.7,24.7,0,0,1,6.79,2.1,2.69,2.69,0,0,1,1.59,2.36,3.52,3.52,0,0,1-1.76,3.17,11,11,0,0,1-5.73,1.22,20.71,20.71,0,0,1-5.7-.74,19.81,19.81,0,0,1-5.11-2.32,8.44,8.44,0,0,0-1.71-.83,4.91,4.91,0,0,0-1.56-.26A3.53,3.53,0,0,0,81,140.11a5.31,5.31,0,0,0-.64,5.47,5,5,0,0,0,1.52,1.69,19.59,19.59,0,0,0,7.05,3.34,34.89,34.89,0,0,0,9.17,1.16,24.43,24.43,0,0,0,9.42-1.71,14.83,14.83,0,0,0,6.43-4.9,12.29,12.29,0,0,0,2.31-7.35A10.26,10.26,0,0,0,112.33,129.33Z"/><path class="cls-1" d="M150.21,115.63c4.61,0,5.3-2.83,5.3-4.51s-.69-4.45-5.3-4.45H128.63a4.82,4.82,0,0,0-5.24,5.24V146a4.82,4.82,0,0,0,5.24,5.24h21.58c4.61,0,5.3-2.79,5.3-4.45s-.69-4.51-5.3-4.51h-16v-9.2H149c4.61,0,5.3-2.79,5.3-4.45s-.69-4.51-5.3-4.51H134.24v-8.47Z"/><path class="cls-1" d="M193.46,137a13.1,13.1,0,0,0-3-3.27,9.1,9.1,0,0,0-1.11-.71,13,13,0,0,0,5.73-3.9,13.26,13.26,0,0,0,2.93-8.74c0-4.41-1.4-7.84-4.15-10.2s-6.74-3.51-11.94-3.51h-15.3a4.82,4.82,0,0,0-5.24,5.24V146a5.2,5.2,0,0,0,5.54,5.54,5.31,5.31,0,0,0,3.95-1.51,5.56,5.56,0,0,0,1.48-4V134.52h4.14a4.84,4.84,0,0,1,2.52.59,6.54,6.54,0,0,1,1.94,2l8,11.92a5.45,5.45,0,0,0,2.15,2,5.85,5.85,0,0,0,6.3-.63,4.21,4.21,0,0,0,1.67-3.43,5.46,5.46,0,0,0-1-3.06Zm-6-16.38a4.57,4.57,0,0,1-1.52,3.86h0c-1.07.84-2.9,1.26-5.43,1.26h-8.28V115.51h8.28c2.53,0,4.36.41,5.43,1.23A4.57,4.57,0,0,1,187.5,120.62Z"/><path class="cls-1" d="M248.81,107.92a5.12,5.12,0,0,0-3.84-1.56c-2.14,0-3.85,1.19-5.09,3.54L228.27,132l-11.66-22.11c-1.15-2.35-2.89-3.55-5.16-3.55a5.08,5.08,0,0,0-3.83,1.56,5.46,5.46,0,0,0-1.47,3.93v34.61a5.06,5.06,0,0,0,1.39,3.73,4.78,4.78,0,0,0,3.55,1.39,4.86,4.86,0,0,0,3.61-1.42,5.11,5.11,0,0,0,1.38-3.7V128.39l7.17,13.21a7.37,7.37,0,0,0,2.13,2.59,4.79,4.79,0,0,0,2.83.87,4.73,4.73,0,0,0,2.87-.88,7.51,7.51,0,0,0,2.1-2.58l7.16-13.47v18.33a5.06,5.06,0,0,0,1.39,3.73,4.78,4.78,0,0,0,3.55,1.39,4.85,4.85,0,0,0,3.6-1.39,5,5,0,0,0,1.39-3.73V111.85a5.49,5.49,0,0,0-1.46-3.93Z"/><path class="cls-1" d="M291.28,108.9a25.24,25.24,0,0,0-23,0,19,19,0,0,0-7.59,8,28.65,28.65,0,0,0,0,24.07,19.21,19.21,0,0,0,7.59,8h0a24.94,24.94,0,0,0,23,0,19.28,19.28,0,0,0,7.59-8,28.65,28.65,0,0,0,0-24.07A19,19,0,0,0,291.28,108.9Zm-11.51,33.91a9.35,9.35,0,0,1-7.79-3.49c-1.91-2.36-2.88-5.86-2.88-10.41s1-8,2.85-10.38a9.39,9.39,0,0,1,7.82-3.45,9.49,9.49,0,0,1,7.85,3.45c1.91,2.35,2.87,5.84,2.87,10.38s-1,8.05-2.9,10.41A9.45,9.45,0,0,1,279.77,142.81Z"/><path class="cls-1" d="M346.5,107.92h0a5.12,5.12,0,0,0-3.84-1.56,4.92,4.92,0,0,0-3.75,1.57,5.55,5.55,0,0,0-1.43,3.92v20.56l-19-24.15a4.91,4.91,0,0,0-4.11-1.9,5.08,5.08,0,0,0-3.83,1.56,5.46,5.46,0,0,0-1.47,3.93V146a5.63,5.63,0,0,0,1.43,4,5,5,0,0,0,3.81,1.56,4.87,4.87,0,0,0,3.79-1.57,5.72,5.72,0,0,0,1.39-4V125.37l19,24.35a5.17,5.17,0,0,0,4.14,1.86A5.11,5.11,0,0,0,346.5,150a5.59,5.59,0,0,0,1.46-4V111.85A5.49,5.49,0,0,0,346.5,107.92Z"/><path class="cls-1" d="M414.39,107.49a2.45,2.45,0,0,1,1.34-.4,2.6,2.6,0,0,1,1.68.58,2,2,0,0,1,.7,1.56,3.14,3.14,0,0,1-.18,1L404.15,149a2.46,2.46,0,0,1-1,1.31,3,3,0,0,1-1.65.46,2.86,2.86,0,0,1-1.58-.46,2.43,2.43,0,0,1-1-1.31l-11.94-33.76L374.84,149a2.48,2.48,0,0,1-1,1.31,2.86,2.86,0,0,1-1.58.46,2.91,2.91,0,0,1-1.59-.46,2.46,2.46,0,0,1-1-1.31L355.76,110.2a2.62,2.62,0,0,1-.18-.91,1.94,1.94,0,0,1,.76-1.59,2.75,2.75,0,0,1,1.74-.61,2.6,2.6,0,0,1,1.37.4,2,2,0,0,1,.88,1.19l12,34.62,12.19-34.25a2.63,2.63,0,0,1,1-1.38,2.6,2.6,0,0,1,1.47-.45,2.48,2.48,0,0,1,1.46.48,2.74,2.74,0,0,1,1,1.41l12,34.31,12.13-34.74A2.07,2.07,0,0,1,414.39,107.49Z"/><path class="cls-1" d="M428.29,150a2.58,2.58,0,0,1-.68-1.86V109.72a2.55,2.55,0,0,1,.68-1.86,2.37,2.37,0,0,1,1.82-.7,2.41,2.41,0,0,1,1.83.7,2.54,2.54,0,0,1,.67,1.86v38.45a2.57,2.57,0,0,1-.67,1.86,2.41,2.41,0,0,1-1.83.7A2.37,2.37,0,0,1,428.29,150Z"/><path class="cls-1" d="M450.07,149.54a17.7,17.7,0,0,1-6.67-3.69,2.78,2.78,0,0,1-.92-2.13,2.42,2.42,0,0,1,.49-1.49,1.42,1.42,0,0,1,1.16-.64,2.93,2.93,0,0,1,1.71.67,20.57,20.57,0,0,0,12.92,4.39q5.24,0,8-2a6.62,6.62,0,0,0,2.8-5.73,4.6,4.6,0,0,0-1.34-3.45,9.71,9.71,0,0,0-3.53-2.1,52.8,52.8,0,0,0-5.91-1.64,59.1,59.1,0,0,1-8.2-2.44,12.8,12.8,0,0,1-5.18-3.66,9.36,9.36,0,0,1-2-6.21,11,11,0,0,1,2-6.49,12.77,12.77,0,0,1,5.55-4.39,20.05,20.05,0,0,1,8.13-1.56,23.69,23.69,0,0,1,8,1.31,17,17,0,0,1,6.18,3.75,3,3,0,0,1,1,2.13,2.45,2.45,0,0,1-.49,1.5,1.45,1.45,0,0,1-1.16.64,3.78,3.78,0,0,1-1.77-.67,20.7,20.7,0,0,0-5.54-3.42,17.35,17.35,0,0,0-6.16-1q-5.06,0-7.86,2.1a6.92,6.92,0,0,0-2.8,5.88,5.4,5.4,0,0,0,2.47,4.85,24.93,24.93,0,0,0,7.58,2.83c3.7.9,6.6,1.72,8.72,2.47a13.06,13.06,0,0,1,5.27,3.38,8.53,8.53,0,0,1,2.1,6,10.52,10.52,0,0,1-2,6.33,12.89,12.89,0,0,1-5.58,4.27,20.81,20.81,0,0,1-8.22,1.52A27.68,27.68,0,0,1,450.07,149.54Z"/><path class="cls-1" d="M485.3,149.75a2.3,2.3,0,0,1-.7-1.76V109.9a2.34,2.34,0,0,1,.7-1.77,2.54,2.54,0,0,1,1.86-.67H510a2.42,2.42,0,0,1,1.7.55,1.92,1.92,0,0,1,.61,1.52,2,2,0,0,1-.61,1.53,2.46,2.46,0,0,1-1.7.54H489.53v14.94h19.2a2.51,2.51,0,0,1,1.71.54,2,2,0,0,1,.6,1.53,1.94,1.94,0,0,1-.6,1.52,2.46,2.46,0,0,1-1.71.55h-19.2v15.6H510a2.51,2.51,0,0,1,1.7.52,1.9,1.9,0,0,1,.61,1.55,2,2,0,0,1-.61,1.53,2.46,2.46,0,0,1-1.7.55H487.16A2.55,2.55,0,0,1,485.3,149.75Z"/><text class="cls-2" transform="translate(142.32 90.38)">Hello and <tspan class="cls-3" x="143.73" y="0">w</tspan><tspan x="169.36" y="0">elcome to</tspan></text><path class="cls-4" d="M37.15,168.77a3,3,0,0,1-1.93-5.3l12.71-10.66a3,3,0,1,1,3.86,4.6L39.08,168.07A3,3,0,0,1,37.15,168.77Z"/><path class="cls-4" d="M47.57,113.7H35a3,3,0,0,1,0-6h12.6a3,3,0,1,1,0,6Z"/><path class="cls-4" d="M49.43,64.74a3,3,0,0,1-2-.77,71.28,71.28,0,0,1-10-11.22,3,3,0,1,1,4.86-3.5,66.41,66.41,0,0,0,9.12,10.27,3,3,0,0,1-2,5.22Z"/><path class="cls-4" d="M542.21,64.66a3,3,0,0,1-1.93-5.3L553,48.7a3,3,0,1,1,3.86,4.6L544.14,64A3,3,0,0,1,542.21,64.66Z"/><path class="cls-4" d="M557.1,109.07H544.5a3,3,0,0,1,0-6h12.6a3,3,0,0,1,0,6Z"/><path class="cls-4" d="M552.18,168.77a3,3,0,0,1-2.43-1.25,66.41,66.41,0,0,0-9.12-10.27,3,3,0,1,1,4-4.45,71.64,71.64,0,0,1,10,11.21,3,3,0,0,1-2.43,4.76Z"/></svg>