<svg id="Layer_1" data-name="Layer 1" xmlns="http://www.w3.org/2000/svg" xmlns:xlink="http://www.w3.org/1999/xlink" viewBox="0 0 216 216"><defs><style>.cls-1{fill:none;}.cls-2{fill:#4d4d4d;}.cls-3{clip-path:url(#clip-path);}</style><clipPath id="clip-path"><path class="cls-1" d="M75.42,26h76.66A8.92,8.92,0,0,1,161,35V49.38a8.92,8.92,0,0,1-8.92,8.92h-3.3L133.5,75.5,137,58.3H75.42a8.92,8.92,0,0,1-8.92-8.92V35A8.92,8.92,0,0,1,75.42,26Z"/></clipPath></defs><title>sermon</title><path class="cls-2" d="M148.65,157.64H143.6a2.5,2.5,0,0,1,0-5h5.05a2.41,2.41,0,0,0,2.32-1.71l16-50.66a2.46,2.46,0,0,0-.36-2.18,2.43,2.43,0,0,0-2-1H55.89a2.43,2.43,0,0,0-2,1,2.46,2.46,0,0,0-.36,2.18l16,50.66a2.41,2.41,0,0,0,2.32,1.71h6.33a2.5,2.5,0,0,1,0,5H71.85a7.41,7.41,0,0,1-7.09-5.2l-16-50.67a7.44,7.44,0,0,1,7.1-9.67H164.61a7.44,7.44,0,0,1,7.1,9.67l-16,50.67A7.41,7.41,0,0,1,148.65,157.64Z"/><path class="cls-2" d="M124.22,191H96.44a12.79,12.79,0,0,1-12.78-12.78V128.84a12.8,12.8,0,0,1,12.78-12.78h27.78A12.8,12.8,0,0,1,137,128.84v49.38A12.79,12.79,0,0,1,124.22,191ZM96.44,121.06a7.79,7.79,0,0,0-7.78,7.78v49.38A7.79,7.79,0,0,0,96.44,186h27.78a7.79,7.79,0,0,0,7.78-7.78V128.84a7.79,7.79,0,0,0-7.78-7.78Z"/><path class="cls-2" d="M71.86,97.1a2.5,2.5,0,0,1-2.5-2.5A23.34,23.34,0,0,1,92.67,71.28a2.5,2.5,0,0,1,0,5A18.33,18.33,0,0,0,74.36,94.6,2.5,2.5,0,0,1,71.86,97.1Z"/><path class="cls-2" d="M97.87,80.07a6.29,6.29,0,1,1,6.29-6.29A6.29,6.29,0,0,1,97.87,80.07Zm0-7.57a1.29,1.29,0,1,0,1.29,1.28A1.29,1.29,0,0,0,97.87,72.5Z"/><path class="cls-2" d="M133.5,78a2.62,2.62,0,0,1-1.12-.26A2.52,2.52,0,0,1,131.05,75l2.87-14.2H75.42A11.44,11.44,0,0,1,64,49.38V35A11.43,11.43,0,0,1,75.42,23.54h76.66A11.43,11.43,0,0,1,163.5,35V49.38A11.44,11.44,0,0,1,152.08,60.8H149.9L135.37,77.16A2.49,2.49,0,0,1,133.5,78ZM75.42,28.54A6.43,6.43,0,0,0,69,35V49.38a6.43,6.43,0,0,0,6.42,6.42H137a2.48,2.48,0,0,1,2.45,3l-1.64,8.12,9.12-10.27a2.5,2.5,0,0,1,1.87-.84h3.3a6.43,6.43,0,0,0,6.42-6.42V35a6.43,6.43,0,0,0-6.42-6.42Z"/><g class="cls-3"><path class="cls-2" d="M56.5,72.5a1,1,0,0,1-.33-.06,1,1,0,0,1-.61-1.27l20-57a1,1,0,0,1,1.88.66l-20,57A1,1,0,0,1,56.5,72.5Z"/><path class="cls-2" d="M61.78,72.5a1,1,0,0,1-.33-.06,1,1,0,0,1-.62-1.27l20-57a1,1,0,0,1,1.89.66l-20,57A1,1,0,0,1,61.78,72.5Z"/><path class="cls-2" d="M67.06,72.5a1,1,0,0,1-.34-.06,1,1,0,0,1-.61-1.27l20-57a1,1,0,0,1,1.89.66l-20,57A1,1,0,0,1,67.06,72.5Z"/><path class="cls-2" d="M72.33,72.5a1,1,0,0,1-.33-.06,1,1,0,0,1-.61-1.27l20-57a1,1,0,0,1,1.89.66l-20,57A1,1,0,0,1,72.33,72.5Z"/><path class="cls-2" d="M77.61,72.5a1,1,0,0,1-.33-.06,1,1,0,0,1-.61-1.27l20-57a1,1,0,0,1,1.88.66l-20,57A1,1,0,0,1,77.61,72.5Z"/><path class="cls-2" d="M82.89,72.5a1,1,0,0,1-.33-.06A1,1,0,0,1,82,71.17l20-57a1,1,0,0,1,1.88.66l-20,57A1,1,0,0,1,82.89,72.5Z"/><path class="cls-2" d="M88.17,72.5a1,1,0,0,1-.33-.06,1,1,0,0,1-.62-1.27l20-57a1,1,0,0,1,1.89.66l-20,57A1,1,0,0,1,88.17,72.5Z"/><path class="cls-2" d="M93.44,72.5a1,1,0,0,1-.33-.06,1,1,0,0,1-.61-1.27l20-57a1,1,0,0,1,1.89.66l-20,57A1,1,0,0,1,93.44,72.5Z"/><path class="cls-2" d="M98.72,72.5a1,1,0,0,1-.33-.06,1,1,0,0,1-.61-1.27l20-57a1,1,0,0,1,1.89.66l-20,57A1,1,0,0,1,98.72,72.5Z"/><path class="cls-2" d="M104,72.5a1,1,0,0,1-.33-.06,1,1,0,0,1-.61-1.27l20-57a1,1,0,1,1,1.88.66l-20,57A1,1,0,0,1,104,72.5Z"/><path class="cls-2" d="M109.28,72.5a1,1,0,0,1-.33-.06,1,1,0,0,1-.62-1.27l20-57a1,1,0,0,1,1.89.66l-20,57A1,1,0,0,1,109.28,72.5Z"/><path class="cls-2" d="M114.56,72.5a1,1,0,0,1-.34-.06,1,1,0,0,1-.61-1.27l20-57a1,1,0,0,1,1.89.66l-20,57A1,1,0,0,1,114.56,72.5Z"/><path class="cls-2" d="M119.83,72.5a1,1,0,0,1-.33-.06,1,1,0,0,1-.61-1.27l20-57a1,1,0,0,1,1.89.66l-20,57A1,1,0,0,1,119.83,72.5Z"/><path class="cls-2" d="M125.11,72.5a1,1,0,0,1-.33-.06,1,1,0,0,1-.61-1.27l20-57a1,1,0,1,1,1.88.66l-20,57A1,1,0,0,1,125.11,72.5Z"/><path class="cls-2" d="M130.39,72.5a1,1,0,0,1-.33-.06,1,1,0,0,1-.61-1.27l20-57a1,1,0,1,1,1.88.66l-20,57A1,1,0,0,1,130.39,72.5Z"/><path class="cls-2" d="M135.67,72.5a1,1,0,0,1-.33-.06,1,1,0,0,1-.62-1.27l20-57a1,1,0,0,1,1.89.66l-20,57A1,1,0,0,1,135.67,72.5Z"/><path class="cls-2" d="M140.94,72.5a1,1,0,0,1-.33-.06,1,1,0,0,1-.61-1.27l20-57a1,1,0,0,1,1.89.66l-20,57A1,1,0,0,1,140.94,72.5Z"/><path class="cls-2" d="M146.22,72.5a1,1,0,0,1-.33-.06,1,1,0,0,1-.61-1.27l20-57a1,1,0,0,1,1.89.66l-20,57A1,1,0,0,1,146.22,72.5Z"/><path class="cls-2" d="M151.5,72.5a1,1,0,0,1-.33-.06,1,1,0,0,1-.61-1.27l20-57a1,1,0,1,1,1.88.66l-20,57A1,1,0,0,1,151.5,72.5Z"/></g><path class="cls-2" d="M118,142H102a2,2,0,0,1,0-4h16a2,2,0,0,1,0,4Z"/><path class="cls-2" d="M110,159a2,2,0,0,1-2-2V132a2,2,0,0,1,4,0v25A2,2,0,0,1,110,159Z"/></svg>