<svg id="Layer_1" data-name="Layer 1" xmlns="http://www.w3.org/2000/svg" viewBox="0 0 216 216"><defs><style>.cls-1{fill:#666;}</style></defs><title>trending</title><path class="cls-1" d="M133.07,166.5H53.57a4,4,0,0,1-4-4V83a4,4,0,0,1,4-4H119.7a4,4,0,0,1,0,8H57.57v71.5h71.54l.32-32.38a4,4,0,0,1,4-4h0a4,4,0,0,1,4,4l-.36,36.34A4,4,0,0,1,133.07,166.5Z"/><path class="cls-1" d="M111,128a4,4,0,0,1-2.83-6.83L152.84,76.5H140.65a4,4,0,0,1,0-8h21.87a4,4,0,0,1,2.6,1,3.78,3.78,0,0,1,.55.58,3.94,3.94,0,0,1,.82,2.15c0,.11,0,.21,0,.32V94.35a4,4,0,1,1-8,0V82.16l-44.67,44.67A4,4,0,0,1,111,128Z"/><path class="cls-1" d="M36,159a4,4,0,0,1-2.83-6.83l53-53a4,4,0,0,1,5.66,0l22,22a4,4,0,0,1-5.66,5.66L89,107.66,38.83,157.83A4,4,0,0,1,36,159Z"/></svg>