<svg id="Layer_1" data-name="Layer 1" xmlns="http://www.w3.org/2000/svg" viewBox="0 0 216 216"><defs><style>.cls-1{fill:none;stroke:#4d4d4d;stroke-linecap:round;stroke-linejoin:round;stroke-width:5px;}</style></defs><title>Artboard 1</title><polygon class="cls-1" points="95.49 113.69 89.36 150.44 99.5 151.03 99.18 187.16 121.66 138.58 111.53 137.99 121.21 110.93 95.49 113.69"/><path class="cls-1" d="M174.55,76.24a22,22,0,0,0-20-26.44,25.49,25.49,0,0,0-44.77-5.72,31.72,31.72,0,0,0-49.11,9.74,18.9,18.9,0,0,0-3.75.1,18.7,18.7,0,0,0-16.29,18.2A23.77,23.77,0,0,0,47.83,119,17.55,17.55,0,0,0,64.05,131.6l51.39-6.43a27.56,27.56,0,0,1,20.82,5.6,17.54,17.54,0,0,0,28.48-11.57,22,22,0,0,0,10.93.49,22.09,22.09,0,0,0-1.12-43.45Z"/><path class="cls-1" d="M67.16,80.63a30.53,30.53,0,0,0-26.5-8.32"/><path class="cls-1" d="M110.42,42.73a27.29,27.29,0,0,0-3.73,12.14"/><path class="cls-1" d="M146.71,71.45a22.22,22.22,0,0,0,7.51-21.58"/><path class="cls-1" d="M103.51,84.73A22.21,22.21,0,0,0,124,60.85"/><path class="cls-1" d="M118.49,78.06a16.84,16.84,0,0,0,21.2,10.88"/><path class="cls-1" d="M82.66,109.13a22.22,22.22,0,0,0,20.43-23.88"/><path class="cls-1" d="M45.61,100A13.57,13.57,0,0,0,60.2,112.44"/><path class="cls-1" d="M174.56,76.13a17.83,17.83,0,0,0-7.68,1.31"/><path class="cls-1" d="M151.49,102.08a17.75,17.75,0,0,0,14.3,17.28"/><path class="cls-1" d="M131.58,119.4a15.92,15.92,0,0,0,4.74,11.25"/><path class="cls-1" d="M60.79,74.89a10.58,10.58,0,0,0,10.47-10.7"/><path class="cls-1" d="M82.32,109.25l-22.56,3.28a13.58,13.58,0,0,0-11.35,8"/><polyline class="cls-1" points="86.33 175.99 85.82 161.28 80.13 163.59 79.16 153.88"/><polyline class="cls-1" points="120.23 173.81 128.14 161.4 122.15 160.08 126.85 151.53"/></svg>