<svg id="Layer_1" data-name="Layer 1" xmlns="http://www.w3.org/2000/svg" viewBox="0 0 216 216"><defs><style>.cls-1{fill:none;stroke-linecap:round;stroke-linejoin:round;stroke-width:4px;}.cls-1,.cls-2{stroke:#4d4d4d;}.cls-2{fill:#4d4d4d;stroke-miterlimit:10;stroke-width:2px;}</style></defs><title>Artboard 3</title><polygon class="cls-1" points="177.03 177 118.97 177 118.97 64.38 148 40 177.03 64.38 177.03 177"/><line class="cls-1" x1="138" y1="78.19" x2="158" y2="78.19"/><line class="cls-1" x1="148" y1="67.56" x2="148" y2="99.44"/><polygon class="cls-1" points="119 125 47 125 64.19 102 119 102 119 125"/><rect class="cls-1" x="47" y="125" width="72" height="52"/><path class="cls-1" d="M101.14,75.66a28,28,0,1,0-10.9,9.46L104.72,89Z"/><path class="cls-2" d="M77.46,67.22a1.27,1.27,0,0,1-1.29-1.29c0-5.25,2.46-7.07,4.4-8.52,1.77-1.29,3.15-2.3,3.15-5.78,0-2.38-1.78-4.92-5.66-4.92a5.42,5.42,0,0,0-5.65,5.41,1.3,1.3,0,0,1-2.59,0,8.08,8.08,0,0,1,2-5.29,7.77,7.77,0,0,1,6.22-2.71c5.42,0,8.24,3.76,8.24,7.51,0,4.77-2.22,6.43-4.2,7.88S78.75,62,78.75,65.93A1.3,1.3,0,0,1,77.46,67.22Zm0,4.51a1.64,1.64,0,1,1,0,3.27,1.64,1.64,0,1,1,0-3.27Z"/><line class="cls-1" x1="54" y1="125" x2="71.19" y2="102"/><line class="cls-1" x1="61" y1="125" x2="78.19" y2="102"/><line class="cls-1" x1="68" y1="125" x2="85.19" y2="102"/><line class="cls-1" x1="75" y1="125" x2="92.19" y2="102"/><line class="cls-1" x1="82" y1="125" x2="99.19" y2="102"/><line class="cls-1" x1="89" y1="125" x2="106.19" y2="102"/><line class="cls-1" x1="96" y1="125" x2="113.19" y2="102"/><line class="cls-1" x1="103" y1="125" x2="118" y2="105"/><line class="cls-1" x1="110" y1="125" x2="118" y2="115"/></svg>