<svg id="Layer_1" data-name="Layer 1" xmlns="http://www.w3.org/2000/svg" viewBox="0 0 216 216"><defs><style>.cls-1,.cls-2{fill:none;stroke:#4d4d4d;stroke-linecap:round;stroke-linejoin:round;}.cls-1{stroke-width:5px;}.cls-2{stroke-width:4px;}</style></defs><title>Artboard 2</title><path class="cls-1" d="M68.5,161.5v2c0,.34,0,.67,0,1"/><path class="cls-1" d="M55.11,177.47c-.2,0-.4,0-.61,0a14,14,0,0,1-14-14v-1.22"/><polyline class="cls-1" points="51.5 87.5 51.5 164.5 68.45 164.5"/><polyline class="cls-1" points="51.5 87.5 51.5 50.5 77.5 50.5"/><line class="cls-1" x1="77.5" y1="50.5" x2="77.5" y2="73"/><polyline class="cls-1" points="175.5 73 175.5 35.5 77.5 35.5 77.5 50.5"/><line class="cls-2" x1="89" y1="47" x2="164" y2="47"/><polyline class="cls-2" points="89 55 149.5 55 164 55"/><line class="cls-2" x1="164" y1="64" x2="136" y2="64"/><path class="cls-1" d="M181.5,170.5c2.42-2.69,3-4.32,3-8.22V73.5h-35"/><path class="cls-1" d="M129.43,73a3.75,3.75,0,0,1-1.93-3.27,7.23,7.23,0,0,0-7.23-7.23H95.73a7.23,7.23,0,0,0-7.23,7.23A3.75,3.75,0,0,1,86.57,73"/><path class="cls-1" d="M40.5,162.28a15.21,15.21,0,0,0,14.61,15.19,14,14,0,0,0,13.34-13l0-3v-74"/><path class="cls-1" d="M173.5,176.5a8.76,8.76,0,0,1-4.22,1H55.72l-.61,0"/><path class="cls-1" d="M68.5,86.5v-13H84.73a3.73,3.73,0,0,0,1.84-.5"/><path class="cls-1" d="M129.43,73a3.73,3.73,0,0,0,1.84.5H149.5"/><polyline class="cls-1" points="40.5 162.28 40.5 87.5 51.5 87.5"/><line class="cls-1" x1="68.5" y1="86.5" x2="68.5" y2="87.5"/><circle class="cls-1" cx="134.01" cy="129.85" r="34.01" transform="translate(-26.25 34.26) rotate(-13.28)"/><circle class="cls-1" cx="134.01" cy="129.85" r="24.13" transform="translate(-26.25 34.26) rotate(-13.28)"/><polygon class="cls-1" points="171.47 174.18 183.3 186 189.31 179.99 178.56 169.23 160.73 151.41 154.72 157.42 171.47 174.18"/><polygon class="cls-2" points="119 73 119 76 97 76 97 73 97 69 119 69 119 73"/></svg>