<svg id="Layer_1" data-name="Layer 1" xmlns="http://www.w3.org/2000/svg" xmlns:xlink="http://www.w3.org/1999/xlink" viewBox="0 0 216 216"><defs><style>.cls-1{fill:none;}.cls-2{fill:#4d4d4d;}.cls-3{clip-path:url(#clip-path);}</style><clipPath id="clip-path"><polygon class="cls-1" points="174 119.82 166.77 115.68 159.53 119.82 159.53 43 174 43 174 119.82"/></clipPath></defs><title>book</title><path class="cls-2" d="M111,175.5h-.9a2.52,2.52,0,0,1-1.9-.87,81.17,81.17,0,0,0-61.65-28.35H32.39a2.5,2.5,0,0,1-2.5-2.5V43.31a2.5,2.5,0,0,1,2.5-2.5H71.24a61.4,61.4,0,0,1,39.33,14.28,61.35,61.35,0,0,1,39.32-14.28h38.85a2.5,2.5,0,0,1,2.5,2.5V143.78a2.5,2.5,0,0,1-2.5,2.5H174.56a81.17,81.17,0,0,0-61.65,28.35A2.5,2.5,0,0,1,111,175.5ZM34.89,141.28H46.57a86.17,86.17,0,0,1,64,28.45,86.14,86.14,0,0,1,64-28.45h11.68V45.81H149.89a56.46,56.46,0,0,0-37.66,14.44,2.49,2.49,0,0,1-3.33,0A56.46,56.46,0,0,0,71.24,45.81H34.89Z"/><path class="cls-2" d="M111.05,177.5h-1a2.5,2.5,0,0,1-1.83-.8c-11.51-12.42-27.57-11.08-46.17-9.54-6.64.55-13.5,1.12-20.63,1.12H26.13a2.5,2.5,0,0,1-2.5-2.5V65.31a2.5,2.5,0,0,1,2.5-2.5h6.26a2.5,2.5,0,0,1,0,5H28.63v95.47H41.45c6.92,0,13.68-.56,20.22-1.1,18.42-1.53,35.86-3,48.89,9.73,13.61-13.34,32.07-12.33,51.57-11.26,5.69.31,11.57.63,17.56.63H192.5V65.81h-3.76a2.5,2.5,0,0,1,0-5H195a2.5,2.5,0,0,1,2.5,2.5V163.78a2.5,2.5,0,0,1-2.5,2.5H179.69c-6.13,0-12.08-.33-17.84-.64-19.76-1.09-36.84-2-49,11.06A2.48,2.48,0,0,1,111.05,177.5Z"/><path class="cls-2" d="M111,175.5a2.5,2.5,0,0,1-2.5-2.5V58a2.5,2.5,0,0,1,5,0V173A2.5,2.5,0,0,1,111,175.5Z"/><path class="cls-2" d="M174,121.82a2,2,0,0,1-1-.27L166.77,118l-6.25,3.56a2,2,0,0,1-2,0,2,2,0,0,1-1-1.73V43a2,2,0,0,1,2-2H174a2,2,0,0,1,2,2v76.82a2,2,0,0,1-1,1.73A2,2,0,0,1,174,121.82Zm-7.23-8.14a2,2,0,0,1,1,.27l4.24,2.42V45H161.53v71.37l4.24-2.42A2,2,0,0,1,166.77,113.68Z"/><g class="cls-3"><path class="cls-2" d="M151.74,60.26a1,1,0,0,1-.7-.3,1,1,0,0,1,0-1.41l26.25-26.26a1,1,0,1,1,1.42,1.42L152.45,60A1,1,0,0,1,151.74,60.26Z"/><path class="cls-2" d="M151.74,66.17a1,1,0,0,1-.7-1.71l26.25-26.25a1,1,0,0,1,1.42,0,1,1,0,0,1,0,1.41L152.45,65.88A1,1,0,0,1,151.74,66.17Z"/><path class="cls-2" d="M151.74,72.09a1,1,0,0,1-.7-1.71l26.25-26.25a1,1,0,0,1,1.42,0,1,1,0,0,1,0,1.41L152.45,71.8A1,1,0,0,1,151.74,72.09Z"/><path class="cls-2" d="M151.74,78a1,1,0,0,1-.7-.3,1,1,0,0,1,0-1.41L177.29,50a1,1,0,1,1,1.42,1.42L152.45,77.71A1,1,0,0,1,151.74,78Z"/><path class="cls-2" d="M151.74,83.92a1,1,0,0,1-.7-1.71L177.29,56a1,1,0,0,1,1.42,0,1,1,0,0,1,0,1.41L152.45,83.63A1,1,0,0,1,151.74,83.92Z"/><path class="cls-2" d="M151.74,89.84a1,1,0,0,1-.7-1.71l26.25-26.25a1,1,0,0,1,1.42,0,1,1,0,0,1,0,1.41L152.45,89.55A1,1,0,0,1,151.74,89.84Z"/><path class="cls-2" d="M151.74,95.76a1,1,0,0,1-.7-.3,1,1,0,0,1,0-1.41l26.25-26.26a1,1,0,1,1,1.42,1.42L152.45,95.46A1,1,0,0,1,151.74,95.76Z"/><path class="cls-2" d="M151.74,101.67A1,1,0,0,1,151,100l26.25-26.25a1,1,0,0,1,1.42,0,1,1,0,0,1,0,1.41l-26.26,26.26A1,1,0,0,1,151.74,101.67Z"/><path class="cls-2" d="M151.74,66.17a1,1,0,0,1-.7-1.71l26.25-26.25a1,1,0,0,1,1.42,0,1,1,0,0,1,0,1.41L152.45,65.88A1,1,0,0,1,151.74,66.17Z"/><path class="cls-2" d="M151.74,72.09a1,1,0,0,1-.7-1.71l26.25-26.25a1,1,0,0,1,1.42,0,1,1,0,0,1,0,1.41L152.45,71.8A1,1,0,0,1,151.74,72.09Z"/><path class="cls-2" d="M151.74,78a1,1,0,0,1-.7-.3,1,1,0,0,1,0-1.41L177.29,50a1,1,0,1,1,1.42,1.42L152.45,77.71A1,1,0,0,1,151.74,78Z"/><path class="cls-2" d="M151.74,83.92a1,1,0,0,1-.7-1.71L177.29,56a1,1,0,0,1,1.42,0,1,1,0,0,1,0,1.41L152.45,83.63A1,1,0,0,1,151.74,83.92Z"/><path class="cls-2" d="M151.74,89.84a1,1,0,0,1-.7-1.71l26.25-26.25a1,1,0,0,1,1.42,0,1,1,0,0,1,0,1.41L152.45,89.55A1,1,0,0,1,151.74,89.84Z"/><path class="cls-2" d="M151.74,95.76a1,1,0,0,1-.7-.3,1,1,0,0,1,0-1.41l26.25-26.26a1,1,0,1,1,1.42,1.42L152.45,95.46A1,1,0,0,1,151.74,95.76Z"/><path class="cls-2" d="M151.74,101.67A1,1,0,0,1,151,100l26.25-26.25a1,1,0,0,1,1.42,0,1,1,0,0,1,0,1.41l-26.26,26.26A1,1,0,0,1,151.74,101.67Z"/><path class="cls-2" d="M151.74,107.59a1,1,0,0,1-.7-1.71l26.25-26.25a1,1,0,0,1,1.42,0,1,1,0,0,1,0,1.41L152.45,107.3A1,1,0,0,1,151.74,107.59Z"/><path class="cls-2" d="M151.74,72.09a1,1,0,0,1-.7-1.71l26.25-26.25a1,1,0,0,1,1.42,0,1,1,0,0,1,0,1.41L152.45,71.8A1,1,0,0,1,151.74,72.09Z"/><path class="cls-2" d="M151.74,78a1,1,0,0,1-.7-.3,1,1,0,0,1,0-1.41L177.29,50a1,1,0,1,1,1.42,1.42L152.45,77.71A1,1,0,0,1,151.74,78Z"/><path class="cls-2" d="M151.74,83.92a1,1,0,0,1-.7-1.71L177.29,56a1,1,0,0,1,1.42,0,1,1,0,0,1,0,1.41L152.45,83.63A1,1,0,0,1,151.74,83.92Z"/><path class="cls-2" d="M151.74,89.84a1,1,0,0,1-.7-1.71l26.25-26.25a1,1,0,0,1,1.42,0,1,1,0,0,1,0,1.41L152.45,89.55A1,1,0,0,1,151.74,89.84Z"/><path class="cls-2" d="M151.74,95.76a1,1,0,0,1-.7-.3,1,1,0,0,1,0-1.41l26.25-26.26a1,1,0,1,1,1.42,1.42L152.45,95.46A1,1,0,0,1,151.74,95.76Z"/><path class="cls-2" d="M151.74,101.67A1,1,0,0,1,151,100l26.25-26.25a1,1,0,0,1,1.42,0,1,1,0,0,1,0,1.41l-26.26,26.26A1,1,0,0,1,151.74,101.67Z"/><path class="cls-2" d="M151.74,107.59a1,1,0,0,1-.7-1.71l26.25-26.25a1,1,0,0,1,1.42,0,1,1,0,0,1,0,1.41L152.45,107.3A1,1,0,0,1,151.74,107.59Z"/><path class="cls-2" d="M151.74,113.5a1,1,0,0,1-.7-.29,1,1,0,0,1,0-1.41l26.25-26.26A1,1,0,1,1,178.71,87l-26.26,26.25A1,1,0,0,1,151.74,113.5Z"/><path class="cls-2" d="M151.74,78a1,1,0,0,1-.7-.3,1,1,0,0,1,0-1.41L177.29,50a1,1,0,1,1,1.42,1.42L152.45,77.71A1,1,0,0,1,151.74,78Z"/><path class="cls-2" d="M151.74,83.92a1,1,0,0,1-.7-1.71L177.29,56a1,1,0,0,1,1.42,0,1,1,0,0,1,0,1.41L152.45,83.63A1,1,0,0,1,151.74,83.92Z"/><path class="cls-2" d="M151.74,89.84a1,1,0,0,1-.7-1.71l26.25-26.25a1,1,0,0,1,1.42,0,1,1,0,0,1,0,1.41L152.45,89.55A1,1,0,0,1,151.74,89.84Z"/><path class="cls-2" d="M151.74,95.76a1,1,0,0,1-.7-.3,1,1,0,0,1,0-1.41l26.25-26.26a1,1,0,1,1,1.42,1.42L152.45,95.46A1,1,0,0,1,151.74,95.76Z"/><path class="cls-2" d="M151.74,101.67A1,1,0,0,1,151,100l26.25-26.25a1,1,0,0,1,1.42,0,1,1,0,0,1,0,1.41l-26.26,26.26A1,1,0,0,1,151.74,101.67Z"/><path class="cls-2" d="M151.74,107.59a1,1,0,0,1-.7-1.71l26.25-26.25a1,1,0,0,1,1.42,0,1,1,0,0,1,0,1.41L152.45,107.3A1,1,0,0,1,151.74,107.59Z"/><path class="cls-2" d="M151.74,113.5a1,1,0,0,1-.7-.29,1,1,0,0,1,0-1.41l26.25-26.26A1,1,0,1,1,178.71,87l-26.26,26.25A1,1,0,0,1,151.74,113.5Z"/><path class="cls-2" d="M151.74,119.42a1,1,0,0,1-.7-1.71l26.25-26.25a1,1,0,0,1,1.42,0,1,1,0,0,1,0,1.41l-26.26,26.26A1,1,0,0,1,151.74,119.42Z"/><path class="cls-2" d="M151.74,83.92a1,1,0,0,1-.7-1.71L177.29,56a1,1,0,0,1,1.42,0,1,1,0,0,1,0,1.41L152.45,83.63A1,1,0,0,1,151.74,83.92Z"/><path class="cls-2" d="M151.74,89.84a1,1,0,0,1-.7-1.71l26.25-26.25a1,1,0,0,1,1.42,0,1,1,0,0,1,0,1.41L152.45,89.55A1,1,0,0,1,151.74,89.84Z"/><path class="cls-2" d="M151.74,95.76a1,1,0,0,1-.7-.3,1,1,0,0,1,0-1.41l26.25-26.26a1,1,0,1,1,1.42,1.42L152.45,95.46A1,1,0,0,1,151.74,95.76Z"/><path class="cls-2" d="M151.74,101.67A1,1,0,0,1,151,100l26.25-26.25a1,1,0,0,1,1.42,0,1,1,0,0,1,0,1.41l-26.26,26.26A1,1,0,0,1,151.74,101.67Z"/><path class="cls-2" d="M151.74,107.59a1,1,0,0,1-.7-1.71l26.25-26.25a1,1,0,0,1,1.42,0,1,1,0,0,1,0,1.41L152.45,107.3A1,1,0,0,1,151.74,107.59Z"/><path class="cls-2" d="M151.74,113.5a1,1,0,0,1-.7-.29,1,1,0,0,1,0-1.41l26.25-26.26A1,1,0,1,1,178.71,87l-26.26,26.25A1,1,0,0,1,151.74,113.5Z"/><path class="cls-2" d="M151.74,119.42a1,1,0,0,1-.7-1.71l26.25-26.25a1,1,0,0,1,1.42,0,1,1,0,0,1,0,1.41l-26.26,26.26A1,1,0,0,1,151.74,119.42Z"/><path class="cls-2" d="M151.74,125.34a1,1,0,0,1-.7-1.71l26.25-26.25a1,1,0,0,1,1.42,0,1,1,0,0,1,0,1.41l-26.26,26.26A1,1,0,0,1,151.74,125.34Z"/><path class="cls-2" d="M151.74,89.84a1,1,0,0,1-.7-1.71l26.25-26.25a1,1,0,0,1,1.42,0,1,1,0,0,1,0,1.41L152.45,89.55A1,1,0,0,1,151.74,89.84Z"/><path class="cls-2" d="M151.74,95.76a1,1,0,0,1-.7-.3,1,1,0,0,1,0-1.41l26.25-26.26a1,1,0,1,1,1.42,1.42L152.45,95.46A1,1,0,0,1,151.74,95.76Z"/><path class="cls-2" d="M151.74,101.67A1,1,0,0,1,151,100l26.25-26.25a1,1,0,0,1,1.42,0,1,1,0,0,1,0,1.41l-26.26,26.26A1,1,0,0,1,151.74,101.67Z"/><path class="cls-2" d="M151.74,107.59a1,1,0,0,1-.7-1.71l26.25-26.25a1,1,0,0,1,1.42,0,1,1,0,0,1,0,1.41L152.45,107.3A1,1,0,0,1,151.74,107.59Z"/><path class="cls-2" d="M151.74,113.5a1,1,0,0,1-.7-.29,1,1,0,0,1,0-1.41l26.25-26.26A1,1,0,1,1,178.71,87l-26.26,26.25A1,1,0,0,1,151.74,113.5Z"/><path class="cls-2" d="M151.74,119.42a1,1,0,0,1-.7-1.71l26.25-26.25a1,1,0,0,1,1.42,0,1,1,0,0,1,0,1.41l-26.26,26.26A1,1,0,0,1,151.74,119.42Z"/><path class="cls-2" d="M151.74,125.34a1,1,0,0,1-.7-1.71l26.25-26.25a1,1,0,0,1,1.42,0,1,1,0,0,1,0,1.41l-26.26,26.26A1,1,0,0,1,151.74,125.34Z"/><path class="cls-2" d="M151.74,131.25a1,1,0,0,1-.7-.29,1,1,0,0,1,0-1.41l26.25-26.26a1,1,0,1,1,1.42,1.42L152.45,131A1,1,0,0,1,151.74,131.25Z"/></g><path class="cls-2" d="M99.93,68.4a1.47,1.47,0,0,1-1-.39A41.71,41.71,0,0,0,71.12,57.35H42.66a1.5,1.5,0,0,1,0-3H71.12a44.64,44.64,0,0,1,29.55,11.2A1.48,1.48,0,0,1,101,68l-.08.08A1.54,1.54,0,0,1,99.93,68.4Z"/><path class="cls-2" d="M99.73,79.1a1.41,1.41,0,0,1-1-.35A41.69,41.69,0,0,0,71,68.08H42.5a1.5,1.5,0,0,1,0-3H71a44.68,44.68,0,0,1,29.42,11.09,1.47,1.47,0,0,1,.58.41,1.49,1.49,0,0,1-.14,2.12A1.69,1.69,0,0,1,99.73,79.1Z"/><path class="cls-2" d="M99.57,89.84a1.46,1.46,0,0,1-1-.36A41.67,41.67,0,0,0,70.79,78.81H42.33a1.5,1.5,0,0,1,0-3H70.79A44.65,44.65,0,0,1,100.34,87a1.35,1.35,0,0,1,.41.31,1.46,1.46,0,0,1-.08,2.09A1.66,1.66,0,0,1,99.57,89.84Z"/><path class="cls-2" d="M99.4,100.57a1.41,1.41,0,0,1-1-.35A41.69,41.69,0,0,0,70.63,89.55H42.17a1.5,1.5,0,0,1,0-3H70.63a44.64,44.64,0,0,1,29.55,11.2,1.38,1.38,0,0,1,.41.32,1.47,1.47,0,0,1-.08,2.09A1.69,1.69,0,0,1,99.4,100.57Z"/><path class="cls-2" d="M99.24,111.3a1.45,1.45,0,0,1-1-.35,41.67,41.67,0,0,0-27.81-10.67H42a1.5,1.5,0,0,1,0-3H70.46A44.69,44.69,0,0,1,100,108.48a1.57,1.57,0,0,1,.41.32,1.46,1.46,0,0,1-.08,2.09A1.65,1.65,0,0,1,99.24,111.3Z"/></svg>