<svg id="Layer_1" data-name="Layer 1" xmlns="http://www.w3.org/2000/svg" xmlns:xlink="http://www.w3.org/1999/xlink" viewBox="0 0 274 245"><defs><style>.cls-1{opacity:0.9;fill:url(#linear-gradient);}.cls-2{fill:#911d22;}.cls-3{fill:#da7d81;}.cls-4{fill:#c1272d;}.cls-5{fill:#4d4d4d;}</style><linearGradient id="linear-gradient" x1="137.23" y1="3.84" x2="137.23" y2="85.65" gradientUnits="userSpaceOnUse"><stop offset="0.08" stop-color="#fff" stop-opacity="0"/><stop offset="0.15" stop-color="#fffbf2" stop-opacity="0.06"/><stop offset="0.27" stop-color="#fef2d0" stop-opacity="0.21"/><stop offset="0.44" stop-color="#fee399" stop-opacity="0.46"/><stop offset="0.65" stop-color="#fdce4f" stop-opacity="0.79"/><stop offset="0.78" stop-color="#fcc121"/></linearGradient></defs><title>Sermonwise_center_G</title><path class="cls-1" d="M136.29,66.39c10.45-7,24.2-11.22,39.33-11.22h13.92L209.12,9H65.33L82.12,55.17H97C112.09,55.17,125.84,59.43,136.29,66.39Z"/><path class="cls-2" d="M189.54,51.31H175.62a58.77,58.77,0,0,0-39.33,15.08A62,62,0,0,1,141,71,58.77,58.77,0,0,1,156,110.37v53.74a84.22,84.22,0,0,0-19.74,16.82l.07.07h.38a83.53,83.53,0,0,1,63.55-29.22h14.18V51.31Z"/><path class="cls-3" d="M116.56,164.11V110.37A58.77,58.77,0,0,1,131.64,71a63.75,63.75,0,0,1,4.65-4.65A58.76,58.76,0,0,0,97,51.31H58.12V151.78H72.3A83.5,83.5,0,0,1,135.84,181h.39l.06-.07A84.17,84.17,0,0,0,116.56,164.11Z"/><path class="cls-4" d="M141,71a62,62,0,0,0-4.66-4.65A63.75,63.75,0,0,0,131.64,71a58.77,58.77,0,0,0-15.08,39.33v53.74a84.17,84.17,0,0,1,19.73,16.82A84.22,84.22,0,0,1,156,164.11V110.37A58.77,58.77,0,0,0,141,71Z"/><path class="cls-5" d="M32.2,215.62a17.72,17.72,0,0,0-6.93-2.75,23.4,23.4,0,0,1-3-.84,3.59,3.59,0,0,1-1.37-.82,1.57,1.57,0,0,1-.36-1.07,2.12,2.12,0,0,1,1-1.86,5.57,5.57,0,0,1,3.07-.73,8.23,8.23,0,0,1,2.86.42A13.73,13.73,0,0,1,30,209.28a5.2,5.2,0,0,0,1,.49,3,3,0,0,0,.85.13,2,2,0,0,0,1.57-.83,2.77,2.77,0,0,0,.64-1.8,2.63,2.63,0,0,0-.28-1.26,3.22,3.22,0,0,0-.86-1,13.34,13.34,0,0,0-8.36-2.55,12.9,12.9,0,0,0-5.2,1,8.88,8.88,0,0,0-3.67,2.88,7,7,0,0,0-1.35,4.18,6.58,6.58,0,0,0,.95,3.59,7.18,7.18,0,0,0,3,2.48,22.85,22.85,0,0,0,5.24,1.62,14.29,14.29,0,0,1,3.85,1.19,1.54,1.54,0,0,1,.9,1.34,2,2,0,0,1-1,1.8,6.29,6.29,0,0,1-3.25.69,11.69,11.69,0,0,1-3.23-.42,10.93,10.93,0,0,1-2.89-1.32,6,6,0,0,0-1-.47,2.94,2.94,0,0,0-.88-.14,2,2,0,0,0-1.58.82,2.79,2.79,0,0,0-.64,1.8A2.52,2.52,0,0,0,15,225.78a11.11,11.11,0,0,0,4,1.9,19.94,19.94,0,0,0,5.19.65,13.78,13.78,0,0,0,5.33-1,8.44,8.44,0,0,0,3.65-2.78,6.93,6.93,0,0,0,1.31-4.16A5.81,5.81,0,0,0,32.2,215.62Z"/><path class="cls-5" d="M53.66,207.86c2.61,0,3-1.6,3-2.56s-.39-2.52-3-2.52H41.44a2.72,2.72,0,0,0-3,3v19.3a2.72,2.72,0,0,0,3,3H53.66c2.61,0,3-1.58,3-2.52s-.39-2.55-3-2.55h-9v-5.22H53c2.61,0,3-1.58,3-2.52s-.39-2.55-3-2.55H44.61v-4.8Z"/><path class="cls-5" d="M78.16,220a7.52,7.52,0,0,0-1.67-1.86,5.16,5.16,0,0,0-.63-.4,7.36,7.36,0,0,0,3.24-2.21,7.5,7.5,0,0,0,1.66-4.95,7.24,7.24,0,0,0-2.35-5.78c-1.54-1.32-3.81-2-6.76-2H63a2.74,2.74,0,0,0-3,3v19.34a3,3,0,0,0,3.14,3.14,3,3,0,0,0,2.24-.86,3.17,3.17,0,0,0,.84-2.28v-6.53h2.34a2.78,2.78,0,0,1,1.43.33,3.8,3.8,0,0,1,1.1,1.17l4.55,6.75a3,3,0,0,0,1.21,1.13,3.34,3.34,0,0,0,3.58-.36,2.41,2.41,0,0,0,.94-1.94,3.08,3.08,0,0,0-.59-1.73Zm-3.37-9.28a2.58,2.58,0,0,1-.87,2.18h0a5,5,0,0,1-3.07.72H66.16v-5.8h4.69a5.26,5.26,0,0,1,3.08.7A2.61,2.61,0,0,1,74.79,210.69Z"/><path class="cls-5" d="M109.52,203.49a2.91,2.91,0,0,0-2.18-.88,3.21,3.21,0,0,0-2.88,2l-6.58,12.54-6.6-12.53a3.16,3.16,0,0,0-2.92-2,2.91,2.91,0,0,0-2.18.88,3.12,3.12,0,0,0-.83,2.23v19.61a2.87,2.87,0,0,0,.79,2.11,3,3,0,0,0,4.06,0,2.88,2.88,0,0,0,.78-2.09V215.09L95,222.57a4.24,4.24,0,0,0,1.2,1.47,2.74,2.74,0,0,0,1.61.5,2.68,2.68,0,0,0,1.63-.51,4.09,4.09,0,0,0,1.18-1.46l4.06-7.63v10.39a2.83,2.83,0,0,0,.79,2.11,2.74,2.74,0,0,0,2,.79,2.78,2.78,0,0,0,2-.79,2.87,2.87,0,0,0,.79-2.11V205.72a3.12,3.12,0,0,0-.83-2.23Z"/><path class="cls-5" d="M133.58,204.05a14.24,14.24,0,0,0-13,0,10.69,10.69,0,0,0-4.31,4.52,16.23,16.23,0,0,0,0,13.63,10.89,10.89,0,0,0,4.3,4.54h0a14.18,14.18,0,0,0,13.05,0,10.83,10.83,0,0,0,4.3-4.54,16.23,16.23,0,0,0,0-13.63A10.73,10.73,0,0,0,133.58,204.05Zm-6.52,19.21a5.32,5.32,0,0,1-4.42-2,11.55,11.55,0,0,1,0-11.78,6,6,0,0,1,8.88,0,11.44,11.44,0,0,1,0,11.77A5.35,5.35,0,0,1,127.06,223.26Z"/><path class="cls-5" d="M164.86,203.49h0a2.9,2.9,0,0,0-2.17-.88,2.8,2.8,0,0,0-2.13.89,3.16,3.16,0,0,0-.81,2.22v11.65L149,203.68a2.78,2.78,0,0,0-2.32-1.07,2.87,2.87,0,0,0-2.17.88,3.09,3.09,0,0,0-.84,2.23v19.37a3.2,3.2,0,0,0,.81,2.25,2.83,2.83,0,0,0,2.16.89,2.78,2.78,0,0,0,2.15-.89,3.27,3.27,0,0,0,.79-2.25V213.38l10.77,13.79a2.94,2.94,0,0,0,2.35,1.06,2.9,2.9,0,0,0,2.17-.88,3.16,3.16,0,0,0,.83-2.26V205.72A3.12,3.12,0,0,0,164.86,203.49Z"/><path class="cls-5" d="M203.32,203.25a1.38,1.38,0,0,1,.76-.23,1.43,1.43,0,0,1,.95.33,1.08,1.08,0,0,1,.4.88,1.79,1.79,0,0,1-.1.56l-7.81,22a1.39,1.39,0,0,1-.58.74,1.76,1.76,0,0,1-.93.26,1.66,1.66,0,0,1-.9-.26,1.41,1.41,0,0,1-.59-.74l-6.77-19.13-6.83,19.13a1.41,1.41,0,0,1-.59.74,1.68,1.68,0,0,1-.9.26,1.65,1.65,0,0,1-.89-.26,1.36,1.36,0,0,1-.59-.74l-7.84-22a1.49,1.49,0,0,1-.1-.52,1.09,1.09,0,0,1,.43-.9,1.53,1.53,0,0,1,1-.35,1.45,1.45,0,0,1,.78.23,1.15,1.15,0,0,1,.5.67l6.8,19.61,6.91-19.4a1.42,1.42,0,0,1,1.38-1,1.43,1.43,0,0,1,.83.28,1.59,1.59,0,0,1,.55.79L196,223.6l6.87-19.68A1.16,1.16,0,0,1,203.32,203.25Z"/><path class="cls-5" d="M211.2,227.35a1.44,1.44,0,0,1-.38-1V204.51a1.41,1.41,0,0,1,.38-1,1.33,1.33,0,0,1,1-.4,1.36,1.36,0,0,1,1,.4,1.45,1.45,0,0,1,.38,1V226.3a1.49,1.49,0,0,1-.38,1,1.4,1.4,0,0,1-1,.4A1.36,1.36,0,0,1,211.2,227.35Z"/><path class="cls-5" d="M223.54,227.07a10,10,0,0,1-3.78-2.09,1.56,1.56,0,0,1-.52-1.21,1.31,1.31,0,0,1,.28-.84.8.8,0,0,1,.65-.36,1.64,1.64,0,0,1,1,.38,11.67,11.67,0,0,0,7.32,2.48,7.75,7.75,0,0,0,4.56-1.14,3.74,3.74,0,0,0,1.58-3.24,2.61,2.61,0,0,0-.75-2,5.34,5.34,0,0,0-2-1.19,31.13,31.13,0,0,0-3.35-.94,31.19,31.19,0,0,1-4.64-1.38,7.09,7.09,0,0,1-2.93-2.07,5.31,5.31,0,0,1-1.13-3.52,6.26,6.26,0,0,1,1.13-3.68,7.13,7.13,0,0,1,3.14-2.48,11.35,11.35,0,0,1,4.61-.88,13.2,13.2,0,0,1,4.5.74,9.52,9.52,0,0,1,3.51,2.12,1.71,1.71,0,0,1,.55,1.21,1.36,1.36,0,0,1-.28.85.8.8,0,0,1-.65.36,2.1,2.1,0,0,1-1-.38,11.54,11.54,0,0,0-3.15-1.93,9.73,9.73,0,0,0-3.48-.56,7.34,7.34,0,0,0-4.46,1.19,3.94,3.94,0,0,0-1.59,3.34,3.06,3.06,0,0,0,1.4,2.74,14.11,14.11,0,0,0,4.3,1.61c2.1.5,3.74,1,4.94,1.39a7.46,7.46,0,0,1,3,1.92,4.79,4.79,0,0,1,1.2,3.42,6,6,0,0,1-1.13,3.59,7.32,7.32,0,0,1-3.16,2.42,11.92,11.92,0,0,1-4.66.86A15.73,15.73,0,0,1,223.54,227.07Z"/><path class="cls-5" d="M243.49,227.19a1.32,1.32,0,0,1-.39-1V204.61a1.35,1.35,0,0,1,.39-1,1.5,1.5,0,0,1,1.06-.38h12.91a1.45,1.45,0,0,1,1,.31,1.27,1.27,0,0,1,0,1.73,1.4,1.4,0,0,1-1,.31H245.89V214h10.88a1.4,1.4,0,0,1,1,.31,1.09,1.09,0,0,1,.34.86,1.12,1.12,0,0,1-.34.87,1.45,1.45,0,0,1-1,.31H245.89v8.83h11.57a1.44,1.44,0,0,1,1,.3,1.08,1.08,0,0,1,.34.88,1.09,1.09,0,0,1-.34.86,1.4,1.4,0,0,1-1,.31H244.55A1.45,1.45,0,0,1,243.49,227.19Z"/></svg>