<svg id="Layer_1" data-name="Layer 1" xmlns="http://www.w3.org/2000/svg" xmlns:xlink="http://www.w3.org/1999/xlink" viewBox="0 0 679 127"><defs><style>.cls-1{opacity:0.9;fill:url(#linear-gradient);}.cls-2{fill:#911d22;}.cls-3{fill:#da7d81;}.cls-4{fill:#c1272d;}.cls-5{fill:#fff;}</style><linearGradient id="linear-gradient" x1="62.78" y1="3.85" x2="62.78" y2="57.74" gradientUnits="userSpaceOnUse"><stop offset="0.08" stop-color="#fff" stop-opacity="0"/><stop offset="0.15" stop-color="#fffbf2" stop-opacity="0.06"/><stop offset="0.27" stop-color="#fef2d0" stop-opacity="0.21"/><stop offset="0.44" stop-color="#fee399" stop-opacity="0.46"/><stop offset="0.65" stop-color="#fdce4f" stop-opacity="0.79"/><stop offset="0.78" stop-color="#fcc121"/></linearGradient></defs><title>Sermonwise_horiz_W</title><path class="cls-1" d="M62.17,45.05a47,47,0,0,1,25.9-7.39h9.17l12.9-30.4H15.43l11.05,30.4h9.78A47,47,0,0,1,62.17,45.05Z"/><path class="cls-2" d="M97.24,35.12H88.07a38.69,38.69,0,0,0-25.9,9.93,39.17,39.17,0,0,1,13,29v35.4a55.24,55.24,0,0,0-13,11.08l0,0h.25a55,55,0,0,1,41.86-19.24h9.34V35.12Z"/><path class="cls-3" d="M49.17,109.42V74a38.74,38.74,0,0,1,9.93-25.9,40.42,40.42,0,0,1,3.07-3.07,38.7,38.7,0,0,0-25.91-9.93H10.68V101.3H20a55,55,0,0,1,41.86,19.24h.26s0,0,0,0A55.44,55.44,0,0,0,49.17,109.42Z"/><path class="cls-4" d="M65.23,48.12a38.54,38.54,0,0,0-3.06-3.07,40.42,40.42,0,0,0-3.07,3.07A38.74,38.74,0,0,0,49.17,74v35.4a55.44,55.44,0,0,1,13,11.08,55.24,55.24,0,0,1,13-11.08V74A38.7,38.7,0,0,0,65.23,48.12Z"/><path class="cls-5" d="M177.41,68.87c-3-2.4-8-4.38-14.84-5.88a48.45,48.45,0,0,1-6.48-1.81,7.31,7.31,0,0,1-2.94-1.76,3.35,3.35,0,0,1-.76-2.29,4.5,4.5,0,0,1,2.16-4,11.76,11.76,0,0,1,6.56-1.57,17.67,17.67,0,0,1,6.13.9,30.49,30.49,0,0,1,5.43,2.81,11.6,11.6,0,0,0,2.15,1.05,6.23,6.23,0,0,0,1.81.26A4.28,4.28,0,0,0,180,54.86,6,6,0,0,0,181.36,51a5.75,5.75,0,0,0-.59-2.7,6.86,6.86,0,0,0-1.85-2.12c-4.69-3.62-10.71-5.45-17.89-5.45a27.31,27.31,0,0,0-11.14,2.19A18.9,18.9,0,0,0,142,49.06a15,15,0,0,0-2.88,9,14,14,0,0,0,2,7.68A15.16,15.16,0,0,0,147.57,71a48,48,0,0,0,11.2,3.47c4,.82,6.74,1.67,8.25,2.55a3.28,3.28,0,0,1,1.92,2.87,4.24,4.24,0,0,1-2.14,3.84c-1.56,1-3.9,1.48-7,1.48a25.31,25.31,0,0,1-6.91-.89,23.85,23.85,0,0,1-6.19-2.82,11.35,11.35,0,0,0-2.08-1,5.85,5.85,0,0,0-1.89-.31A4.28,4.28,0,0,0,139.4,82a6.4,6.4,0,0,0-.77,6.63,6.11,6.11,0,0,0,1.85,2A23.87,23.87,0,0,0,149,94.69a42.44,42.44,0,0,0,11.12,1.4A29.6,29.6,0,0,0,171.57,94a18.08,18.08,0,0,0,7.8-5.94,14.93,14.93,0,0,0,2.81-8.92A12.45,12.45,0,0,0,177.41,68.87Z"/><path class="cls-5" d="M223.35,52.25c5.59,0,6.43-3.43,6.43-5.47s-.84-5.4-6.43-5.4H197.18a5.85,5.85,0,0,0-6.36,6.36V89.06a5.84,5.84,0,0,0,6.36,6.36h26.17c5.59,0,6.43-3.38,6.43-5.4s-.84-5.47-6.43-5.47H204V73.39h17.89c5.6,0,6.43-3.38,6.43-5.39s-.83-5.48-6.43-5.48H204V52.25Z"/><path class="cls-5" d="M275.82,78.18a15.84,15.84,0,0,0-3.59-4,10.73,10.73,0,0,0-1.36-.86,15.88,15.88,0,0,0,7-4.74A16.07,16.07,0,0,0,281.37,58c0-5.35-1.69-9.51-5-12.38s-8.17-4.26-14.49-4.26H243.3A5.84,5.84,0,0,0,237,47.74v41.4a6.31,6.31,0,0,0,6.72,6.73,6.42,6.42,0,0,0,4.8-1.85,6.73,6.73,0,0,0,1.78-4.88v-14h5a5.88,5.88,0,0,1,3,.71,7.86,7.86,0,0,1,2.36,2.48l9.74,14.47a6.61,6.61,0,0,0,2.6,2.42,7.17,7.17,0,0,0,7.65-.78,5.11,5.11,0,0,0,2-4.15,6.52,6.52,0,0,0-1.28-3.71Zm-7.24-19.87c0,2.17-.6,3.7-1.85,4.68h0c-1.29,1-3.51,1.53-6.57,1.53H250.11V52.1h10.05c3.07,0,5.28.51,6.58,1.51S268.58,56.1,268.58,58.31Z"/><path class="cls-5" d="M342.94,42.9A6.17,6.17,0,0,0,338.29,41c-2.59,0-4.67,1.44-6.17,4.29L318,72.14,303.9,45.32c-1.41-2.86-3.51-4.31-6.27-4.31A6.19,6.19,0,0,0,293,42.9a6.66,6.66,0,0,0-1.78,4.77v42a6.14,6.14,0,0,0,1.69,4.53,6.36,6.36,0,0,0,8.69-.05,6.18,6.18,0,0,0,1.67-4.48V67.73l8.69,16a9,9,0,0,0,2.58,3.14A5.83,5.83,0,0,0,318,88a5.75,5.75,0,0,0,3.49-1.08A9,9,0,0,0,324,83.75l8.68-16.33V89.65a6.14,6.14,0,0,0,1.69,4.53,5.82,5.82,0,0,0,4.3,1.69A6,6,0,0,0,343,94.18a6.14,6.14,0,0,0,1.68-4.53v-42a6.68,6.68,0,0,0-1.78-4.77Z"/><path class="cls-5" d="M394.46,44.1a30.54,30.54,0,0,0-27.93,0,23.05,23.05,0,0,0-9.21,9.67,31.61,31.61,0,0,0-3.21,14.6A31.57,31.57,0,0,0,357.32,83a23.27,23.27,0,0,0,9.21,9.71h0a30.24,30.24,0,0,0,27.94,0A23.33,23.33,0,0,0,403.68,83a31.57,31.57,0,0,0,3.21-14.59,31.61,31.61,0,0,0-3.21-14.6A23,23,0,0,0,394.46,44.1Zm-14,41.12A11.35,11.35,0,0,1,371.05,81c-2.31-2.86-3.49-7.11-3.49-12.62s1.16-9.75,3.45-12.6,5.37-4.18,9.49-4.18S387.73,53,390,55.78s3.48,7.07,3.48,12.59S392.32,78.12,390,81A11.49,11.49,0,0,1,380.5,85.22Z"/><path class="cls-5" d="M461.43,42.9h0A6.17,6.17,0,0,0,456.78,41a6,6,0,0,0-4.55,1.9,6.75,6.75,0,0,0-1.73,4.76V72.61l-23-29.3a6,6,0,0,0-5-2.3,6.19,6.19,0,0,0-4.65,1.89,6.66,6.66,0,0,0-1.78,4.77V89.14A6.85,6.85,0,0,0,417.79,94a6,6,0,0,0,4.62,1.9A5.93,5.93,0,0,0,427,94a6.9,6.9,0,0,0,1.69-4.82V64.07L451.76,93.6a6.3,6.3,0,0,0,5,2.27A6.17,6.17,0,0,0,461.43,94a6.73,6.73,0,0,0,1.79-4.84V47.67A6.64,6.64,0,0,0,461.43,42.9Z"/><path class="cls-5" d="M543.79,42.38a2.9,2.9,0,0,1,1.62-.48,3.16,3.16,0,0,1,2,.7,2.35,2.35,0,0,1,.85,1.89,3.76,3.76,0,0,1-.23,1.18l-16.7,47.09a3,3,0,0,1-1.26,1.59,3.69,3.69,0,0,1-2,.55,3.54,3.54,0,0,1-1.92-.55,3,3,0,0,1-1.25-1.59L510.45,51.81l-14.64,41a3,3,0,0,1-1.25,1.59,3.6,3.6,0,0,1-1.93.55,3.54,3.54,0,0,1-1.92-.55,3,3,0,0,1-1.26-1.59L472.68,45.67a3.11,3.11,0,0,1-.23-1.11,2.34,2.34,0,0,1,.93-1.92,3.28,3.28,0,0,1,2.1-.74,3.11,3.11,0,0,1,1.67.48,2.52,2.52,0,0,1,1.07,1.44l14.56,42,14.79-41.54a3.12,3.12,0,0,1,1.18-1.67,3.06,3.06,0,0,1,1.77-.55,3,3,0,0,1,1.78.59,3.38,3.38,0,0,1,1.18,1.7L528,86l14.71-42.14A2.52,2.52,0,0,1,543.79,42.38Z"/><path class="cls-5" d="M560.64,94a3.15,3.15,0,0,1-.81-2.26V45.08a3.12,3.12,0,0,1,.81-2.25,3.31,3.31,0,0,1,4.43,0,3.08,3.08,0,0,1,.82,2.25V91.72a3.11,3.11,0,0,1-.82,2.26,3.31,3.31,0,0,1-4.43,0Z"/><path class="cls-5" d="M587.07,93.39a21.73,21.73,0,0,1-8.1-4.47,3.4,3.4,0,0,1-1.11-2.59,2.91,2.91,0,0,1,.59-1.81,1.75,1.75,0,0,1,1.41-.78,3.59,3.59,0,0,1,2.07.81,24.89,24.89,0,0,0,15.67,5.33q6.36,0,9.76-2.44a8.07,8.07,0,0,0,3.4-7,5.6,5.6,0,0,0-1.63-4.18,11.65,11.65,0,0,0-4.29-2.55,64.2,64.2,0,0,0-7.17-2,71.1,71.1,0,0,1-9.94-3,15.42,15.42,0,0,1-6.28-4.44A11.39,11.39,0,0,1,579,56.83,13.43,13.43,0,0,1,581.45,49a15.57,15.57,0,0,1,6.72-5.32A24.47,24.47,0,0,1,598,41.75a28.61,28.61,0,0,1,9.65,1.59,20.33,20.33,0,0,1,7.5,4.55,3.6,3.6,0,0,1,1.18,2.59,2.87,2.87,0,0,1-.59,1.81,1.71,1.71,0,0,1-1.4.77,4.49,4.49,0,0,1-2.14-.81,25.29,25.29,0,0,0-6.73-4.14A21,21,0,0,0,598,46.93q-6.13,0-9.53,2.55a8.4,8.4,0,0,0-3.4,7.13,6.56,6.56,0,0,0,3,5.88,30.21,30.21,0,0,0,9.2,3.44,109.38,109.38,0,0,1,10.57,3,15.81,15.81,0,0,1,6.4,4.1,10.33,10.33,0,0,1,2.55,7.32,12.8,12.8,0,0,1-2.4,7.69,15.62,15.62,0,0,1-6.77,5.17,25.41,25.41,0,0,1-10,1.85A33.69,33.69,0,0,1,587.07,93.39Z"/><path class="cls-5" d="M629.79,93.65a2.84,2.84,0,0,1-.85-2.15V45.3a2.82,2.82,0,0,1,.85-2.14,3.14,3.14,0,0,1,2.25-.81h27.65a3,3,0,0,1,2.07.66,2.68,2.68,0,0,1,0,3.7,3,3,0,0,1-2.07.66H634.93V65.48h23.28a3,3,0,0,1,2.07.67,2.67,2.67,0,0,1,0,3.69,3,3,0,0,1-2.07.67H634.93V89.43h24.76a3.09,3.09,0,0,1,2.07.63,2.72,2.72,0,0,1,0,3.73,3,3,0,0,1-2.07.67H632A3.14,3.14,0,0,1,629.79,93.65Z"/></svg>