<svg id="Layer_1" data-name="Layer 1" xmlns="http://www.w3.org/2000/svg" viewBox="0 0 396 63"><defs><style>.cls-1{fill:#4d4d4d;}</style></defs><title>Sermonwise_txt_G</title><path class="cls-1" d="M40.19,31.73C38,30,34.45,28.61,29.58,27.53A34.24,34.24,0,0,1,25,26.24,5.31,5.31,0,0,1,22.84,25a2.42,2.42,0,0,1-.54-1.64,3.2,3.2,0,0,1,1.54-2.83,8.38,8.38,0,0,1,4.69-1.13,12.79,12.79,0,0,1,4.38.64,21.68,21.68,0,0,1,3.89,2,7.43,7.43,0,0,0,1.54.75,4.15,4.15,0,0,0,1.29.19A3.05,3.05,0,0,0,42,21.72,4.25,4.25,0,0,0,43,19,4.13,4.13,0,0,0,42.59,17a4.83,4.83,0,0,0-1.32-1.53c-3.35-2.58-7.66-3.89-12.79-3.89a19.74,19.74,0,0,0-8,1.56,13.55,13.55,0,0,0-5.62,4.41A10.73,10.73,0,0,0,12.84,24a10.07,10.07,0,0,0,1.45,5.49,10.86,10.86,0,0,0,4.56,3.79,34.48,34.48,0,0,0,8,2.49,21.62,21.62,0,0,1,5.9,1.82,2.34,2.34,0,0,1,1.37,2,3.06,3.06,0,0,1-1.52,2.75,9.54,9.54,0,0,1-5,1.05,18.12,18.12,0,0,1-4.93-.63,17.34,17.34,0,0,1-4.44-2,7.85,7.85,0,0,0-1.48-.72,4.15,4.15,0,0,0-1.35-.22A3,3,0,0,0,13,41.09a4.56,4.56,0,0,0-.56,4.74,4.39,4.39,0,0,0,1.32,1.46,16.75,16.75,0,0,0,6.12,2.9,30,30,0,0,0,8,1A21.1,21.1,0,0,0,36,49.72a12.89,12.89,0,0,0,5.58-4.25,10.67,10.67,0,0,0,2-6.38A8.93,8.93,0,0,0,40.19,31.73Z"/><path class="cls-1" d="M73,19.86c4,0,4.6-2.45,4.6-3.92S77,12.08,73,12.08H54.32A4.53,4.53,0,0,0,51,13.29a4.52,4.52,0,0,0-1.2,3.34V46.17a4.18,4.18,0,0,0,4.54,4.55H73c4,0,4.6-2.42,4.6-3.86S77,43,73,43H59.19V35H72c4,0,4.6-2.42,4.6-3.86S76,27.2,72,27.2H59.19V19.86Z"/><path class="cls-1" d="M110.54,38.39A11.42,11.42,0,0,0,108,35.55a7.52,7.52,0,0,0-1-.61,11.3,11.3,0,0,0,5-3.39A11.5,11.5,0,0,0,114.52,24c0-3.82-1.21-6.8-3.6-8.85s-5.84-3.05-10.36-3.05H87.3A4.53,4.53,0,0,0,84,13.29a4.53,4.53,0,0,0-1.21,3.34v29.6A4.51,4.51,0,0,0,87.56,51,4.61,4.61,0,0,0,91,49.72a4.81,4.81,0,0,0,1.28-3.49v-10h3.59a4.16,4.16,0,0,1,2.18.51,5.66,5.66,0,0,1,1.69,1.77l7,10.35a4.7,4.7,0,0,0,1.86,1.72A5.1,5.1,0,0,0,114,50a3.66,3.66,0,0,0,1.45-3,4.71,4.71,0,0,0-.91-2.65Zm-5.17-14.2a4,4,0,0,1-1.32,3.34h0c-.93.73-2.51,1.1-4.7,1.1H92.16V19.75h7.19c2.19,0,3.78.36,4.71,1.07A4,4,0,0,1,105.37,24.19Z"/><path class="cls-1" d="M158.53,13.17a4.38,4.38,0,0,0-3.32-1.35c-1.85,0-3.34,1-4.42,3.06L140.73,34.07,130.62,14.9a4.83,4.83,0,0,0-4.48-3.08,4.38,4.38,0,0,0-3.32,1.35,4.75,4.75,0,0,0-1.28,3.41v30a4.39,4.39,0,0,0,1.21,3.23A4.18,4.18,0,0,0,125.82,51,4.22,4.22,0,0,0,129,49.8a4.41,4.41,0,0,0,1.2-3.2V30.92l6.21,11.46a6.34,6.34,0,0,0,1.85,2.24,4.13,4.13,0,0,0,2.46.76,4.2,4.2,0,0,0,2.49-.76A6.46,6.46,0,0,0,145,42.37l6.21-11.67V46.6a4.39,4.39,0,0,0,1.21,3.23A4.18,4.18,0,0,0,155.47,51a4.25,4.25,0,0,0,3.13-1.21,4.39,4.39,0,0,0,1.21-3.23v-30a4.75,4.75,0,0,0-1.28-3.41Z"/><path class="cls-1" d="M195.37,14a21.89,21.89,0,0,0-20,0,16.49,16.49,0,0,0-6.59,6.92,22.66,22.66,0,0,0-2.29,10.44,22.61,22.61,0,0,0,2.29,10.43,16.6,16.6,0,0,0,6.59,6.94h0a21.57,21.57,0,0,0,20,0A16.66,16.66,0,0,0,202,41.81a22.61,22.61,0,0,0,2.29-10.43A22.66,22.66,0,0,0,202,20.94,16.55,16.55,0,0,0,195.37,14Zm-10,29.4a8.11,8.11,0,0,1-6.75-3c-1.66-2-2.49-5.08-2.49-9s.83-7,2.46-9a9.22,9.22,0,0,1,13.6,0c1.65,2,2.48,5.06,2.48,9s-.84,7-2.51,9A8.2,8.2,0,0,1,185.38,43.42Z"/><path class="cls-1" d="M243.25,13.17h0a4.4,4.4,0,0,0-3.33-1.35,4.26,4.26,0,0,0-3.25,1.36,4.82,4.82,0,0,0-1.24,3.4V34.41L219,13.46a4.25,4.25,0,0,0-3.56-1.64,4.38,4.38,0,0,0-3.32,1.35,4.75,4.75,0,0,0-1.28,3.41V46.23A4.9,4.9,0,0,0,212,49.68,4.33,4.33,0,0,0,215.35,51a4.21,4.21,0,0,0,3.28-1.37,4.9,4.9,0,0,0,1.21-3.44V28.3l16.49,21.12A4.51,4.51,0,0,0,239.92,51a4.42,4.42,0,0,0,3.33-1.35,4.85,4.85,0,0,0,1.27-3.46V16.58A4.78,4.78,0,0,0,243.25,13.17Z"/><path class="cls-1" d="M302.13,12.8a2.07,2.07,0,0,1,1.16-.34,2.17,2.17,0,0,1,1.45.5,1.64,1.64,0,0,1,.61,1.35,2.62,2.62,0,0,1-.16.84L293.25,48.82a2.16,2.16,0,0,1-.9,1.13,2.59,2.59,0,0,1-1.43.4,2.49,2.49,0,0,1-1.37-.4,2.16,2.16,0,0,1-.9-1.13L278.29,19.54,267.83,48.82a2.16,2.16,0,0,1-.9,1.13,2.56,2.56,0,0,1-2.75,0,2.16,2.16,0,0,1-.9-1.13l-12-33.67a2.14,2.14,0,0,1-.16-.79,1.7,1.7,0,0,1,.66-1.38,2.34,2.34,0,0,1,1.5-.52,2.19,2.19,0,0,1,1.19.34,1.77,1.77,0,0,1,.77,1l10.41,30,10.57-29.7a2.23,2.23,0,0,1,.85-1.19,2.16,2.16,0,0,1,2.53,0,2.44,2.44,0,0,1,.85,1.22L290.87,44l10.52-30.12A1.77,1.77,0,0,1,302.13,12.8Z"/><path class="cls-1" d="M314.18,49.69a2.23,2.23,0,0,1-.59-1.61V14.73a2.22,2.22,0,0,1,.59-1.61,2,2,0,0,1,1.58-.61,2.09,2.09,0,0,1,1.59.61,2.25,2.25,0,0,1,.58,1.61V48.08a2.27,2.27,0,0,1-.58,1.61,2.12,2.12,0,0,1-1.59.61A2.09,2.09,0,0,1,314.18,49.69Z"/><path class="cls-1" d="M333.07,49.27a15.6,15.6,0,0,1-5.79-3.2,2.43,2.43,0,0,1-.79-1.85,2.11,2.11,0,0,1,.42-1.3,1.24,1.24,0,0,1,1-.55,2.56,2.56,0,0,1,1.48.58,17.77,17.77,0,0,0,11.2,3.8c3,0,5.35-.58,7-1.74A5.75,5.75,0,0,0,350,40a4,4,0,0,0-1.17-3,8.31,8.31,0,0,0-3.06-1.83,47.47,47.47,0,0,0-5.13-1.42,50,50,0,0,1-7.11-2.12,11,11,0,0,1-4.49-3.17,8.16,8.16,0,0,1-1.72-5.39,9.64,9.64,0,0,1,1.72-5.63,11.15,11.15,0,0,1,4.81-3.8,17.47,17.47,0,0,1,7.06-1.35,20.37,20.37,0,0,1,6.89,1.14,14.49,14.49,0,0,1,5.37,3.25,2.58,2.58,0,0,1,.84,1.85,2.08,2.08,0,0,1-.42,1.29,1.24,1.24,0,0,1-1,.56,3.26,3.26,0,0,1-1.54-.59,18,18,0,0,0-4.81-3,14.86,14.86,0,0,0-5.33-.85,11.2,11.2,0,0,0-6.82,1.82,6,6,0,0,0-2.43,5.1,4.67,4.67,0,0,0,2.14,4.2,21.33,21.33,0,0,0,6.58,2.46q4.8,1.17,7.56,2.14a11.28,11.28,0,0,1,4.57,2.94,7.37,7.37,0,0,1,1.82,5.23,9.08,9.08,0,0,1-1.72,5.49,11.07,11.07,0,0,1-4.83,3.7,18.18,18.18,0,0,1-7.14,1.32A24.19,24.19,0,0,1,333.07,49.27Z"/><path class="cls-1" d="M363.61,49.45a2,2,0,0,1-.6-1.53v-33a2,2,0,0,1,.6-1.54,2.29,2.29,0,0,1,1.62-.58H385a2.11,2.11,0,0,1,1.48.48,1.7,1.7,0,0,1,.53,1.32,1.7,1.7,0,0,1-.53,1.32,2.11,2.11,0,0,1-1.48.48h-17.7V29.31h16.64a2.11,2.11,0,0,1,1.48.48,1.67,1.67,0,0,1,.53,1.32,1.64,1.64,0,0,1-.53,1.32,2.11,2.11,0,0,1-1.48.48H367.29V46.44H385a2.2,2.2,0,0,1,1.48.45,1.68,1.68,0,0,1,.53,1.34,1.71,1.71,0,0,1-.53,1.33A2.15,2.15,0,0,1,385,50H365.23A2.25,2.25,0,0,1,363.61,49.45Z"/></svg>